G04 #@! TF.GenerationSoftware,KiCad,Pcbnew,9.0.3*
G04 #@! TF.CreationDate,2025-07-28T15:13:46+02:00*
G04 #@! TF.ProjectId,hw-wps,68772d77-7073-42e6-9b69-6361645f7063,rev?*
G04 #@! TF.SameCoordinates,Original*
G04 #@! TF.FileFunction,Legend,Top*
G04 #@! TF.FilePolarity,Positive*
%FSLAX46Y46*%
G04 Gerber Fmt 4.6, Leading zero omitted, Abs format (unit mm)*
G04 Created by KiCad (PCBNEW 9.0.3) date 2025-07-28 15:13:46*
%MOMM*%
%LPD*%
G01*
G04 APERTURE LIST*
%ADD10C,0.200000*%
%ADD11C,0.150000*%
%ADD12C,0.120000*%
%ADD13C,0.300000*%
G04 APERTURE END LIST*
D10*
X102274435Y-52867219D02*
X102512530Y-53867219D01*
X102512530Y-53867219D02*
X102703006Y-53152933D01*
X102703006Y-53152933D02*
X102893482Y-53867219D01*
X102893482Y-53867219D02*
X103131578Y-52867219D01*
X103512530Y-53867219D02*
X103512530Y-52867219D01*
X103512530Y-52867219D02*
X103893482Y-52867219D01*
X103893482Y-52867219D02*
X103988720Y-52914838D01*
X103988720Y-52914838D02*
X104036339Y-52962457D01*
X104036339Y-52962457D02*
X104083958Y-53057695D01*
X104083958Y-53057695D02*
X104083958Y-53200552D01*
X104083958Y-53200552D02*
X104036339Y-53295790D01*
X104036339Y-53295790D02*
X103988720Y-53343409D01*
X103988720Y-53343409D02*
X103893482Y-53391028D01*
X103893482Y-53391028D02*
X103512530Y-53391028D01*
X104464911Y-53819600D02*
X104607768Y-53867219D01*
X104607768Y-53867219D02*
X104845863Y-53867219D01*
X104845863Y-53867219D02*
X104941101Y-53819600D01*
X104941101Y-53819600D02*
X104988720Y-53771980D01*
X104988720Y-53771980D02*
X105036339Y-53676742D01*
X105036339Y-53676742D02*
X105036339Y-53581504D01*
X105036339Y-53581504D02*
X104988720Y-53486266D01*
X104988720Y-53486266D02*
X104941101Y-53438647D01*
X104941101Y-53438647D02*
X104845863Y-53391028D01*
X104845863Y-53391028D02*
X104655387Y-53343409D01*
X104655387Y-53343409D02*
X104560149Y-53295790D01*
X104560149Y-53295790D02*
X104512530Y-53248171D01*
X104512530Y-53248171D02*
X104464911Y-53152933D01*
X104464911Y-53152933D02*
X104464911Y-53057695D01*
X104464911Y-53057695D02*
X104512530Y-52962457D01*
X104512530Y-52962457D02*
X104560149Y-52914838D01*
X104560149Y-52914838D02*
X104655387Y-52867219D01*
X104655387Y-52867219D02*
X104893482Y-52867219D01*
X104893482Y-52867219D02*
X105036339Y-52914838D01*
X106083959Y-52867219D02*
X106417292Y-53867219D01*
X106417292Y-53867219D02*
X106750625Y-52867219D01*
X107274435Y-52867219D02*
X107369673Y-52867219D01*
X107369673Y-52867219D02*
X107464911Y-52914838D01*
X107464911Y-52914838D02*
X107512530Y-52962457D01*
X107512530Y-52962457D02*
X107560149Y-53057695D01*
X107560149Y-53057695D02*
X107607768Y-53248171D01*
X107607768Y-53248171D02*
X107607768Y-53486266D01*
X107607768Y-53486266D02*
X107560149Y-53676742D01*
X107560149Y-53676742D02*
X107512530Y-53771980D01*
X107512530Y-53771980D02*
X107464911Y-53819600D01*
X107464911Y-53819600D02*
X107369673Y-53867219D01*
X107369673Y-53867219D02*
X107274435Y-53867219D01*
X107274435Y-53867219D02*
X107179197Y-53819600D01*
X107179197Y-53819600D02*
X107131578Y-53771980D01*
X107131578Y-53771980D02*
X107083959Y-53676742D01*
X107083959Y-53676742D02*
X107036340Y-53486266D01*
X107036340Y-53486266D02*
X107036340Y-53248171D01*
X107036340Y-53248171D02*
X107083959Y-53057695D01*
X107083959Y-53057695D02*
X107131578Y-52962457D01*
X107131578Y-52962457D02*
X107179197Y-52914838D01*
X107179197Y-52914838D02*
X107274435Y-52867219D01*
X108036340Y-53771980D02*
X108083959Y-53819600D01*
X108083959Y-53819600D02*
X108036340Y-53867219D01*
X108036340Y-53867219D02*
X107988721Y-53819600D01*
X107988721Y-53819600D02*
X108036340Y-53771980D01*
X108036340Y-53771980D02*
X108036340Y-53867219D01*
X109036339Y-53867219D02*
X108464911Y-53867219D01*
X108750625Y-53867219D02*
X108750625Y-52867219D01*
X108750625Y-52867219D02*
X108655387Y-53010076D01*
X108655387Y-53010076D02*
X108560149Y-53105314D01*
X108560149Y-53105314D02*
X108464911Y-53152933D01*
D11*
X100785714Y-55869819D02*
X100785714Y-54869819D01*
X100785714Y-54869819D02*
X101023809Y-54869819D01*
X101023809Y-54869819D02*
X101166666Y-54917438D01*
X101166666Y-54917438D02*
X101261904Y-55012676D01*
X101261904Y-55012676D02*
X101309523Y-55107914D01*
X101309523Y-55107914D02*
X101357142Y-55298390D01*
X101357142Y-55298390D02*
X101357142Y-55441247D01*
X101357142Y-55441247D02*
X101309523Y-55631723D01*
X101309523Y-55631723D02*
X101261904Y-55726961D01*
X101261904Y-55726961D02*
X101166666Y-55822200D01*
X101166666Y-55822200D02*
X101023809Y-55869819D01*
X101023809Y-55869819D02*
X100785714Y-55869819D01*
X102214285Y-55869819D02*
X102214285Y-55346009D01*
X102214285Y-55346009D02*
X102166666Y-55250771D01*
X102166666Y-55250771D02*
X102071428Y-55203152D01*
X102071428Y-55203152D02*
X101880952Y-55203152D01*
X101880952Y-55203152D02*
X101785714Y-55250771D01*
X102214285Y-55822200D02*
X102119047Y-55869819D01*
X102119047Y-55869819D02*
X101880952Y-55869819D01*
X101880952Y-55869819D02*
X101785714Y-55822200D01*
X101785714Y-55822200D02*
X101738095Y-55726961D01*
X101738095Y-55726961D02*
X101738095Y-55631723D01*
X101738095Y-55631723D02*
X101785714Y-55536485D01*
X101785714Y-55536485D02*
X101880952Y-55488866D01*
X101880952Y-55488866D02*
X102119047Y-55488866D01*
X102119047Y-55488866D02*
X102214285Y-55441247D01*
X102690476Y-55203152D02*
X102690476Y-55869819D01*
X102690476Y-55298390D02*
X102738095Y-55250771D01*
X102738095Y-55250771D02*
X102833333Y-55203152D01*
X102833333Y-55203152D02*
X102976190Y-55203152D01*
X102976190Y-55203152D02*
X103071428Y-55250771D01*
X103071428Y-55250771D02*
X103119047Y-55346009D01*
X103119047Y-55346009D02*
X103119047Y-55869819D01*
X103595238Y-55869819D02*
X103595238Y-55203152D01*
X103595238Y-54869819D02*
X103547619Y-54917438D01*
X103547619Y-54917438D02*
X103595238Y-54965057D01*
X103595238Y-54965057D02*
X103642857Y-54917438D01*
X103642857Y-54917438D02*
X103595238Y-54869819D01*
X103595238Y-54869819D02*
X103595238Y-54965057D01*
X104452380Y-55822200D02*
X104357142Y-55869819D01*
X104357142Y-55869819D02*
X104166666Y-55869819D01*
X104166666Y-55869819D02*
X104071428Y-55822200D01*
X104071428Y-55822200D02*
X104023809Y-55726961D01*
X104023809Y-55726961D02*
X104023809Y-55346009D01*
X104023809Y-55346009D02*
X104071428Y-55250771D01*
X104071428Y-55250771D02*
X104166666Y-55203152D01*
X104166666Y-55203152D02*
X104357142Y-55203152D01*
X104357142Y-55203152D02*
X104452380Y-55250771D01*
X104452380Y-55250771D02*
X104499999Y-55346009D01*
X104499999Y-55346009D02*
X104499999Y-55441247D01*
X104499999Y-55441247D02*
X104023809Y-55536485D01*
X105071428Y-55869819D02*
X104976190Y-55822200D01*
X104976190Y-55822200D02*
X104928571Y-55726961D01*
X104928571Y-55726961D02*
X104928571Y-54869819D01*
X106214286Y-55869819D02*
X106214286Y-54869819D01*
X106214286Y-54869819D02*
X106595238Y-54869819D01*
X106595238Y-54869819D02*
X106690476Y-54917438D01*
X106690476Y-54917438D02*
X106738095Y-54965057D01*
X106738095Y-54965057D02*
X106785714Y-55060295D01*
X106785714Y-55060295D02*
X106785714Y-55203152D01*
X106785714Y-55203152D02*
X106738095Y-55298390D01*
X106738095Y-55298390D02*
X106690476Y-55346009D01*
X106690476Y-55346009D02*
X106595238Y-55393628D01*
X106595238Y-55393628D02*
X106214286Y-55393628D01*
X107642857Y-55869819D02*
X107642857Y-55346009D01*
X107642857Y-55346009D02*
X107595238Y-55250771D01*
X107595238Y-55250771D02*
X107500000Y-55203152D01*
X107500000Y-55203152D02*
X107309524Y-55203152D01*
X107309524Y-55203152D02*
X107214286Y-55250771D01*
X107642857Y-55822200D02*
X107547619Y-55869819D01*
X107547619Y-55869819D02*
X107309524Y-55869819D01*
X107309524Y-55869819D02*
X107214286Y-55822200D01*
X107214286Y-55822200D02*
X107166667Y-55726961D01*
X107166667Y-55726961D02*
X107166667Y-55631723D01*
X107166667Y-55631723D02*
X107214286Y-55536485D01*
X107214286Y-55536485D02*
X107309524Y-55488866D01*
X107309524Y-55488866D02*
X107547619Y-55488866D01*
X107547619Y-55488866D02*
X107642857Y-55441247D01*
X108023810Y-55203152D02*
X108261905Y-55869819D01*
X108500000Y-55203152D02*
X108261905Y-55869819D01*
X108261905Y-55869819D02*
X108166667Y-56107914D01*
X108166667Y-56107914D02*
X108119048Y-56155533D01*
X108119048Y-56155533D02*
X108023810Y-56203152D01*
X108880953Y-55203152D02*
X108880953Y-55869819D01*
X108880953Y-55298390D02*
X108928572Y-55250771D01*
X108928572Y-55250771D02*
X109023810Y-55203152D01*
X109023810Y-55203152D02*
X109166667Y-55203152D01*
X109166667Y-55203152D02*
X109261905Y-55250771D01*
X109261905Y-55250771D02*
X109309524Y-55346009D01*
X109309524Y-55346009D02*
X109309524Y-55869819D01*
X109928572Y-55869819D02*
X109833334Y-55822200D01*
X109833334Y-55822200D02*
X109785715Y-55774580D01*
X109785715Y-55774580D02*
X109738096Y-55679342D01*
X109738096Y-55679342D02*
X109738096Y-55393628D01*
X109738096Y-55393628D02*
X109785715Y-55298390D01*
X109785715Y-55298390D02*
X109833334Y-55250771D01*
X109833334Y-55250771D02*
X109928572Y-55203152D01*
X109928572Y-55203152D02*
X110071429Y-55203152D01*
X110071429Y-55203152D02*
X110166667Y-55250771D01*
X110166667Y-55250771D02*
X110214286Y-55298390D01*
X110214286Y-55298390D02*
X110261905Y-55393628D01*
X110261905Y-55393628D02*
X110261905Y-55679342D01*
X110261905Y-55679342D02*
X110214286Y-55774580D01*
X110214286Y-55774580D02*
X110166667Y-55822200D01*
X110166667Y-55822200D02*
X110071429Y-55869819D01*
X110071429Y-55869819D02*
X109928572Y-55869819D01*
X117833333Y-88954819D02*
X117500000Y-88478628D01*
X117261905Y-88954819D02*
X117261905Y-87954819D01*
X117261905Y-87954819D02*
X117642857Y-87954819D01*
X117642857Y-87954819D02*
X117738095Y-88002438D01*
X117738095Y-88002438D02*
X117785714Y-88050057D01*
X117785714Y-88050057D02*
X117833333Y-88145295D01*
X117833333Y-88145295D02*
X117833333Y-88288152D01*
X117833333Y-88288152D02*
X117785714Y-88383390D01*
X117785714Y-88383390D02*
X117738095Y-88431009D01*
X117738095Y-88431009D02*
X117642857Y-88478628D01*
X117642857Y-88478628D02*
X117261905Y-88478628D01*
X118785714Y-88954819D02*
X118214286Y-88954819D01*
X118500000Y-88954819D02*
X118500000Y-87954819D01*
X118500000Y-87954819D02*
X118404762Y-88097676D01*
X118404762Y-88097676D02*
X118309524Y-88192914D01*
X118309524Y-88192914D02*
X118214286Y-88240533D01*
X102109580Y-82121778D02*
X102157200Y-82169397D01*
X102157200Y-82169397D02*
X102204819Y-82312254D01*
X102204819Y-82312254D02*
X102204819Y-82407492D01*
X102204819Y-82407492D02*
X102157200Y-82550349D01*
X102157200Y-82550349D02*
X102061961Y-82645587D01*
X102061961Y-82645587D02*
X101966723Y-82693206D01*
X101966723Y-82693206D02*
X101776247Y-82740825D01*
X101776247Y-82740825D02*
X101633390Y-82740825D01*
X101633390Y-82740825D02*
X101442914Y-82693206D01*
X101442914Y-82693206D02*
X101347676Y-82645587D01*
X101347676Y-82645587D02*
X101252438Y-82550349D01*
X101252438Y-82550349D02*
X101204819Y-82407492D01*
X101204819Y-82407492D02*
X101204819Y-82312254D01*
X101204819Y-82312254D02*
X101252438Y-82169397D01*
X101252438Y-82169397D02*
X101300057Y-82121778D01*
X102204819Y-81169397D02*
X102204819Y-81740825D01*
X102204819Y-81455111D02*
X101204819Y-81455111D01*
X101204819Y-81455111D02*
X101347676Y-81550349D01*
X101347676Y-81550349D02*
X101442914Y-81645587D01*
X101442914Y-81645587D02*
X101490533Y-81740825D01*
X113666666Y-86254819D02*
X113666666Y-86969104D01*
X113666666Y-86969104D02*
X113619047Y-87111961D01*
X113619047Y-87111961D02*
X113523809Y-87207200D01*
X113523809Y-87207200D02*
X113380952Y-87254819D01*
X113380952Y-87254819D02*
X113285714Y-87254819D01*
X114142857Y-87254819D02*
X114142857Y-86254819D01*
X114142857Y-86254819D02*
X114523809Y-86254819D01*
X114523809Y-86254819D02*
X114619047Y-86302438D01*
X114619047Y-86302438D02*
X114666666Y-86350057D01*
X114666666Y-86350057D02*
X114714285Y-86445295D01*
X114714285Y-86445295D02*
X114714285Y-86588152D01*
X114714285Y-86588152D02*
X114666666Y-86683390D01*
X114666666Y-86683390D02*
X114619047Y-86731009D01*
X114619047Y-86731009D02*
X114523809Y-86778628D01*
X114523809Y-86778628D02*
X114142857Y-86778628D01*
X115095238Y-86350057D02*
X115142857Y-86302438D01*
X115142857Y-86302438D02*
X115238095Y-86254819D01*
X115238095Y-86254819D02*
X115476190Y-86254819D01*
X115476190Y-86254819D02*
X115571428Y-86302438D01*
X115571428Y-86302438D02*
X115619047Y-86350057D01*
X115619047Y-86350057D02*
X115666666Y-86445295D01*
X115666666Y-86445295D02*
X115666666Y-86540533D01*
X115666666Y-86540533D02*
X115619047Y-86683390D01*
X115619047Y-86683390D02*
X115047619Y-87254819D01*
X115047619Y-87254819D02*
X115666666Y-87254819D01*
X159738095Y-81456819D02*
X160309523Y-81456819D01*
X160023809Y-82456819D02*
X160023809Y-81456819D01*
X160642857Y-82456819D02*
X160642857Y-81456819D01*
X160642857Y-81456819D02*
X161023809Y-81456819D01*
X161023809Y-81456819D02*
X161119047Y-81504438D01*
X161119047Y-81504438D02*
X161166666Y-81552057D01*
X161166666Y-81552057D02*
X161214285Y-81647295D01*
X161214285Y-81647295D02*
X161214285Y-81790152D01*
X161214285Y-81790152D02*
X161166666Y-81885390D01*
X161166666Y-81885390D02*
X161119047Y-81933009D01*
X161119047Y-81933009D02*
X161023809Y-81980628D01*
X161023809Y-81980628D02*
X160642857Y-81980628D01*
X161595238Y-81552057D02*
X161642857Y-81504438D01*
X161642857Y-81504438D02*
X161738095Y-81456819D01*
X161738095Y-81456819D02*
X161976190Y-81456819D01*
X161976190Y-81456819D02*
X162071428Y-81504438D01*
X162071428Y-81504438D02*
X162119047Y-81552057D01*
X162119047Y-81552057D02*
X162166666Y-81647295D01*
X162166666Y-81647295D02*
X162166666Y-81742533D01*
X162166666Y-81742533D02*
X162119047Y-81885390D01*
X162119047Y-81885390D02*
X161547619Y-82456819D01*
X161547619Y-82456819D02*
X162166666Y-82456819D01*
X102109580Y-88621778D02*
X102157200Y-88669397D01*
X102157200Y-88669397D02*
X102204819Y-88812254D01*
X102204819Y-88812254D02*
X102204819Y-88907492D01*
X102204819Y-88907492D02*
X102157200Y-89050349D01*
X102157200Y-89050349D02*
X102061961Y-89145587D01*
X102061961Y-89145587D02*
X101966723Y-89193206D01*
X101966723Y-89193206D02*
X101776247Y-89240825D01*
X101776247Y-89240825D02*
X101633390Y-89240825D01*
X101633390Y-89240825D02*
X101442914Y-89193206D01*
X101442914Y-89193206D02*
X101347676Y-89145587D01*
X101347676Y-89145587D02*
X101252438Y-89050349D01*
X101252438Y-89050349D02*
X101204819Y-88907492D01*
X101204819Y-88907492D02*
X101204819Y-88812254D01*
X101204819Y-88812254D02*
X101252438Y-88669397D01*
X101252438Y-88669397D02*
X101300057Y-88621778D01*
X101300057Y-88240825D02*
X101252438Y-88193206D01*
X101252438Y-88193206D02*
X101204819Y-88097968D01*
X101204819Y-88097968D02*
X101204819Y-87859873D01*
X101204819Y-87859873D02*
X101252438Y-87764635D01*
X101252438Y-87764635D02*
X101300057Y-87717016D01*
X101300057Y-87717016D02*
X101395295Y-87669397D01*
X101395295Y-87669397D02*
X101490533Y-87669397D01*
X101490533Y-87669397D02*
X101633390Y-87717016D01*
X101633390Y-87717016D02*
X102204819Y-88288444D01*
X102204819Y-88288444D02*
X102204819Y-87669397D01*
X117833333Y-99454819D02*
X117500000Y-98978628D01*
X117261905Y-99454819D02*
X117261905Y-98454819D01*
X117261905Y-98454819D02*
X117642857Y-98454819D01*
X117642857Y-98454819D02*
X117738095Y-98502438D01*
X117738095Y-98502438D02*
X117785714Y-98550057D01*
X117785714Y-98550057D02*
X117833333Y-98645295D01*
X117833333Y-98645295D02*
X117833333Y-98788152D01*
X117833333Y-98788152D02*
X117785714Y-98883390D01*
X117785714Y-98883390D02*
X117738095Y-98931009D01*
X117738095Y-98931009D02*
X117642857Y-98978628D01*
X117642857Y-98978628D02*
X117261905Y-98978628D01*
X118214286Y-98550057D02*
X118261905Y-98502438D01*
X118261905Y-98502438D02*
X118357143Y-98454819D01*
X118357143Y-98454819D02*
X118595238Y-98454819D01*
X118595238Y-98454819D02*
X118690476Y-98502438D01*
X118690476Y-98502438D02*
X118738095Y-98550057D01*
X118738095Y-98550057D02*
X118785714Y-98645295D01*
X118785714Y-98645295D02*
X118785714Y-98740533D01*
X118785714Y-98740533D02*
X118738095Y-98883390D01*
X118738095Y-98883390D02*
X118166667Y-99454819D01*
X118166667Y-99454819D02*
X118785714Y-99454819D01*
X140533333Y-93335009D02*
X140676190Y-93382628D01*
X140676190Y-93382628D02*
X140723809Y-93430247D01*
X140723809Y-93430247D02*
X140771428Y-93525485D01*
X140771428Y-93525485D02*
X140771428Y-93668342D01*
X140771428Y-93668342D02*
X140723809Y-93763580D01*
X140723809Y-93763580D02*
X140676190Y-93811200D01*
X140676190Y-93811200D02*
X140580952Y-93858819D01*
X140580952Y-93858819D02*
X140200000Y-93858819D01*
X140200000Y-93858819D02*
X140200000Y-92858819D01*
X140200000Y-92858819D02*
X140533333Y-92858819D01*
X140533333Y-92858819D02*
X140628571Y-92906438D01*
X140628571Y-92906438D02*
X140676190Y-92954057D01*
X140676190Y-92954057D02*
X140723809Y-93049295D01*
X140723809Y-93049295D02*
X140723809Y-93144533D01*
X140723809Y-93144533D02*
X140676190Y-93239771D01*
X140676190Y-93239771D02*
X140628571Y-93287390D01*
X140628571Y-93287390D02*
X140533333Y-93335009D01*
X140533333Y-93335009D02*
X140200000Y-93335009D01*
X141200000Y-93858819D02*
X141200000Y-93192152D01*
X141200000Y-93382628D02*
X141247619Y-93287390D01*
X141247619Y-93287390D02*
X141295238Y-93239771D01*
X141295238Y-93239771D02*
X141390476Y-93192152D01*
X141390476Y-93192152D02*
X141485714Y-93192152D01*
X142247619Y-93858819D02*
X142247619Y-92858819D01*
X142247619Y-93811200D02*
X142152381Y-93858819D01*
X142152381Y-93858819D02*
X141961905Y-93858819D01*
X141961905Y-93858819D02*
X141866667Y-93811200D01*
X141866667Y-93811200D02*
X141819048Y-93763580D01*
X141819048Y-93763580D02*
X141771429Y-93668342D01*
X141771429Y-93668342D02*
X141771429Y-93382628D01*
X141771429Y-93382628D02*
X141819048Y-93287390D01*
X141819048Y-93287390D02*
X141866667Y-93239771D01*
X141866667Y-93239771D02*
X141961905Y-93192152D01*
X141961905Y-93192152D02*
X142152381Y-93192152D01*
X142152381Y-93192152D02*
X142247619Y-93239771D01*
X143247619Y-93858819D02*
X142676191Y-93858819D01*
X142961905Y-93858819D02*
X142961905Y-92858819D01*
X142961905Y-92858819D02*
X142866667Y-93001676D01*
X142866667Y-93001676D02*
X142771429Y-93096914D01*
X142771429Y-93096914D02*
X142676191Y-93144533D01*
X120166666Y-86254819D02*
X120166666Y-86969104D01*
X120166666Y-86969104D02*
X120119047Y-87111961D01*
X120119047Y-87111961D02*
X120023809Y-87207200D01*
X120023809Y-87207200D02*
X119880952Y-87254819D01*
X119880952Y-87254819D02*
X119785714Y-87254819D01*
X120642857Y-87254819D02*
X120642857Y-86254819D01*
X120642857Y-86254819D02*
X121023809Y-86254819D01*
X121023809Y-86254819D02*
X121119047Y-86302438D01*
X121119047Y-86302438D02*
X121166666Y-86350057D01*
X121166666Y-86350057D02*
X121214285Y-86445295D01*
X121214285Y-86445295D02*
X121214285Y-86588152D01*
X121214285Y-86588152D02*
X121166666Y-86683390D01*
X121166666Y-86683390D02*
X121119047Y-86731009D01*
X121119047Y-86731009D02*
X121023809Y-86778628D01*
X121023809Y-86778628D02*
X120642857Y-86778628D01*
X122166666Y-87254819D02*
X121595238Y-87254819D01*
X121880952Y-87254819D02*
X121880952Y-86254819D01*
X121880952Y-86254819D02*
X121785714Y-86397676D01*
X121785714Y-86397676D02*
X121690476Y-86492914D01*
X121690476Y-86492914D02*
X121595238Y-86540533D01*
X109454819Y-69333333D02*
X110169104Y-69333333D01*
X110169104Y-69333333D02*
X110311961Y-69380952D01*
X110311961Y-69380952D02*
X110407200Y-69476190D01*
X110407200Y-69476190D02*
X110454819Y-69619047D01*
X110454819Y-69619047D02*
X110454819Y-69714285D01*
X109550057Y-68904761D02*
X109502438Y-68857142D01*
X109502438Y-68857142D02*
X109454819Y-68761904D01*
X109454819Y-68761904D02*
X109454819Y-68523809D01*
X109454819Y-68523809D02*
X109502438Y-68428571D01*
X109502438Y-68428571D02*
X109550057Y-68380952D01*
X109550057Y-68380952D02*
X109645295Y-68333333D01*
X109645295Y-68333333D02*
X109740533Y-68333333D01*
X109740533Y-68333333D02*
X109883390Y-68380952D01*
X109883390Y-68380952D02*
X110454819Y-68952380D01*
X110454819Y-68952380D02*
X110454819Y-68333333D01*
X115898095Y-50154819D02*
X115898095Y-50964342D01*
X115898095Y-50964342D02*
X115945714Y-51059580D01*
X115945714Y-51059580D02*
X115993333Y-51107200D01*
X115993333Y-51107200D02*
X116088571Y-51154819D01*
X116088571Y-51154819D02*
X116279047Y-51154819D01*
X116279047Y-51154819D02*
X116374285Y-51107200D01*
X116374285Y-51107200D02*
X116421904Y-51059580D01*
X116421904Y-51059580D02*
X116469523Y-50964342D01*
X116469523Y-50964342D02*
X116469523Y-50154819D01*
X117469523Y-51154819D02*
X116898095Y-51154819D01*
X117183809Y-51154819D02*
X117183809Y-50154819D01*
X117183809Y-50154819D02*
X117088571Y-50297676D01*
X117088571Y-50297676D02*
X116993333Y-50392914D01*
X116993333Y-50392914D02*
X116898095Y-50440533D01*
X159738095Y-87456819D02*
X160309523Y-87456819D01*
X160023809Y-88456819D02*
X160023809Y-87456819D01*
X160642857Y-88456819D02*
X160642857Y-87456819D01*
X160642857Y-87456819D02*
X161023809Y-87456819D01*
X161023809Y-87456819D02*
X161119047Y-87504438D01*
X161119047Y-87504438D02*
X161166666Y-87552057D01*
X161166666Y-87552057D02*
X161214285Y-87647295D01*
X161214285Y-87647295D02*
X161214285Y-87790152D01*
X161214285Y-87790152D02*
X161166666Y-87885390D01*
X161166666Y-87885390D02*
X161119047Y-87933009D01*
X161119047Y-87933009D02*
X161023809Y-87980628D01*
X161023809Y-87980628D02*
X160642857Y-87980628D01*
X162166666Y-88456819D02*
X161595238Y-88456819D01*
X161880952Y-88456819D02*
X161880952Y-87456819D01*
X161880952Y-87456819D02*
X161785714Y-87599676D01*
X161785714Y-87599676D02*
X161690476Y-87694914D01*
X161690476Y-87694914D02*
X161595238Y-87742533D01*
D12*
X112690000Y-91500000D02*
X113380000Y-91500000D01*
X123310000Y-91500000D02*
X122620000Y-91500000D01*
X122620000Y-93220000D02*
X113380000Y-93220000D01*
X113380000Y-89780000D01*
X122620000Y-89780000D01*
X122620000Y-93220000D01*
X102920000Y-81915112D02*
X108080000Y-81915112D01*
X102920000Y-81955112D02*
X108080000Y-81955112D01*
X102921000Y-81875112D02*
X108079000Y-81875112D01*
X102923000Y-81835112D02*
X108077000Y-81835112D01*
X102925000Y-81795112D02*
X108075000Y-81795112D01*
X102928000Y-81755112D02*
X108072000Y-81755112D01*
X102931000Y-81715112D02*
X104460000Y-81715112D01*
X102935000Y-81675112D02*
X104460000Y-81675112D01*
X102940000Y-81635112D02*
X104460000Y-81635112D01*
X102945000Y-81595112D02*
X104460000Y-81595112D01*
X102951000Y-81555112D02*
X104460000Y-81555112D01*
X102957000Y-81515112D02*
X104460000Y-81515112D01*
X102964000Y-81475112D02*
X104460000Y-81475112D01*
X102972000Y-81435112D02*
X104460000Y-81435112D01*
X102981000Y-81395112D02*
X104460000Y-81395112D01*
X102990000Y-81355112D02*
X104460000Y-81355112D01*
X102999000Y-81315112D02*
X104460000Y-81315112D01*
X103010000Y-81275112D02*
X104460000Y-81275112D01*
X103021000Y-81235112D02*
X104460000Y-81235112D01*
X103033000Y-81195112D02*
X104460000Y-81195112D01*
X103045000Y-81155112D02*
X104460000Y-81155112D01*
X103058000Y-81115112D02*
X104460000Y-81115112D01*
X103072000Y-81075112D02*
X104460000Y-81075112D01*
X103087000Y-81035112D02*
X104460000Y-81035112D01*
X103102000Y-80995112D02*
X104460000Y-80995112D01*
X103118000Y-80955112D02*
X104460000Y-80955112D01*
X103135000Y-80915112D02*
X104460000Y-80915112D01*
X103153000Y-80875112D02*
X104460000Y-80875112D01*
X103171000Y-80835112D02*
X104460000Y-80835112D01*
X103191000Y-80795112D02*
X104460000Y-80795112D01*
X103211000Y-80755112D02*
X104460000Y-80755112D01*
X103232000Y-80715112D02*
X104460000Y-80715112D01*
X103254000Y-80675112D02*
X104460000Y-80675112D01*
X103277000Y-80635112D02*
X104460000Y-80635112D01*
X103301000Y-80595112D02*
X104460000Y-80595112D01*
X103325000Y-80555112D02*
X104460000Y-80555112D01*
X103351000Y-80515112D02*
X104460000Y-80515112D01*
X103378000Y-80475112D02*
X104460000Y-80475112D01*
X103406000Y-80435112D02*
X104460000Y-80435112D01*
X103435000Y-80395112D02*
X104460000Y-80395112D01*
X103465000Y-80355112D02*
X104460000Y-80355112D01*
X103497000Y-80315112D02*
X104460000Y-80315112D01*
X103530000Y-80275112D02*
X104460000Y-80275112D01*
X103564000Y-80235112D02*
X104460000Y-80235112D01*
X103599000Y-80195112D02*
X104460000Y-80195112D01*
X103636000Y-80155112D02*
X104460000Y-80155112D01*
X103675000Y-80115112D02*
X104460000Y-80115112D01*
X103715000Y-80075112D02*
X104460000Y-80075112D01*
X103757000Y-80035112D02*
X104460000Y-80035112D01*
X103775000Y-84509887D02*
X104275000Y-84509887D01*
X103801000Y-79995112D02*
X104460000Y-79995112D01*
X103848000Y-79955112D02*
X104460000Y-79955112D01*
X103896000Y-79915112D02*
X104460000Y-79915112D01*
X103947000Y-79875112D02*
X104460000Y-79875112D01*
X104001000Y-79835112D02*
X104460000Y-79835112D01*
X104025000Y-84759887D02*
X104025000Y-84259887D01*
X104057000Y-79795112D02*
X104460000Y-79795112D01*
X104117000Y-79755112D02*
X104460000Y-79755112D01*
X104181000Y-79715112D02*
X104460000Y-79715112D01*
X104249000Y-79675112D02*
X104460000Y-79675112D01*
X104323000Y-79635112D02*
X106677000Y-79635112D01*
X104402000Y-79595112D02*
X106598000Y-79595112D01*
X104489000Y-79555112D02*
X106511000Y-79555112D01*
X104586000Y-79515112D02*
X106414000Y-79515112D01*
X104695000Y-79475112D02*
X106305000Y-79475112D01*
X104823000Y-79435112D02*
X106177000Y-79435112D01*
X104983000Y-79395112D02*
X106017000Y-79395112D01*
X105217000Y-79355112D02*
X105783000Y-79355112D01*
X106540000Y-79675112D02*
X106751000Y-79675112D01*
X106540000Y-79715112D02*
X106819000Y-79715112D01*
X106540000Y-79755112D02*
X106883000Y-79755112D01*
X106540000Y-79795112D02*
X106943000Y-79795112D01*
X106540000Y-79835112D02*
X106999000Y-79835112D01*
X106540000Y-79875112D02*
X107053000Y-79875112D01*
X106540000Y-79915112D02*
X107104000Y-79915112D01*
X106540000Y-79955112D02*
X107152000Y-79955112D01*
X106540000Y-79995112D02*
X107199000Y-79995112D01*
X106540000Y-80035112D02*
X107243000Y-80035112D01*
X106540000Y-80075112D02*
X107285000Y-80075112D01*
X106540000Y-80115112D02*
X107325000Y-80115112D01*
X106540000Y-80155112D02*
X107364000Y-80155112D01*
X106540000Y-80195112D02*
X107401000Y-80195112D01*
X106540000Y-80235112D02*
X107436000Y-80235112D01*
X106540000Y-80275112D02*
X107470000Y-80275112D01*
X106540000Y-80315112D02*
X107503000Y-80315112D01*
X106540000Y-80355112D02*
X107535000Y-80355112D01*
X106540000Y-80395112D02*
X107565000Y-80395112D01*
X106540000Y-80435112D02*
X107594000Y-80435112D01*
X106540000Y-80475112D02*
X107622000Y-80475112D01*
X106540000Y-80515112D02*
X107649000Y-80515112D01*
X106540000Y-80555112D02*
X107675000Y-80555112D01*
X106540000Y-80595112D02*
X107699000Y-80595112D01*
X106540000Y-80635112D02*
X107723000Y-80635112D01*
X106540000Y-80675112D02*
X107746000Y-80675112D01*
X106540000Y-80715112D02*
X107768000Y-80715112D01*
X106540000Y-80755112D02*
X107789000Y-80755112D01*
X106540000Y-80795112D02*
X107809000Y-80795112D01*
X106540000Y-80835112D02*
X107829000Y-80835112D01*
X106540000Y-80875112D02*
X107847000Y-80875112D01*
X106540000Y-80915112D02*
X107865000Y-80915112D01*
X106540000Y-80955112D02*
X107882000Y-80955112D01*
X106540000Y-80995112D02*
X107898000Y-80995112D01*
X106540000Y-81035112D02*
X107913000Y-81035112D01*
X106540000Y-81075112D02*
X107928000Y-81075112D01*
X106540000Y-81115112D02*
X107942000Y-81115112D01*
X106540000Y-81155112D02*
X107955000Y-81155112D01*
X106540000Y-81195112D02*
X107967000Y-81195112D01*
X106540000Y-81235112D02*
X107979000Y-81235112D01*
X106540000Y-81275112D02*
X107990000Y-81275112D01*
X106540000Y-81315112D02*
X108001000Y-81315112D01*
X106540000Y-81355112D02*
X108010000Y-81355112D01*
X106540000Y-81395112D02*
X108019000Y-81395112D01*
X106540000Y-81435112D02*
X108028000Y-81435112D01*
X106540000Y-81475112D02*
X108036000Y-81475112D01*
X106540000Y-81515112D02*
X108043000Y-81515112D01*
X106540000Y-81555112D02*
X108049000Y-81555112D01*
X106540000Y-81595112D02*
X108055000Y-81595112D01*
X106540000Y-81635112D02*
X108060000Y-81635112D01*
X106540000Y-81675112D02*
X108065000Y-81675112D01*
X106540000Y-81715112D02*
X108069000Y-81715112D01*
X108120000Y-81955112D02*
G75*
G02*
X102880000Y-81955112I-2620000J0D01*
G01*
X102880000Y-81955112D02*
G75*
G02*
X108120000Y-81955112I2620000J0D01*
G01*
X112450000Y-85300000D02*
X112450000Y-84700000D01*
X113100000Y-84000000D02*
X115900000Y-84000000D01*
X115700000Y-83800000D02*
X115400000Y-83500000D01*
X115700000Y-83800000D02*
X116000000Y-83500000D01*
X115900000Y-86000000D02*
X113100000Y-86000000D01*
X116000000Y-83500000D02*
X115400000Y-83500000D01*
X116550000Y-84700000D02*
X116550000Y-85300000D01*
X112450000Y-84700000D02*
G75*
G02*
X113150000Y-84000000I700000J0D01*
G01*
X113150000Y-86000000D02*
G75*
G02*
X112450000Y-85300000I0J700000D01*
G01*
X115850000Y-84000000D02*
G75*
G02*
X116550000Y-84700000I1J-699999D01*
G01*
X116550000Y-85300000D02*
G75*
G02*
X115850000Y-86000000I-699999J-1D01*
G01*
X162200000Y-84000000D02*
G75*
G02*
X159800000Y-84000000I-1200000J0D01*
G01*
X159800000Y-84000000D02*
G75*
G02*
X162200000Y-84000000I1200000J0D01*
G01*
X102920000Y-88415112D02*
X108080000Y-88415112D01*
X102920000Y-88455112D02*
X108080000Y-88455112D01*
X102921000Y-88375112D02*
X108079000Y-88375112D01*
X102923000Y-88335112D02*
X108077000Y-88335112D01*
X102925000Y-88295112D02*
X108075000Y-88295112D01*
X102928000Y-88255112D02*
X108072000Y-88255112D01*
X102931000Y-88215112D02*
X104460000Y-88215112D01*
X102935000Y-88175112D02*
X104460000Y-88175112D01*
X102940000Y-88135112D02*
X104460000Y-88135112D01*
X102945000Y-88095112D02*
X104460000Y-88095112D01*
X102951000Y-88055112D02*
X104460000Y-88055112D01*
X102957000Y-88015112D02*
X104460000Y-88015112D01*
X102964000Y-87975112D02*
X104460000Y-87975112D01*
X102972000Y-87935112D02*
X104460000Y-87935112D01*
X102981000Y-87895112D02*
X104460000Y-87895112D01*
X102990000Y-87855112D02*
X104460000Y-87855112D01*
X102999000Y-87815112D02*
X104460000Y-87815112D01*
X103010000Y-87775112D02*
X104460000Y-87775112D01*
X103021000Y-87735112D02*
X104460000Y-87735112D01*
X103033000Y-87695112D02*
X104460000Y-87695112D01*
X103045000Y-87655112D02*
X104460000Y-87655112D01*
X103058000Y-87615112D02*
X104460000Y-87615112D01*
X103072000Y-87575112D02*
X104460000Y-87575112D01*
X103087000Y-87535112D02*
X104460000Y-87535112D01*
X103102000Y-87495112D02*
X104460000Y-87495112D01*
X103118000Y-87455112D02*
X104460000Y-87455112D01*
X103135000Y-87415112D02*
X104460000Y-87415112D01*
X103153000Y-87375112D02*
X104460000Y-87375112D01*
X103171000Y-87335112D02*
X104460000Y-87335112D01*
X103191000Y-87295112D02*
X104460000Y-87295112D01*
X103211000Y-87255112D02*
X104460000Y-87255112D01*
X103232000Y-87215112D02*
X104460000Y-87215112D01*
X103254000Y-87175112D02*
X104460000Y-87175112D01*
X103277000Y-87135112D02*
X104460000Y-87135112D01*
X103301000Y-87095112D02*
X104460000Y-87095112D01*
X103325000Y-87055112D02*
X104460000Y-87055112D01*
X103351000Y-87015112D02*
X104460000Y-87015112D01*
X103378000Y-86975112D02*
X104460000Y-86975112D01*
X103406000Y-86935112D02*
X104460000Y-86935112D01*
X103435000Y-86895112D02*
X104460000Y-86895112D01*
X103465000Y-86855112D02*
X104460000Y-86855112D01*
X103497000Y-86815112D02*
X104460000Y-86815112D01*
X103530000Y-86775112D02*
X104460000Y-86775112D01*
X103564000Y-86735112D02*
X104460000Y-86735112D01*
X103599000Y-86695112D02*
X104460000Y-86695112D01*
X103636000Y-86655112D02*
X104460000Y-86655112D01*
X103675000Y-86615112D02*
X104460000Y-86615112D01*
X103715000Y-86575112D02*
X104460000Y-86575112D01*
X103757000Y-86535112D02*
X104460000Y-86535112D01*
X103775000Y-91009887D02*
X104275000Y-91009887D01*
X103801000Y-86495112D02*
X104460000Y-86495112D01*
X103848000Y-86455112D02*
X104460000Y-86455112D01*
X103896000Y-86415112D02*
X104460000Y-86415112D01*
X103947000Y-86375112D02*
X104460000Y-86375112D01*
X104001000Y-86335112D02*
X104460000Y-86335112D01*
X104025000Y-91259887D02*
X104025000Y-90759887D01*
X104057000Y-86295112D02*
X104460000Y-86295112D01*
X104117000Y-86255112D02*
X104460000Y-86255112D01*
X104181000Y-86215112D02*
X104460000Y-86215112D01*
X104249000Y-86175112D02*
X104460000Y-86175112D01*
X104323000Y-86135112D02*
X106677000Y-86135112D01*
X104402000Y-86095112D02*
X106598000Y-86095112D01*
X104489000Y-86055112D02*
X106511000Y-86055112D01*
X104586000Y-86015112D02*
X106414000Y-86015112D01*
X104695000Y-85975112D02*
X106305000Y-85975112D01*
X104823000Y-85935112D02*
X106177000Y-85935112D01*
X104983000Y-85895112D02*
X106017000Y-85895112D01*
X105217000Y-85855112D02*
X105783000Y-85855112D01*
X106540000Y-86175112D02*
X106751000Y-86175112D01*
X106540000Y-86215112D02*
X106819000Y-86215112D01*
X106540000Y-86255112D02*
X106883000Y-86255112D01*
X106540000Y-86295112D02*
X106943000Y-86295112D01*
X106540000Y-86335112D02*
X106999000Y-86335112D01*
X106540000Y-86375112D02*
X107053000Y-86375112D01*
X106540000Y-86415112D02*
X107104000Y-86415112D01*
X106540000Y-86455112D02*
X107152000Y-86455112D01*
X106540000Y-86495112D02*
X107199000Y-86495112D01*
X106540000Y-86535112D02*
X107243000Y-86535112D01*
X106540000Y-86575112D02*
X107285000Y-86575112D01*
X106540000Y-86615112D02*
X107325000Y-86615112D01*
X106540000Y-86655112D02*
X107364000Y-86655112D01*
X106540000Y-86695112D02*
X107401000Y-86695112D01*
X106540000Y-86735112D02*
X107436000Y-86735112D01*
X106540000Y-86775112D02*
X107470000Y-86775112D01*
X106540000Y-86815112D02*
X107503000Y-86815112D01*
X106540000Y-86855112D02*
X107535000Y-86855112D01*
X106540000Y-86895112D02*
X107565000Y-86895112D01*
X106540000Y-86935112D02*
X107594000Y-86935112D01*
X106540000Y-86975112D02*
X107622000Y-86975112D01*
X106540000Y-87015112D02*
X107649000Y-87015112D01*
X106540000Y-87055112D02*
X107675000Y-87055112D01*
X106540000Y-87095112D02*
X107699000Y-87095112D01*
X106540000Y-87135112D02*
X107723000Y-87135112D01*
X106540000Y-87175112D02*
X107746000Y-87175112D01*
X106540000Y-87215112D02*
X107768000Y-87215112D01*
X106540000Y-87255112D02*
X107789000Y-87255112D01*
X106540000Y-87295112D02*
X107809000Y-87295112D01*
X106540000Y-87335112D02*
X107829000Y-87335112D01*
X106540000Y-87375112D02*
X107847000Y-87375112D01*
X106540000Y-87415112D02*
X107865000Y-87415112D01*
X106540000Y-87455112D02*
X107882000Y-87455112D01*
X106540000Y-87495112D02*
X107898000Y-87495112D01*
X106540000Y-87535112D02*
X107913000Y-87535112D01*
X106540000Y-87575112D02*
X107928000Y-87575112D01*
X106540000Y-87615112D02*
X107942000Y-87615112D01*
X106540000Y-87655112D02*
X107955000Y-87655112D01*
X106540000Y-87695112D02*
X107967000Y-87695112D01*
X106540000Y-87735112D02*
X107979000Y-87735112D01*
X106540000Y-87775112D02*
X107990000Y-87775112D01*
X106540000Y-87815112D02*
X108001000Y-87815112D01*
X106540000Y-87855112D02*
X108010000Y-87855112D01*
X106540000Y-87895112D02*
X108019000Y-87895112D01*
X106540000Y-87935112D02*
X108028000Y-87935112D01*
X106540000Y-87975112D02*
X108036000Y-87975112D01*
X106540000Y-88015112D02*
X108043000Y-88015112D01*
X106540000Y-88055112D02*
X108049000Y-88055112D01*
X106540000Y-88095112D02*
X108055000Y-88095112D01*
X106540000Y-88135112D02*
X108060000Y-88135112D01*
X106540000Y-88175112D02*
X108065000Y-88175112D01*
X106540000Y-88215112D02*
X108069000Y-88215112D01*
X108120000Y-88455112D02*
G75*
G02*
X102880000Y-88455112I-2620000J0D01*
G01*
X102880000Y-88455112D02*
G75*
G02*
X108120000Y-88455112I2620000J0D01*
G01*
X112690000Y-96000000D02*
X113380000Y-96000000D01*
X123310000Y-96000000D02*
X122620000Y-96000000D01*
X113380000Y-94280000D02*
X122620000Y-94280000D01*
X122620000Y-97720000D01*
X113380000Y-97720000D01*
X113380000Y-94280000D01*
X128300000Y-80850000D02*
X155700000Y-80850000D01*
X128300000Y-108150000D02*
X128300000Y-80850000D01*
X128722000Y-84145000D02*
X151822000Y-84145000D01*
X128722000Y-100745000D02*
X128722000Y-84145000D01*
X137001000Y-81339000D02*
X137001000Y-83752000D01*
X137001000Y-81339000D02*
X146780000Y-81339000D01*
X146780000Y-81339000D02*
X146780000Y-83752000D01*
X146780000Y-83752000D02*
X137001000Y-83752000D01*
X151822000Y-84145000D02*
X154908000Y-84145000D01*
X151822000Y-100745000D02*
X128722000Y-100745000D01*
X151822000Y-100745000D02*
X155162000Y-100770000D01*
X155162000Y-84133000D02*
X154908000Y-84145000D01*
X155162000Y-100770000D02*
X155162000Y-84133000D01*
X155700000Y-80850000D02*
X155700000Y-108150000D01*
X155700000Y-108150000D02*
X128300000Y-108150000D01*
X118950000Y-85300000D02*
X118950000Y-84700000D01*
X119600000Y-84000000D02*
X122400000Y-84000000D01*
X122200000Y-83800000D02*
X121900000Y-83500000D01*
X122200000Y-83800000D02*
X122500000Y-83500000D01*
X122400000Y-86000000D02*
X119600000Y-86000000D01*
X122500000Y-83500000D02*
X121900000Y-83500000D01*
X123050000Y-84700000D02*
X123050000Y-85300000D01*
X118950000Y-84700000D02*
G75*
G02*
X119650000Y-84000000I700000J0D01*
G01*
X119650000Y-86000000D02*
G75*
G02*
X118950000Y-85300000I0J700000D01*
G01*
X122350000Y-84000000D02*
G75*
G02*
X123050000Y-84700000I1J-699999D01*
G01*
X123050000Y-85300000D02*
G75*
G02*
X122350000Y-86000000I-699999J-1D01*
G01*
X100380000Y-61880000D02*
X108420000Y-61880000D01*
X100380000Y-77620000D02*
X100380000Y-61880000D01*
X104000000Y-62688000D02*
X104000000Y-61880000D01*
X104000000Y-67688000D02*
X104000000Y-66312000D01*
X104000000Y-72620000D02*
X104000000Y-71312000D01*
X104000000Y-77620000D02*
X104000000Y-76380000D01*
X105000000Y-62688000D02*
X105000000Y-61880000D01*
X105000000Y-67688000D02*
X105000000Y-66312000D01*
X105000000Y-72620000D02*
X105000000Y-71312000D01*
X105000000Y-77620000D02*
X105000000Y-76380000D01*
X106300000Y-63957000D02*
X106300000Y-61880000D01*
X106300000Y-68957000D02*
X106300000Y-65043000D01*
X106300000Y-72620000D02*
X106300000Y-70043000D01*
X106300000Y-77620000D02*
X106300000Y-76380000D01*
X108420000Y-61880000D02*
X108420000Y-74200000D01*
X108420000Y-74800000D02*
X108420000Y-77620000D01*
X108420000Y-77620000D02*
X100380000Y-77620000D01*
X109030000Y-74940000D02*
X108420000Y-74500000D01*
X109030000Y-74060000D01*
X109030000Y-74940000D01*
G36*
X109030000Y-74940000D02*
G01*
X108420000Y-74500000D01*
X109030000Y-74060000D01*
X109030000Y-74940000D01*
G37*
D11*
X111660000Y-53700000D02*
X113660000Y-51700000D01*
X111660000Y-78300000D02*
X111660000Y-53700000D01*
X111660000Y-78300000D02*
X113660000Y-80300000D01*
X113660000Y-51700000D02*
X161660000Y-51700000D01*
D12*
X139660000Y-59000000D02*
X139660000Y-73000000D01*
X139660000Y-73000000D02*
X163660000Y-73000000D01*
X140660000Y-60000000D02*
X140660000Y-72000000D01*
X140660000Y-72000000D02*
X156660000Y-72000000D01*
X156660000Y-60000000D02*
X140660000Y-60000000D01*
X156660000Y-72000000D02*
X156660000Y-60000000D01*
D13*
X157660000Y-68500000D02*
X162160000Y-68500000D01*
X157660000Y-70500000D02*
X162160000Y-70500000D01*
X159160000Y-62000000D02*
X162160000Y-62000000D01*
X159160000Y-63500000D02*
X159160000Y-62000000D01*
X159160000Y-65000000D02*
X162160000Y-65000000D01*
X159160000Y-66500000D02*
X159160000Y-65000000D01*
D11*
X161660000Y-51700000D02*
X163660000Y-53700000D01*
X161660000Y-80300000D02*
X113660000Y-80300000D01*
X161660000Y-80300000D02*
X163660000Y-78300000D01*
D13*
X162160000Y-60500000D02*
X159160000Y-60500000D01*
X162160000Y-62000000D02*
X162160000Y-60500000D01*
X162160000Y-63500000D02*
X159160000Y-63500000D01*
X162160000Y-65000000D02*
X162160000Y-63500000D01*
X162160000Y-66500000D02*
X159160000Y-66500000D01*
X162160000Y-70500000D02*
X162160000Y-66500000D01*
D11*
X163660000Y-53700000D02*
X163660000Y-78300000D01*
D12*
X163660000Y-59000000D02*
X139660000Y-59000000D01*
D11*
X115610000Y-54200000D02*
G75*
G02*
X112710000Y-54200000I-1450000J0D01*
G01*
X112710000Y-54200000D02*
G75*
G02*
X115610000Y-54200000I1450000J0D01*
G01*
X115610000Y-77800000D02*
G75*
G02*
X112710000Y-77800000I-1450000J0D01*
G01*
X112710000Y-77800000D02*
G75*
G02*
X115610000Y-77800000I1450000J0D01*
G01*
X162610000Y-54200000D02*
G75*
G02*
X159710000Y-54200000I-1450000J0D01*
G01*
X159710000Y-54200000D02*
G75*
G02*
X162610000Y-54200000I1450000J0D01*
G01*
X162610000Y-77800000D02*
G75*
G02*
X159710000Y-77800000I-1450000J0D01*
G01*
X159710000Y-77800000D02*
G75*
G02*
X162610000Y-77800000I1450000J0D01*
G01*
D12*
X162200000Y-90000000D02*
G75*
G02*
X159800000Y-90000000I-1200000J0D01*
G01*
X159800000Y-90000000D02*
G75*
G02*
X162200000Y-90000000I1200000J0D01*
G01*
M02*
