G04 #@! TF.GenerationSoftware,KiCad,Pcbnew,9.0.4*
G04 #@! TF.CreationDate,2025-11-10T17:45:28+01:00*
G04 #@! TF.ProjectId,hw-wps,68772d77-7073-42e6-9b69-6361645f7063,rev?*
G04 #@! TF.SameCoordinates,Original*
G04 #@! TF.FileFunction,Copper,L2,Bot*
G04 #@! TF.FilePolarity,Positive*
%FSLAX46Y46*%
G04 Gerber Fmt 4.6, Leading zero omitted, Abs format (unit mm)*
G04 Created by KiCad (PCBNEW 9.0.4) date 2025-11-10 17:45:28*
%MOMM*%
%LPD*%
G01*
G04 APERTURE LIST*
G04 Aperture macros list*
%AMRoundRect*
0 Rectangle with rounded corners*
0 $1 Rounding radius*
0 $2 $3 $4 $5 $6 $7 $8 $9 X,Y pos of 4 corners*
0 Add a 4 corners polygon primitive as box body*
4,1,4,$2,$3,$4,$5,$6,$7,$8,$9,$2,$3,0*
0 Add four circle primitives for the rounded corners*
1,1,$1+$1,$2,$3*
1,1,$1+$1,$4,$5*
1,1,$1+$1,$6,$7*
1,1,$1+$1,$8,$9*
0 Add four rect primitives between the rounded corners*
20,1,$1+$1,$2,$3,$4,$5,0*
20,1,$1+$1,$4,$5,$6,$7,0*
20,1,$1+$1,$6,$7,$8,$9,0*
20,1,$1+$1,$8,$9,$2,$3,0*%
G04 Aperture macros list end*
G04 #@! TA.AperFunction,ComponentPad*
%ADD10C,1.600000*%
G04 #@! TD*
G04 #@! TA.AperFunction,ComponentPad*
%ADD11RoundRect,0.250001X1.149999X1.149999X-1.149999X1.149999X-1.149999X-1.149999X1.149999X-1.149999X0*%
G04 #@! TD*
G04 #@! TA.AperFunction,ComponentPad*
%ADD12C,2.800000*%
G04 #@! TD*
G04 #@! TA.AperFunction,ComponentPad*
%ADD13R,1.600000X1.600000*%
G04 #@! TD*
G04 #@! TA.AperFunction,ComponentPad*
%ADD14RoundRect,0.250000X0.550000X-0.550000X0.550000X0.550000X-0.550000X0.550000X-0.550000X-0.550000X0*%
G04 #@! TD*
G04 #@! TA.AperFunction,ComponentPad*
%ADD15O,1.600000X2.000000*%
G04 #@! TD*
G04 #@! TA.AperFunction,ComponentPad*
%ADD16RoundRect,0.250001X-1.149999X1.149999X-1.149999X-1.149999X1.149999X-1.149999X1.149999X1.149999X0*%
G04 #@! TD*
G04 #@! TA.AperFunction,ComponentPad*
%ADD17C,2.000000*%
G04 #@! TD*
G04 #@! TA.AperFunction,ViaPad*
%ADD18C,0.900000*%
G04 #@! TD*
G04 #@! TA.AperFunction,Conductor*
%ADD19C,0.200000*%
G04 #@! TD*
G04 APERTURE END LIST*
D10*
X261500000Y-78000000D03*
X248800000Y-78000000D03*
D11*
X254250000Y-63532500D03*
D12*
X249250000Y-63532500D03*
D13*
X270845000Y-112680000D03*
D10*
X273385000Y-112680000D03*
X270845000Y-110140000D03*
X273385000Y-110140000D03*
X270845000Y-107600000D03*
X273385000Y-107600000D03*
X270845000Y-105060000D03*
X273385000Y-105060000D03*
X270845000Y-102520000D03*
X273385000Y-102520000D03*
X270845000Y-99980000D03*
X273385000Y-99980000D03*
X270845000Y-97440000D03*
X273385000Y-97440000D03*
X270845000Y-94900000D03*
X273385000Y-94900000D03*
D14*
X260000000Y-85000000D03*
D10*
X260000000Y-82500000D03*
D14*
X250500000Y-85000000D03*
D10*
X250500000Y-82500000D03*
X248800000Y-72500000D03*
X261500000Y-72500000D03*
D15*
X246880000Y-90000000D03*
X249420000Y-90000000D03*
X251960000Y-90000000D03*
X254500000Y-90000000D03*
D16*
X241500000Y-73000000D03*
D12*
X241500000Y-78000000D03*
X241500000Y-83000000D03*
D17*
X274960000Y-85500000D03*
X277500000Y-85500000D03*
X280040000Y-85500000D03*
X282580000Y-85500000D03*
X285120000Y-85500000D03*
X287660000Y-85500000D03*
X290200000Y-85500000D03*
X292740000Y-85500000D03*
X295280000Y-85500000D03*
X297820000Y-85500000D03*
X300360000Y-85500000D03*
X302900000Y-85500000D03*
X305440000Y-85500000D03*
X307980000Y-85500000D03*
X310520000Y-85500000D03*
X310520000Y-60100000D03*
X307980000Y-60100000D03*
X305440000Y-60100000D03*
X302900000Y-60100000D03*
X300360000Y-60100000D03*
X297820000Y-60100000D03*
X295280000Y-60100000D03*
X292740000Y-60100000D03*
X290200000Y-60100000D03*
X287660000Y-60100000D03*
X285120000Y-60100000D03*
X282580000Y-60100000D03*
X280040000Y-60100000D03*
X277500000Y-60100000D03*
X274960000Y-60100000D03*
D18*
X276500000Y-76000000D03*
X275000000Y-90000000D03*
X285000000Y-65500000D03*
X260000000Y-106500000D03*
X259500000Y-89000000D03*
X282500000Y-90000000D03*
X255000000Y-72500000D03*
X289500000Y-100000000D03*
X310500000Y-95500000D03*
X310500000Y-114000000D03*
X283000000Y-95000000D03*
X301500000Y-83000000D03*
X276500000Y-65500000D03*
X240500000Y-62500000D03*
X282500000Y-107500000D03*
X266000000Y-65500000D03*
X301000000Y-105500000D03*
X300000000Y-65000000D03*
X259500000Y-91000000D03*
X241500000Y-115500000D03*
X283000000Y-100000000D03*
X289500000Y-114000000D03*
X294500000Y-96000000D03*
X242000000Y-100000000D03*
X300000000Y-72500000D03*
D19*
X256500000Y-93255000D02*
X270845000Y-107600000D01*
X256500000Y-86000000D02*
X256500000Y-93255000D01*
X260000000Y-82500000D02*
X256500000Y-86000000D01*
G04 #@! TA.AperFunction,Conductor*
G36*
X319003472Y-55550695D02*
G01*
X319323297Y-55568656D01*
X319337094Y-55570210D01*
X319649457Y-55623283D01*
X319663014Y-55626377D01*
X319967469Y-55714089D01*
X319980593Y-55718682D01*
X320273304Y-55839926D01*
X320285826Y-55845955D01*
X320452594Y-55938125D01*
X320563139Y-55999221D01*
X320574900Y-56006611D01*
X320833314Y-56189966D01*
X320844174Y-56198627D01*
X321080418Y-56409749D01*
X321090250Y-56419581D01*
X321301372Y-56655825D01*
X321310035Y-56666687D01*
X321493385Y-56925094D01*
X321500778Y-56936860D01*
X321654040Y-57214166D01*
X321660073Y-57226695D01*
X321781317Y-57519406D01*
X321785910Y-57532530D01*
X321873622Y-57836985D01*
X321876716Y-57850542D01*
X321929787Y-58162894D01*
X321931344Y-58176712D01*
X321949305Y-58496527D01*
X321949500Y-58503480D01*
X321949500Y-121996519D01*
X321949305Y-122003472D01*
X321931344Y-122323287D01*
X321929787Y-122337105D01*
X321876716Y-122649457D01*
X321873622Y-122663014D01*
X321785910Y-122967469D01*
X321781317Y-122980593D01*
X321660073Y-123273304D01*
X321654040Y-123285833D01*
X321500778Y-123563139D01*
X321493380Y-123574913D01*
X321310043Y-123833302D01*
X321301372Y-123844174D01*
X321090250Y-124080418D01*
X321080418Y-124090250D01*
X320844174Y-124301372D01*
X320833302Y-124310043D01*
X320574913Y-124493380D01*
X320563139Y-124500778D01*
X320285833Y-124654040D01*
X320273304Y-124660073D01*
X319980593Y-124781317D01*
X319967469Y-124785910D01*
X319663014Y-124873622D01*
X319649457Y-124876716D01*
X319337105Y-124929787D01*
X319323287Y-124931344D01*
X319003472Y-124949305D01*
X318996519Y-124949500D01*
X235003481Y-124949500D01*
X234996528Y-124949305D01*
X234676712Y-124931344D01*
X234662894Y-124929787D01*
X234350542Y-124876716D01*
X234336985Y-124873622D01*
X234032530Y-124785910D01*
X234019406Y-124781317D01*
X233726695Y-124660073D01*
X233714166Y-124654040D01*
X233436860Y-124500778D01*
X233425094Y-124493385D01*
X233166687Y-124310035D01*
X233155825Y-124301372D01*
X232919581Y-124090250D01*
X232909749Y-124080418D01*
X232698627Y-123844174D01*
X232689966Y-123833314D01*
X232506611Y-123574900D01*
X232499221Y-123563139D01*
X232471135Y-123512321D01*
X232345955Y-123285826D01*
X232339926Y-123273304D01*
X232218682Y-122980593D01*
X232214089Y-122967469D01*
X232126377Y-122663014D01*
X232123283Y-122649457D01*
X232074625Y-122363076D01*
X232070210Y-122337094D01*
X232068656Y-122323297D01*
X232050695Y-122003472D01*
X232050500Y-121996519D01*
X232050500Y-121877973D01*
X233449500Y-121877973D01*
X233449500Y-122122026D01*
X233483565Y-122337105D01*
X233487679Y-122363076D01*
X233563096Y-122595185D01*
X233662670Y-122790611D01*
X233673896Y-122812642D01*
X233817339Y-123010076D01*
X233817343Y-123010081D01*
X233989918Y-123182656D01*
X233989923Y-123182660D01*
X234063205Y-123235902D01*
X234187361Y-123326106D01*
X234404815Y-123436904D01*
X234636924Y-123512321D01*
X234877973Y-123550500D01*
X234877974Y-123550500D01*
X235122026Y-123550500D01*
X235122027Y-123550500D01*
X235363076Y-123512321D01*
X235595185Y-123436904D01*
X235812639Y-123326106D01*
X236010083Y-123182655D01*
X236182655Y-123010083D01*
X236326106Y-122812639D01*
X236436904Y-122595185D01*
X236512321Y-122363076D01*
X236550500Y-122122027D01*
X236550500Y-121877973D01*
X253449500Y-121877973D01*
X253449500Y-122122026D01*
X253483565Y-122337105D01*
X253487679Y-122363076D01*
X253563096Y-122595185D01*
X253662670Y-122790611D01*
X253673896Y-122812642D01*
X253817339Y-123010076D01*
X253817343Y-123010081D01*
X253989918Y-123182656D01*
X253989923Y-123182660D01*
X254063205Y-123235902D01*
X254187361Y-123326106D01*
X254404815Y-123436904D01*
X254636924Y-123512321D01*
X254877973Y-123550500D01*
X254877974Y-123550500D01*
X255122026Y-123550500D01*
X255122027Y-123550500D01*
X255363076Y-123512321D01*
X255595185Y-123436904D01*
X255812639Y-123326106D01*
X256010083Y-123182655D01*
X256182655Y-123010083D01*
X256326106Y-122812639D01*
X256436904Y-122595185D01*
X256512321Y-122363076D01*
X256550500Y-122122027D01*
X256550500Y-121877973D01*
X272449500Y-121877973D01*
X272449500Y-122122026D01*
X272483565Y-122337105D01*
X272487679Y-122363076D01*
X272563096Y-122595185D01*
X272662670Y-122790611D01*
X272673896Y-122812642D01*
X272817339Y-123010076D01*
X272817343Y-123010081D01*
X272989918Y-123182656D01*
X272989923Y-123182660D01*
X273063205Y-123235902D01*
X273187361Y-123326106D01*
X273404815Y-123436904D01*
X273636924Y-123512321D01*
X273877973Y-123550500D01*
X273877974Y-123550500D01*
X274122026Y-123550500D01*
X274122027Y-123550500D01*
X274363076Y-123512321D01*
X274595185Y-123436904D01*
X274812639Y-123326106D01*
X275010083Y-123182655D01*
X275182655Y-123010083D01*
X275326106Y-122812639D01*
X275436904Y-122595185D01*
X275512321Y-122363076D01*
X275550500Y-122122027D01*
X275550500Y-121877973D01*
X278449500Y-121877973D01*
X278449500Y-122122026D01*
X278483565Y-122337105D01*
X278487679Y-122363076D01*
X278563096Y-122595185D01*
X278662670Y-122790611D01*
X278673896Y-122812642D01*
X278817339Y-123010076D01*
X278817343Y-123010081D01*
X278989918Y-123182656D01*
X278989923Y-123182660D01*
X279063205Y-123235902D01*
X279187361Y-123326106D01*
X279404815Y-123436904D01*
X279636924Y-123512321D01*
X279877973Y-123550500D01*
X279877974Y-123550500D01*
X280122026Y-123550500D01*
X280122027Y-123550500D01*
X280363076Y-123512321D01*
X280595185Y-123436904D01*
X280812639Y-123326106D01*
X281010083Y-123182655D01*
X281182655Y-123010083D01*
X281326106Y-122812639D01*
X281436904Y-122595185D01*
X281512321Y-122363076D01*
X281550500Y-122122027D01*
X281550500Y-121877973D01*
X317449500Y-121877973D01*
X317449500Y-122122026D01*
X317483565Y-122337105D01*
X317487679Y-122363076D01*
X317563096Y-122595185D01*
X317662670Y-122790611D01*
X317673896Y-122812642D01*
X317817339Y-123010076D01*
X317817343Y-123010081D01*
X317989918Y-123182656D01*
X317989923Y-123182660D01*
X318063205Y-123235902D01*
X318187361Y-123326106D01*
X318404815Y-123436904D01*
X318636924Y-123512321D01*
X318877973Y-123550500D01*
X318877974Y-123550500D01*
X319122026Y-123550500D01*
X319122027Y-123550500D01*
X319363076Y-123512321D01*
X319595185Y-123436904D01*
X319812639Y-123326106D01*
X320010083Y-123182655D01*
X320182655Y-123010083D01*
X320326106Y-122812639D01*
X320436904Y-122595185D01*
X320512321Y-122363076D01*
X320550500Y-122122027D01*
X320550500Y-121877973D01*
X320512321Y-121636924D01*
X320436904Y-121404815D01*
X320326106Y-121187361D01*
X320307779Y-121162136D01*
X320182660Y-120989923D01*
X320182656Y-120989918D01*
X320010081Y-120817343D01*
X320010076Y-120817339D01*
X319812642Y-120673896D01*
X319812641Y-120673895D01*
X319812639Y-120673894D01*
X319595185Y-120563096D01*
X319363076Y-120487679D01*
X319363074Y-120487678D01*
X319363072Y-120487678D01*
X319194769Y-120461021D01*
X319122027Y-120449500D01*
X318877973Y-120449500D01*
X318822093Y-120458350D01*
X318636927Y-120487678D01*
X318404812Y-120563097D01*
X318187357Y-120673896D01*
X317989923Y-120817339D01*
X317989918Y-120817343D01*
X317817343Y-120989918D01*
X317817339Y-120989923D01*
X317673896Y-121187357D01*
X317563097Y-121404812D01*
X317487678Y-121636927D01*
X317449500Y-121877973D01*
X281550500Y-121877973D01*
X281512321Y-121636924D01*
X281436904Y-121404815D01*
X281326106Y-121187361D01*
X281307779Y-121162136D01*
X281182660Y-120989923D01*
X281182656Y-120989918D01*
X281010081Y-120817343D01*
X281010076Y-120817339D01*
X280812642Y-120673896D01*
X280812641Y-120673895D01*
X280812639Y-120673894D01*
X280595185Y-120563096D01*
X280363076Y-120487679D01*
X280363074Y-120487678D01*
X280363072Y-120487678D01*
X280194769Y-120461021D01*
X280122027Y-120449500D01*
X279877973Y-120449500D01*
X279822093Y-120458350D01*
X279636927Y-120487678D01*
X279404812Y-120563097D01*
X279187357Y-120673896D01*
X278989923Y-120817339D01*
X278989918Y-120817343D01*
X278817343Y-120989918D01*
X278817339Y-120989923D01*
X278673896Y-121187357D01*
X278563097Y-121404812D01*
X278487678Y-121636927D01*
X278449500Y-121877973D01*
X275550500Y-121877973D01*
X275512321Y-121636924D01*
X275436904Y-121404815D01*
X275326106Y-121187361D01*
X275307779Y-121162136D01*
X275182660Y-120989923D01*
X275182656Y-120989918D01*
X275010081Y-120817343D01*
X275010076Y-120817339D01*
X274812642Y-120673896D01*
X274812641Y-120673895D01*
X274812639Y-120673894D01*
X274595185Y-120563096D01*
X274363076Y-120487679D01*
X274363074Y-120487678D01*
X274363072Y-120487678D01*
X274194769Y-120461021D01*
X274122027Y-120449500D01*
X273877973Y-120449500D01*
X273822093Y-120458350D01*
X273636927Y-120487678D01*
X273404812Y-120563097D01*
X273187357Y-120673896D01*
X272989923Y-120817339D01*
X272989918Y-120817343D01*
X272817343Y-120989918D01*
X272817339Y-120989923D01*
X272673896Y-121187357D01*
X272563097Y-121404812D01*
X272487678Y-121636927D01*
X272449500Y-121877973D01*
X256550500Y-121877973D01*
X256512321Y-121636924D01*
X256436904Y-121404815D01*
X256326106Y-121187361D01*
X256307779Y-121162136D01*
X256182660Y-120989923D01*
X256182656Y-120989918D01*
X256010081Y-120817343D01*
X256010076Y-120817339D01*
X255812642Y-120673896D01*
X255812641Y-120673895D01*
X255812639Y-120673894D01*
X255595185Y-120563096D01*
X255363076Y-120487679D01*
X255363074Y-120487678D01*
X255363072Y-120487678D01*
X255194769Y-120461021D01*
X255122027Y-120449500D01*
X254877973Y-120449500D01*
X254822093Y-120458350D01*
X254636927Y-120487678D01*
X254404812Y-120563097D01*
X254187357Y-120673896D01*
X253989923Y-120817339D01*
X253989918Y-120817343D01*
X253817343Y-120989918D01*
X253817339Y-120989923D01*
X253673896Y-121187357D01*
X253563097Y-121404812D01*
X253487678Y-121636927D01*
X253449500Y-121877973D01*
X236550500Y-121877973D01*
X236512321Y-121636924D01*
X236436904Y-121404815D01*
X236326106Y-121187361D01*
X236307779Y-121162136D01*
X236182660Y-120989923D01*
X236182656Y-120989918D01*
X236010081Y-120817343D01*
X236010076Y-120817339D01*
X235812642Y-120673896D01*
X235812641Y-120673895D01*
X235812639Y-120673894D01*
X235595185Y-120563096D01*
X235363076Y-120487679D01*
X235363074Y-120487678D01*
X235363072Y-120487678D01*
X235194769Y-120461021D01*
X235122027Y-120449500D01*
X234877973Y-120449500D01*
X234822093Y-120458350D01*
X234636927Y-120487678D01*
X234404812Y-120563097D01*
X234187357Y-120673896D01*
X233989923Y-120817339D01*
X233989918Y-120817343D01*
X233817343Y-120989918D01*
X233817339Y-120989923D01*
X233673896Y-121187357D01*
X233563097Y-121404812D01*
X233487678Y-121636927D01*
X233449500Y-121877973D01*
X232050500Y-121877973D01*
X232050500Y-116687648D01*
X269764500Y-116687648D01*
X269764500Y-116892351D01*
X269796522Y-117094534D01*
X269859781Y-117289223D01*
X269952715Y-117471613D01*
X270073028Y-117637213D01*
X270217786Y-117781971D01*
X270351974Y-117879462D01*
X270383390Y-117902287D01*
X270499607Y-117961503D01*
X270565776Y-117995218D01*
X270565778Y-117995218D01*
X270565781Y-117995220D01*
X270670137Y-118029127D01*
X270760465Y-118058477D01*
X270861557Y-118074488D01*
X270962648Y-118090500D01*
X270962649Y-118090500D01*
X271167351Y-118090500D01*
X271167352Y-118090500D01*
X271369534Y-118058477D01*
X271564219Y-117995220D01*
X271746610Y-117902287D01*
X271854958Y-117823568D01*
X271912213Y-117781971D01*
X271912215Y-117781968D01*
X271912219Y-117781966D01*
X272056966Y-117637219D01*
X272056968Y-117637215D01*
X272056971Y-117637213D01*
X272148107Y-117511773D01*
X272177287Y-117471610D01*
X272270220Y-117289219D01*
X272333477Y-117094534D01*
X272365500Y-116892352D01*
X272365500Y-116687648D01*
X272340169Y-116527719D01*
X272333477Y-116485465D01*
X272270218Y-116290776D01*
X272225474Y-116202962D01*
X272177287Y-116108390D01*
X272169556Y-116097749D01*
X272056971Y-115942786D01*
X271912213Y-115798028D01*
X271746613Y-115677715D01*
X271746612Y-115677714D01*
X271746610Y-115677713D01*
X271689653Y-115648691D01*
X271564223Y-115584781D01*
X271369534Y-115521522D01*
X271194995Y-115493878D01*
X271167352Y-115489500D01*
X270962648Y-115489500D01*
X270938329Y-115493351D01*
X270760465Y-115521522D01*
X270565776Y-115584781D01*
X270383386Y-115677715D01*
X270217786Y-115798028D01*
X270073028Y-115942786D01*
X269952715Y-116108386D01*
X269859781Y-116290776D01*
X269796522Y-116485465D01*
X269764500Y-116687648D01*
X232050500Y-116687648D01*
X232050500Y-111832155D01*
X269545000Y-111832155D01*
X269545000Y-112430000D01*
X270529314Y-112430000D01*
X270524920Y-112434394D01*
X270472259Y-112525606D01*
X270445000Y-112627339D01*
X270445000Y-112732661D01*
X270472259Y-112834394D01*
X270524920Y-112925606D01*
X270529314Y-112930000D01*
X269545000Y-112930000D01*
X269545000Y-113527844D01*
X269551401Y-113587372D01*
X269551403Y-113587379D01*
X269601645Y-113722086D01*
X269601649Y-113722093D01*
X269687809Y-113837187D01*
X269687812Y-113837190D01*
X269802906Y-113923350D01*
X269802913Y-113923354D01*
X269937620Y-113973596D01*
X269937627Y-113973598D01*
X269997155Y-113979999D01*
X269997172Y-113980000D01*
X270595000Y-113980000D01*
X270595000Y-112995686D01*
X270599394Y-113000080D01*
X270690606Y-113052741D01*
X270792339Y-113080000D01*
X270897661Y-113080000D01*
X270999394Y-113052741D01*
X271090606Y-113000080D01*
X271095000Y-112995686D01*
X271095000Y-113980000D01*
X271692828Y-113980000D01*
X271692844Y-113979999D01*
X271752372Y-113973598D01*
X271752379Y-113973596D01*
X271887086Y-113923354D01*
X271887093Y-113923350D01*
X272002187Y-113837190D01*
X272002190Y-113837187D01*
X272088350Y-113722093D01*
X272088355Y-113722084D01*
X272105591Y-113675870D01*
X272148464Y-113498325D01*
X272158833Y-113480321D01*
X272164685Y-113460392D01*
X272175916Y-113450660D01*
X272183335Y-113437779D01*
X272201791Y-113428239D01*
X272217489Y-113414637D01*
X272233624Y-113411785D01*
X272245403Y-113405697D01*
X272260177Y-113407091D01*
X272278729Y-113403813D01*
X272305525Y-113405921D01*
X272985000Y-112726446D01*
X272985000Y-112732661D01*
X273012259Y-112834394D01*
X273064920Y-112925606D01*
X273139394Y-113000080D01*
X273230606Y-113052741D01*
X273332339Y-113080000D01*
X273338553Y-113080000D01*
X272659076Y-113759474D01*
X272703650Y-113791859D01*
X272885968Y-113884755D01*
X273080582Y-113947990D01*
X273282683Y-113980000D01*
X273487317Y-113980000D01*
X273689417Y-113947990D01*
X273884031Y-113884755D01*
X274066349Y-113791859D01*
X274110921Y-113759474D01*
X273431447Y-113080000D01*
X273437661Y-113080000D01*
X273539394Y-113052741D01*
X273630606Y-113000080D01*
X273705080Y-112925606D01*
X273757741Y-112834394D01*
X273785000Y-112732661D01*
X273785000Y-112726447D01*
X274464474Y-113405921D01*
X274496859Y-113361349D01*
X274589755Y-113179031D01*
X274652990Y-112984417D01*
X274685000Y-112782317D01*
X274685000Y-112577682D01*
X274652990Y-112375582D01*
X274589755Y-112180968D01*
X274496859Y-111998650D01*
X274464474Y-111954077D01*
X274464474Y-111954076D01*
X273785000Y-112633551D01*
X273785000Y-112627339D01*
X273757741Y-112525606D01*
X273705080Y-112434394D01*
X273630606Y-112359920D01*
X273539394Y-112307259D01*
X273437661Y-112280000D01*
X273431446Y-112280000D01*
X274110922Y-111600524D01*
X274110921Y-111600523D01*
X274066359Y-111568147D01*
X274066350Y-111568141D01*
X273884031Y-111475244D01*
X273689417Y-111412009D01*
X273500731Y-111382124D01*
X273437596Y-111352194D01*
X273400665Y-111292883D01*
X273401663Y-111223020D01*
X273440273Y-111164788D01*
X273495938Y-111138034D01*
X273501021Y-111137023D01*
X273676835Y-111102051D01*
X273858914Y-111026632D01*
X274022782Y-110917139D01*
X274162139Y-110777782D01*
X274271632Y-110613914D01*
X274347051Y-110431835D01*
X274385500Y-110238541D01*
X274385500Y-110041459D01*
X274385500Y-110041456D01*
X274347052Y-109848170D01*
X274347051Y-109848169D01*
X274347051Y-109848165D01*
X274347049Y-109848160D01*
X274271635Y-109666092D01*
X274271628Y-109666079D01*
X274162139Y-109502218D01*
X274162136Y-109502214D01*
X274022785Y-109362863D01*
X274022781Y-109362860D01*
X273858920Y-109253371D01*
X273858907Y-109253364D01*
X273676839Y-109177950D01*
X273676829Y-109177947D01*
X273483543Y-109139500D01*
X273483541Y-109139500D01*
X273286459Y-109139500D01*
X273286457Y-109139500D01*
X273093170Y-109177947D01*
X273093160Y-109177950D01*
X272911092Y-109253364D01*
X272911079Y-109253371D01*
X272747218Y-109362860D01*
X272747214Y-109362863D01*
X272607863Y-109502214D01*
X272607860Y-109502218D01*
X272498371Y-109666079D01*
X272498364Y-109666092D01*
X272422950Y-109848160D01*
X272422947Y-109848170D01*
X272384500Y-110041456D01*
X272384500Y-110041459D01*
X272384500Y-110238541D01*
X272384500Y-110238543D01*
X272384499Y-110238543D01*
X272422947Y-110431829D01*
X272422950Y-110431839D01*
X272498364Y-110613907D01*
X272498371Y-110613920D01*
X272607860Y-110777781D01*
X272607863Y-110777785D01*
X272747214Y-110917136D01*
X272747218Y-110917139D01*
X272911079Y-111026628D01*
X272911092Y-111026635D01*
X273093160Y-111102049D01*
X273093165Y-111102051D01*
X273225674Y-111128409D01*
X273274061Y-111138034D01*
X273335972Y-111170419D01*
X273370546Y-111231134D01*
X273366807Y-111300904D01*
X273325940Y-111357576D01*
X273269269Y-111382124D01*
X273080581Y-111412010D01*
X272885968Y-111475244D01*
X272703644Y-111568143D01*
X272659077Y-111600523D01*
X272659077Y-111600524D01*
X273338554Y-112280000D01*
X273332339Y-112280000D01*
X273230606Y-112307259D01*
X273139394Y-112359920D01*
X273064920Y-112434394D01*
X273012259Y-112525606D01*
X272985000Y-112627339D01*
X272985000Y-112633553D01*
X272305524Y-111954077D01*
X272278729Y-111956186D01*
X272210352Y-111941822D01*
X272160595Y-111892771D01*
X272145746Y-111835448D01*
X272145459Y-111835463D01*
X272145356Y-111835475D01*
X272145355Y-111835469D01*
X272145177Y-111835479D01*
X272145026Y-111832671D01*
X272145000Y-111832568D01*
X272145000Y-111832172D01*
X272144999Y-111832155D01*
X272138598Y-111772627D01*
X272138596Y-111772620D01*
X272088354Y-111637913D01*
X272088350Y-111637906D01*
X272002190Y-111522812D01*
X272002187Y-111522809D01*
X271887093Y-111436649D01*
X271887086Y-111436645D01*
X271752379Y-111386403D01*
X271752372Y-111386401D01*
X271692844Y-111380000D01*
X270998487Y-111380000D01*
X270931448Y-111360315D01*
X270885693Y-111307511D01*
X270875749Y-111238353D01*
X270904774Y-111174797D01*
X270963552Y-111137023D01*
X270974295Y-111134383D01*
X271085552Y-111112251D01*
X271136835Y-111102051D01*
X271318914Y-111026632D01*
X271482782Y-110917139D01*
X271622139Y-110777782D01*
X271731632Y-110613914D01*
X271807051Y-110431835D01*
X271845500Y-110238541D01*
X271845500Y-110041459D01*
X271845500Y-110041456D01*
X271807052Y-109848170D01*
X271807051Y-109848169D01*
X271807051Y-109848165D01*
X271807049Y-109848160D01*
X271731635Y-109666092D01*
X271731628Y-109666079D01*
X271622139Y-109502218D01*
X271622136Y-109502214D01*
X271482785Y-109362863D01*
X271482781Y-109362860D01*
X271318920Y-109253371D01*
X271318907Y-109253364D01*
X271136839Y-109177950D01*
X271136829Y-109177947D01*
X270943543Y-109139500D01*
X270943541Y-109139500D01*
X270746459Y-109139500D01*
X270746457Y-109139500D01*
X270553170Y-109177947D01*
X270553160Y-109177950D01*
X270371092Y-109253364D01*
X270371079Y-109253371D01*
X270207218Y-109362860D01*
X270207214Y-109362863D01*
X270067863Y-109502214D01*
X270067860Y-109502218D01*
X269958371Y-109666079D01*
X269958364Y-109666092D01*
X269882950Y-109848160D01*
X269882947Y-109848170D01*
X269844500Y-110041456D01*
X269844500Y-110041459D01*
X269844500Y-110238541D01*
X269844500Y-110238543D01*
X269844499Y-110238543D01*
X269882947Y-110431829D01*
X269882950Y-110431839D01*
X269958364Y-110613907D01*
X269958371Y-110613920D01*
X270067860Y-110777781D01*
X270067863Y-110777785D01*
X270207214Y-110917136D01*
X270207218Y-110917139D01*
X270371079Y-111026628D01*
X270371092Y-111026635D01*
X270553160Y-111102049D01*
X270553165Y-111102051D01*
X270553169Y-111102051D01*
X270553170Y-111102052D01*
X270715705Y-111134383D01*
X270777615Y-111166768D01*
X270812190Y-111227484D01*
X270808450Y-111297253D01*
X270767583Y-111353925D01*
X270702565Y-111379506D01*
X270691513Y-111380000D01*
X269997155Y-111380000D01*
X269937627Y-111386401D01*
X269937620Y-111386403D01*
X269802913Y-111436645D01*
X269802906Y-111436649D01*
X269687812Y-111522809D01*
X269687809Y-111522812D01*
X269601649Y-111637906D01*
X269601645Y-111637913D01*
X269551403Y-111772620D01*
X269551401Y-111772627D01*
X269545000Y-111832155D01*
X232050500Y-111832155D01*
X232050500Y-101877973D01*
X233449500Y-101877973D01*
X233449500Y-101886274D01*
X233449500Y-102122027D01*
X233487679Y-102363076D01*
X233563096Y-102595185D01*
X233673486Y-102811839D01*
X233673896Y-102812642D01*
X233817339Y-103010076D01*
X233817343Y-103010081D01*
X233989918Y-103182656D01*
X233989923Y-103182660D01*
X234063205Y-103235902D01*
X234187361Y-103326106D01*
X234404815Y-103436904D01*
X234636924Y-103512321D01*
X234877973Y-103550500D01*
X234877974Y-103550500D01*
X235122026Y-103550500D01*
X235122027Y-103550500D01*
X235363076Y-103512321D01*
X235595185Y-103436904D01*
X235812639Y-103326106D01*
X236010083Y-103182655D01*
X236182655Y-103010083D01*
X236326106Y-102812639D01*
X236436904Y-102595185D01*
X236512321Y-102363076D01*
X236550500Y-102122027D01*
X236550500Y-101877973D01*
X236512321Y-101636924D01*
X236436904Y-101404815D01*
X236326106Y-101187361D01*
X236307779Y-101162136D01*
X236182660Y-100989923D01*
X236182656Y-100989918D01*
X236010081Y-100817343D01*
X236010076Y-100817339D01*
X235812642Y-100673896D01*
X235812641Y-100673895D01*
X235812639Y-100673894D01*
X235595185Y-100563096D01*
X235363076Y-100487679D01*
X235363074Y-100487678D01*
X235363072Y-100487678D01*
X235149851Y-100453907D01*
X235122027Y-100449500D01*
X234877973Y-100449500D01*
X234850149Y-100453907D01*
X234636927Y-100487678D01*
X234404812Y-100563097D01*
X234187357Y-100673896D01*
X233989923Y-100817339D01*
X233989918Y-100817343D01*
X233817343Y-100989918D01*
X233817339Y-100989923D01*
X233673896Y-101187357D01*
X233563097Y-101404812D01*
X233487678Y-101636927D01*
X233449500Y-101877973D01*
X232050500Y-101877973D01*
X232050500Y-89697682D01*
X245580000Y-89697682D01*
X245580000Y-89750000D01*
X246446988Y-89750000D01*
X246414075Y-89807007D01*
X246380000Y-89934174D01*
X246380000Y-90065826D01*
X246414075Y-90192993D01*
X246446988Y-90250000D01*
X245580000Y-90250000D01*
X245580000Y-90302317D01*
X245612009Y-90504417D01*
X245675244Y-90699031D01*
X245768140Y-90881349D01*
X245888417Y-91046894D01*
X245888417Y-91046895D01*
X246033104Y-91191582D01*
X246198650Y-91311859D01*
X246380968Y-91404754D01*
X246575578Y-91467988D01*
X246630000Y-91476607D01*
X246630000Y-90433012D01*
X246687007Y-90465925D01*
X246814174Y-90500000D01*
X246945826Y-90500000D01*
X247072993Y-90465925D01*
X247130000Y-90433012D01*
X247130000Y-91476606D01*
X247184421Y-91467988D01*
X247379031Y-91404754D01*
X247561349Y-91311859D01*
X247726894Y-91191582D01*
X247726895Y-91191582D01*
X247871582Y-91046895D01*
X247871582Y-91046894D01*
X247991859Y-90881349D01*
X248084755Y-90699031D01*
X248147990Y-90504417D01*
X248177875Y-90315731D01*
X248207804Y-90252596D01*
X248267116Y-90215665D01*
X248336978Y-90216663D01*
X248395211Y-90255273D01*
X248421965Y-90310937D01*
X248457947Y-90491829D01*
X248457950Y-90491839D01*
X248533364Y-90673907D01*
X248533371Y-90673920D01*
X248642860Y-90837781D01*
X248642863Y-90837785D01*
X248782214Y-90977136D01*
X248782218Y-90977139D01*
X248946079Y-91086628D01*
X248946092Y-91086635D01*
X249128160Y-91162049D01*
X249128165Y-91162051D01*
X249128169Y-91162051D01*
X249128170Y-91162052D01*
X249321456Y-91200500D01*
X249321459Y-91200500D01*
X249518543Y-91200500D01*
X249648582Y-91174632D01*
X249711835Y-91162051D01*
X249893914Y-91086632D01*
X250057782Y-90977139D01*
X250197139Y-90837782D01*
X250306632Y-90673914D01*
X250382051Y-90491835D01*
X250400299Y-90400099D01*
X250420500Y-90298543D01*
X250959499Y-90298543D01*
X250997947Y-90491829D01*
X250997950Y-90491839D01*
X251073364Y-90673907D01*
X251073371Y-90673920D01*
X251182860Y-90837781D01*
X251182863Y-90837785D01*
X251322214Y-90977136D01*
X251322218Y-90977139D01*
X251486079Y-91086628D01*
X251486092Y-91086635D01*
X251668160Y-91162049D01*
X251668165Y-91162051D01*
X251668169Y-91162051D01*
X251668170Y-91162052D01*
X251861456Y-91200500D01*
X251861459Y-91200500D01*
X252058543Y-91200500D01*
X252188582Y-91174632D01*
X252251835Y-91162051D01*
X252433914Y-91086632D01*
X252597782Y-90977139D01*
X252737139Y-90837782D01*
X252846632Y-90673914D01*
X252922051Y-90491835D01*
X252940299Y-90400099D01*
X252960500Y-90298543D01*
X253499499Y-90298543D01*
X253537947Y-90491829D01*
X253537950Y-90491839D01*
X253613364Y-90673907D01*
X253613371Y-90673920D01*
X253722860Y-90837781D01*
X253722863Y-90837785D01*
X253862214Y-90977136D01*
X253862218Y-90977139D01*
X254026079Y-91086628D01*
X254026092Y-91086635D01*
X254208160Y-91162049D01*
X254208165Y-91162051D01*
X254208169Y-91162051D01*
X254208170Y-91162052D01*
X254401456Y-91200500D01*
X254401459Y-91200500D01*
X254598543Y-91200500D01*
X254728582Y-91174632D01*
X254791835Y-91162051D01*
X254973914Y-91086632D01*
X255137782Y-90977139D01*
X255277139Y-90837782D01*
X255386632Y-90673914D01*
X255462051Y-90491835D01*
X255480299Y-90400099D01*
X255500500Y-90298543D01*
X255500500Y-89701456D01*
X255462052Y-89508170D01*
X255462051Y-89508169D01*
X255462051Y-89508165D01*
X255454320Y-89489500D01*
X255386635Y-89326092D01*
X255386628Y-89326079D01*
X255277139Y-89162218D01*
X255277136Y-89162214D01*
X255137785Y-89022863D01*
X255137781Y-89022860D01*
X254973920Y-88913371D01*
X254973907Y-88913364D01*
X254791839Y-88837950D01*
X254791829Y-88837947D01*
X254598543Y-88799500D01*
X254598541Y-88799500D01*
X254401459Y-88799500D01*
X254401457Y-88799500D01*
X254208170Y-88837947D01*
X254208160Y-88837950D01*
X254026092Y-88913364D01*
X254026079Y-88913371D01*
X253862218Y-89022860D01*
X253862214Y-89022863D01*
X253722863Y-89162214D01*
X253722860Y-89162218D01*
X253613371Y-89326079D01*
X253613364Y-89326092D01*
X253537950Y-89508160D01*
X253537947Y-89508170D01*
X253499500Y-89701456D01*
X253499500Y-89701459D01*
X253499500Y-90298541D01*
X253499500Y-90298543D01*
X253499499Y-90298543D01*
X252960500Y-90298543D01*
X252960500Y-89701456D01*
X252922052Y-89508170D01*
X252922051Y-89508169D01*
X252922051Y-89508165D01*
X252914320Y-89489500D01*
X252846635Y-89326092D01*
X252846628Y-89326079D01*
X252737139Y-89162218D01*
X252737136Y-89162214D01*
X252597785Y-89022863D01*
X252597781Y-89022860D01*
X252433920Y-88913371D01*
X252433907Y-88913364D01*
X252251839Y-88837950D01*
X252251829Y-88837947D01*
X252058543Y-88799500D01*
X252058541Y-88799500D01*
X251861459Y-88799500D01*
X251861457Y-88799500D01*
X251668170Y-88837947D01*
X251668160Y-88837950D01*
X251486092Y-88913364D01*
X251486079Y-88913371D01*
X251322218Y-89022860D01*
X251322214Y-89022863D01*
X251182863Y-89162214D01*
X251182860Y-89162218D01*
X251073371Y-89326079D01*
X251073364Y-89326092D01*
X250997950Y-89508160D01*
X250997947Y-89508170D01*
X250959500Y-89701456D01*
X250959500Y-89701459D01*
X250959500Y-90298541D01*
X250959500Y-90298543D01*
X250959499Y-90298543D01*
X250420500Y-90298543D01*
X250420500Y-89701456D01*
X250382052Y-89508170D01*
X250382051Y-89508169D01*
X250382051Y-89508165D01*
X250374320Y-89489500D01*
X250306635Y-89326092D01*
X250306628Y-89326079D01*
X250197139Y-89162218D01*
X250197136Y-89162214D01*
X250057785Y-89022863D01*
X250057781Y-89022860D01*
X249893920Y-88913371D01*
X249893907Y-88913364D01*
X249711839Y-88837950D01*
X249711829Y-88837947D01*
X249518543Y-88799500D01*
X249518541Y-88799500D01*
X249321459Y-88799500D01*
X249321457Y-88799500D01*
X249128170Y-88837947D01*
X249128160Y-88837950D01*
X248946092Y-88913364D01*
X248946079Y-88913371D01*
X248782218Y-89022860D01*
X248782214Y-89022863D01*
X248642863Y-89162214D01*
X248642860Y-89162218D01*
X248533371Y-89326079D01*
X248533364Y-89326092D01*
X248457950Y-89508160D01*
X248457947Y-89508170D01*
X248421965Y-89689062D01*
X248389580Y-89750973D01*
X248328864Y-89785547D01*
X248259094Y-89781806D01*
X248202423Y-89740940D01*
X248177875Y-89684268D01*
X248147990Y-89495582D01*
X248084755Y-89300968D01*
X247991859Y-89118650D01*
X247871582Y-88953105D01*
X247871582Y-88953104D01*
X247726895Y-88808417D01*
X247561349Y-88688140D01*
X247379029Y-88595244D01*
X247184413Y-88532009D01*
X247130000Y-88523390D01*
X247130000Y-89566988D01*
X247072993Y-89534075D01*
X246945826Y-89500000D01*
X246814174Y-89500000D01*
X246687007Y-89534075D01*
X246630000Y-89566988D01*
X246630000Y-88523390D01*
X246575586Y-88532009D01*
X246380970Y-88595244D01*
X246198650Y-88688140D01*
X246033105Y-88808417D01*
X246033104Y-88808417D01*
X245888417Y-88953104D01*
X245888417Y-88953105D01*
X245768140Y-89118650D01*
X245675244Y-89300968D01*
X245612009Y-89495582D01*
X245580000Y-89697682D01*
X232050500Y-89697682D01*
X232050500Y-82875466D01*
X239600000Y-82875466D01*
X239600000Y-83124533D01*
X239632508Y-83371463D01*
X239696973Y-83612049D01*
X239792283Y-83842148D01*
X239792288Y-83842159D01*
X239916813Y-84057841D01*
X239916819Y-84057849D01*
X239991400Y-84155045D01*
X240898958Y-83247487D01*
X240923978Y-83307890D01*
X240995112Y-83414351D01*
X241085649Y-83504888D01*
X241192110Y-83576022D01*
X241252511Y-83601041D01*
X240344953Y-84508598D01*
X240442150Y-84583180D01*
X240442158Y-84583186D01*
X240657840Y-84707711D01*
X240657851Y-84707716D01*
X240887950Y-84803026D01*
X241128536Y-84867491D01*
X241375466Y-84900000D01*
X241624534Y-84900000D01*
X241871463Y-84867491D01*
X242112049Y-84803026D01*
X242342148Y-84707716D01*
X242342159Y-84707711D01*
X242557855Y-84583178D01*
X242655045Y-84508600D01*
X242655045Y-84508597D01*
X242630993Y-84484545D01*
X242546461Y-84400013D01*
X249200000Y-84400013D01*
X249200000Y-84750000D01*
X250184314Y-84750000D01*
X250179920Y-84754394D01*
X250127259Y-84845606D01*
X250100000Y-84947339D01*
X250100000Y-85052661D01*
X250127259Y-85154394D01*
X250179920Y-85245606D01*
X250184314Y-85250000D01*
X249200001Y-85250000D01*
X249200001Y-85599986D01*
X249210494Y-85702697D01*
X249265641Y-85869119D01*
X249265643Y-85869124D01*
X249357684Y-86018345D01*
X249481654Y-86142315D01*
X249630875Y-86234356D01*
X249630880Y-86234358D01*
X249797302Y-86289505D01*
X249797309Y-86289506D01*
X249900019Y-86299999D01*
X250249999Y-86299999D01*
X250250000Y-86299998D01*
X250250000Y-85315686D01*
X250254394Y-85320080D01*
X250345606Y-85372741D01*
X250447339Y-85400000D01*
X250552661Y-85400000D01*
X250654394Y-85372741D01*
X250745606Y-85320080D01*
X250750000Y-85315686D01*
X250750000Y-86299999D01*
X251099972Y-86299999D01*
X251099986Y-86299998D01*
X251202697Y-86289505D01*
X251369119Y-86234358D01*
X251369124Y-86234356D01*
X251518345Y-86142315D01*
X251642315Y-86018345D01*
X251678033Y-85960438D01*
X256199500Y-85960438D01*
X256199500Y-93294562D01*
X256213152Y-93345513D01*
X256219979Y-93370990D01*
X256219982Y-93370995D01*
X256259535Y-93439504D01*
X256259541Y-93439512D01*
X269896192Y-107076163D01*
X269929677Y-107137486D01*
X269924693Y-107207178D01*
X269923073Y-107211295D01*
X269882948Y-107308168D01*
X269882947Y-107308171D01*
X269844500Y-107501456D01*
X269844500Y-107501459D01*
X269844500Y-107698541D01*
X269844500Y-107698543D01*
X269844499Y-107698543D01*
X269882947Y-107891829D01*
X269882950Y-107891839D01*
X269958364Y-108073907D01*
X269958371Y-108073920D01*
X270067860Y-108237781D01*
X270067863Y-108237785D01*
X270207214Y-108377136D01*
X270207218Y-108377139D01*
X270371079Y-108486628D01*
X270371092Y-108486635D01*
X270553160Y-108562049D01*
X270553165Y-108562051D01*
X270553169Y-108562051D01*
X270553170Y-108562052D01*
X270746456Y-108600500D01*
X270746459Y-108600500D01*
X270943543Y-108600500D01*
X271073582Y-108574632D01*
X271136835Y-108562051D01*
X271318914Y-108486632D01*
X271482782Y-108377139D01*
X271622139Y-108237782D01*
X271731632Y-108073914D01*
X271807051Y-107891835D01*
X271845500Y-107698543D01*
X272384499Y-107698543D01*
X272422947Y-107891829D01*
X272422950Y-107891839D01*
X272498364Y-108073907D01*
X272498371Y-108073920D01*
X272607860Y-108237781D01*
X272607863Y-108237785D01*
X272747214Y-108377136D01*
X272747218Y-108377139D01*
X272911079Y-108486628D01*
X272911092Y-108486635D01*
X273093160Y-108562049D01*
X273093165Y-108562051D01*
X273093169Y-108562051D01*
X273093170Y-108562052D01*
X273286456Y-108600500D01*
X273286459Y-108600500D01*
X273483543Y-108600500D01*
X273613582Y-108574632D01*
X273676835Y-108562051D01*
X273858914Y-108486632D01*
X274022782Y-108377139D01*
X274162139Y-108237782D01*
X274271632Y-108073914D01*
X274347051Y-107891835D01*
X274385500Y-107698541D01*
X274385500Y-107501459D01*
X274385500Y-107501456D01*
X274347052Y-107308170D01*
X274347051Y-107308169D01*
X274347051Y-107308165D01*
X274347049Y-107308160D01*
X274271635Y-107126092D01*
X274271628Y-107126079D01*
X274162139Y-106962218D01*
X274162136Y-106962214D01*
X274022785Y-106822863D01*
X274022781Y-106822860D01*
X273858920Y-106713371D01*
X273858907Y-106713364D01*
X273676839Y-106637950D01*
X273676829Y-106637947D01*
X273483543Y-106599500D01*
X273483541Y-106599500D01*
X273286459Y-106599500D01*
X273286457Y-106599500D01*
X273093170Y-106637947D01*
X273093160Y-106637950D01*
X272911092Y-106713364D01*
X272911079Y-106713371D01*
X272747218Y-106822860D01*
X272747214Y-106822863D01*
X272607863Y-106962214D01*
X272607860Y-106962218D01*
X272498371Y-107126079D01*
X272498364Y-107126092D01*
X272422950Y-107308160D01*
X272422947Y-107308170D01*
X272384500Y-107501456D01*
X272384500Y-107501459D01*
X272384500Y-107698541D01*
X272384500Y-107698543D01*
X272384499Y-107698543D01*
X271845500Y-107698543D01*
X271845500Y-107698541D01*
X271845500Y-107501459D01*
X271845500Y-107501456D01*
X271807052Y-107308170D01*
X271807051Y-107308169D01*
X271807051Y-107308165D01*
X271807049Y-107308160D01*
X271731635Y-107126092D01*
X271731628Y-107126079D01*
X271622139Y-106962218D01*
X271622136Y-106962214D01*
X271482785Y-106822863D01*
X271482781Y-106822860D01*
X271318920Y-106713371D01*
X271318907Y-106713364D01*
X271136839Y-106637950D01*
X271136829Y-106637947D01*
X270943543Y-106599500D01*
X270943541Y-106599500D01*
X270746459Y-106599500D01*
X270746457Y-106599500D01*
X270553171Y-106637947D01*
X270553168Y-106637948D01*
X270553166Y-106637948D01*
X270553165Y-106637949D01*
X270553163Y-106637950D01*
X270456295Y-106678073D01*
X270386826Y-106685540D01*
X270324347Y-106654265D01*
X270321163Y-106651192D01*
X268828514Y-105158543D01*
X269844499Y-105158543D01*
X269882947Y-105351829D01*
X269882950Y-105351839D01*
X269958364Y-105533907D01*
X269958371Y-105533920D01*
X270067860Y-105697781D01*
X270067863Y-105697785D01*
X270207214Y-105837136D01*
X270207218Y-105837139D01*
X270371079Y-105946628D01*
X270371092Y-105946635D01*
X270553160Y-106022049D01*
X270553165Y-106022051D01*
X270553169Y-106022051D01*
X270553170Y-106022052D01*
X270746456Y-106060500D01*
X270746459Y-106060500D01*
X270943543Y-106060500D01*
X271073582Y-106034632D01*
X271136835Y-106022051D01*
X271318914Y-105946632D01*
X271482782Y-105837139D01*
X271622139Y-105697782D01*
X271731632Y-105533914D01*
X271807051Y-105351835D01*
X271845500Y-105158543D01*
X272384499Y-105158543D01*
X272422947Y-105351829D01*
X272422950Y-105351839D01*
X272498364Y-105533907D01*
X272498371Y-105533920D01*
X272607860Y-105697781D01*
X272607863Y-105697785D01*
X272747214Y-105837136D01*
X272747218Y-105837139D01*
X272911079Y-105946628D01*
X272911092Y-105946635D01*
X273093160Y-106022049D01*
X273093165Y-106022051D01*
X273093169Y-106022051D01*
X273093170Y-106022052D01*
X273286456Y-106060500D01*
X273286459Y-106060500D01*
X273483543Y-106060500D01*
X273613582Y-106034632D01*
X273676835Y-106022051D01*
X273858914Y-105946632D01*
X274022782Y-105837139D01*
X274162139Y-105697782D01*
X274271632Y-105533914D01*
X274347051Y-105351835D01*
X274385500Y-105158541D01*
X274385500Y-104961459D01*
X274385500Y-104961456D01*
X274347052Y-104768170D01*
X274347051Y-104768169D01*
X274347051Y-104768165D01*
X274347049Y-104768160D01*
X274271635Y-104586092D01*
X274271628Y-104586079D01*
X274162139Y-104422218D01*
X274162136Y-104422214D01*
X274022785Y-104282863D01*
X274022781Y-104282860D01*
X273858920Y-104173371D01*
X273858907Y-104173364D01*
X273676839Y-104097950D01*
X273676829Y-104097947D01*
X273483543Y-104059500D01*
X273483541Y-104059500D01*
X273286459Y-104059500D01*
X273286457Y-104059500D01*
X273093170Y-104097947D01*
X273093160Y-104097950D01*
X272911092Y-104173364D01*
X272911079Y-104173371D01*
X272747218Y-104282860D01*
X272747214Y-104282863D01*
X272607863Y-104422214D01*
X272607860Y-104422218D01*
X272498371Y-104586079D01*
X272498364Y-104586092D01*
X272422950Y-104768160D01*
X272422947Y-104768170D01*
X272384500Y-104961456D01*
X272384500Y-104961459D01*
X272384500Y-105158541D01*
X272384500Y-105158543D01*
X272384499Y-105158543D01*
X271845500Y-105158543D01*
X271845500Y-105158541D01*
X271845500Y-104961459D01*
X271845500Y-104961456D01*
X271807052Y-104768170D01*
X271807051Y-104768169D01*
X271807051Y-104768165D01*
X271807049Y-104768160D01*
X271731635Y-104586092D01*
X271731628Y-104586079D01*
X271622139Y-104422218D01*
X271622136Y-104422214D01*
X271482785Y-104282863D01*
X271482781Y-104282860D01*
X271318920Y-104173371D01*
X271318907Y-104173364D01*
X271136839Y-104097950D01*
X271136829Y-104097947D01*
X270943543Y-104059500D01*
X270943541Y-104059500D01*
X270746459Y-104059500D01*
X270746457Y-104059500D01*
X270553170Y-104097947D01*
X270553160Y-104097950D01*
X270371092Y-104173364D01*
X270371079Y-104173371D01*
X270207218Y-104282860D01*
X270207214Y-104282863D01*
X270067863Y-104422214D01*
X270067860Y-104422218D01*
X269958371Y-104586079D01*
X269958364Y-104586092D01*
X269882950Y-104768160D01*
X269882947Y-104768170D01*
X269844500Y-104961456D01*
X269844500Y-104961459D01*
X269844500Y-105158541D01*
X269844500Y-105158543D01*
X269844499Y-105158543D01*
X268828514Y-105158543D01*
X266288514Y-102618543D01*
X269844499Y-102618543D01*
X269882947Y-102811829D01*
X269882950Y-102811839D01*
X269958364Y-102993907D01*
X269958371Y-102993920D01*
X270067860Y-103157781D01*
X270067863Y-103157785D01*
X270207214Y-103297136D01*
X270207218Y-103297139D01*
X270371079Y-103406628D01*
X270371092Y-103406635D01*
X270553160Y-103482049D01*
X270553165Y-103482051D01*
X270553169Y-103482051D01*
X270553170Y-103482052D01*
X270746456Y-103520500D01*
X270746459Y-103520500D01*
X270943543Y-103520500D01*
X271073582Y-103494632D01*
X271136835Y-103482051D01*
X271318914Y-103406632D01*
X271482782Y-103297139D01*
X271622139Y-103157782D01*
X271731632Y-102993914D01*
X271807051Y-102811835D01*
X271845500Y-102618543D01*
X272384499Y-102618543D01*
X272422947Y-102811829D01*
X272422950Y-102811839D01*
X272498364Y-102993907D01*
X272498371Y-102993920D01*
X272607860Y-103157781D01*
X272607863Y-103157785D01*
X272747214Y-103297136D01*
X272747218Y-103297139D01*
X272911079Y-103406628D01*
X272911092Y-103406635D01*
X273093160Y-103482049D01*
X273093165Y-103482051D01*
X273093169Y-103482051D01*
X273093170Y-103482052D01*
X273286456Y-103520500D01*
X273286459Y-103520500D01*
X273483543Y-103520500D01*
X273613582Y-103494632D01*
X273676835Y-103482051D01*
X273858914Y-103406632D01*
X274022782Y-103297139D01*
X274162139Y-103157782D01*
X274271632Y-102993914D01*
X274347051Y-102811835D01*
X274385500Y-102618541D01*
X274385500Y-102421459D01*
X274385500Y-102421456D01*
X274347052Y-102228170D01*
X274347051Y-102228169D01*
X274347051Y-102228165D01*
X274303087Y-102122026D01*
X274271635Y-102046092D01*
X274271628Y-102046079D01*
X274202079Y-101941992D01*
X274162139Y-101882218D01*
X274162136Y-101882214D01*
X274157895Y-101877973D01*
X317449500Y-101877973D01*
X317449500Y-101886274D01*
X317449500Y-102122027D01*
X317487679Y-102363076D01*
X317563096Y-102595185D01*
X317673486Y-102811839D01*
X317673896Y-102812642D01*
X317817339Y-103010076D01*
X317817343Y-103010081D01*
X317989918Y-103182656D01*
X317989923Y-103182660D01*
X318063205Y-103235902D01*
X318187361Y-103326106D01*
X318404815Y-103436904D01*
X318636924Y-103512321D01*
X318877973Y-103550500D01*
X318877974Y-103550500D01*
X319122026Y-103550500D01*
X319122027Y-103550500D01*
X319363076Y-103512321D01*
X319595185Y-103436904D01*
X319812639Y-103326106D01*
X320010083Y-103182655D01*
X320182655Y-103010083D01*
X320326106Y-102812639D01*
X320436904Y-102595185D01*
X320512321Y-102363076D01*
X320550500Y-102122027D01*
X320550500Y-101877973D01*
X320512321Y-101636924D01*
X320436904Y-101404815D01*
X320326106Y-101187361D01*
X320307779Y-101162136D01*
X320182660Y-100989923D01*
X320182656Y-100989918D01*
X320010081Y-100817343D01*
X320010076Y-100817339D01*
X319812642Y-100673896D01*
X319812641Y-100673895D01*
X319812639Y-100673894D01*
X319595185Y-100563096D01*
X319363076Y-100487679D01*
X319363074Y-100487678D01*
X319363072Y-100487678D01*
X319149851Y-100453907D01*
X319122027Y-100449500D01*
X318877973Y-100449500D01*
X318850149Y-100453907D01*
X318636927Y-100487678D01*
X318404812Y-100563097D01*
X318187357Y-100673896D01*
X317989923Y-100817339D01*
X317989918Y-100817343D01*
X317817343Y-100989918D01*
X317817339Y-100989923D01*
X317673896Y-101187357D01*
X317563097Y-101404812D01*
X317487678Y-101636927D01*
X317449500Y-101877973D01*
X274157895Y-101877973D01*
X274022785Y-101742863D01*
X274022781Y-101742860D01*
X273858920Y-101633371D01*
X273858907Y-101633364D01*
X273676839Y-101557950D01*
X273676829Y-101557947D01*
X273483543Y-101519500D01*
X273483541Y-101519500D01*
X273286459Y-101519500D01*
X273286457Y-101519500D01*
X273093170Y-101557947D01*
X273093160Y-101557950D01*
X272911092Y-101633364D01*
X272911079Y-101633371D01*
X272747218Y-101742860D01*
X272747214Y-101742863D01*
X272607863Y-101882214D01*
X272607860Y-101882218D01*
X272498371Y-102046079D01*
X272498364Y-102046092D01*
X272422950Y-102228160D01*
X272422947Y-102228170D01*
X272384500Y-102421456D01*
X272384500Y-102421459D01*
X272384500Y-102618541D01*
X272384500Y-102618543D01*
X272384499Y-102618543D01*
X271845500Y-102618543D01*
X271845500Y-102618541D01*
X271845500Y-102421459D01*
X271845500Y-102421456D01*
X271807052Y-102228170D01*
X271807051Y-102228169D01*
X271807051Y-102228165D01*
X271763087Y-102122026D01*
X271731635Y-102046092D01*
X271731628Y-102046079D01*
X271622139Y-101882218D01*
X271622136Y-101882214D01*
X271482785Y-101742863D01*
X271482781Y-101742860D01*
X271318920Y-101633371D01*
X271318907Y-101633364D01*
X271136839Y-101557950D01*
X271136829Y-101557947D01*
X270943543Y-101519500D01*
X270943541Y-101519500D01*
X270746459Y-101519500D01*
X270746457Y-101519500D01*
X270553170Y-101557947D01*
X270553160Y-101557950D01*
X270371092Y-101633364D01*
X270371079Y-101633371D01*
X270207218Y-101742860D01*
X270207214Y-101742863D01*
X270067863Y-101882214D01*
X270067860Y-101882218D01*
X269958371Y-102046079D01*
X269958364Y-102046092D01*
X269882950Y-102228160D01*
X269882947Y-102228170D01*
X269844500Y-102421456D01*
X269844500Y-102421459D01*
X269844500Y-102618541D01*
X269844500Y-102618543D01*
X269844499Y-102618543D01*
X266288514Y-102618543D01*
X263748514Y-100078543D01*
X269844499Y-100078543D01*
X269882947Y-100271829D01*
X269882950Y-100271839D01*
X269958364Y-100453907D01*
X269958371Y-100453920D01*
X270067860Y-100617781D01*
X270067863Y-100617785D01*
X270207214Y-100757136D01*
X270207218Y-100757139D01*
X270371079Y-100866628D01*
X270371092Y-100866635D01*
X270446313Y-100897792D01*
X270553165Y-100942051D01*
X270553169Y-100942051D01*
X270553170Y-100942052D01*
X270746456Y-100980500D01*
X270746459Y-100980500D01*
X270943543Y-100980500D01*
X271073582Y-100954632D01*
X271136835Y-100942051D01*
X271318914Y-100866632D01*
X271482782Y-100757139D01*
X271622139Y-100617782D01*
X271731632Y-100453914D01*
X271807051Y-100271835D01*
X271845500Y-100078543D01*
X272384499Y-100078543D01*
X272422947Y-100271829D01*
X272422950Y-100271839D01*
X272498364Y-100453907D01*
X272498371Y-100453920D01*
X272607860Y-100617781D01*
X272607863Y-100617785D01*
X272747214Y-100757136D01*
X272747218Y-100757139D01*
X272911079Y-100866628D01*
X272911092Y-100866635D01*
X272986313Y-100897792D01*
X273093165Y-100942051D01*
X273093169Y-100942051D01*
X273093170Y-100942052D01*
X273286456Y-100980500D01*
X273286459Y-100980500D01*
X273483543Y-100980500D01*
X273613582Y-100954632D01*
X273676835Y-100942051D01*
X273858914Y-100866632D01*
X274022782Y-100757139D01*
X274162139Y-100617782D01*
X274271632Y-100453914D01*
X274347051Y-100271835D01*
X274385500Y-100078541D01*
X274385500Y-99881459D01*
X274385500Y-99881456D01*
X274347052Y-99688170D01*
X274347051Y-99688169D01*
X274347051Y-99688165D01*
X274347049Y-99688160D01*
X274271635Y-99506092D01*
X274271628Y-99506079D01*
X274162139Y-99342218D01*
X274162136Y-99342214D01*
X274022785Y-99202863D01*
X274022781Y-99202860D01*
X273858920Y-99093371D01*
X273858907Y-99093364D01*
X273676839Y-99017950D01*
X273676829Y-99017947D01*
X273483543Y-98979500D01*
X273483541Y-98979500D01*
X273286459Y-98979500D01*
X273286457Y-98979500D01*
X273093170Y-99017947D01*
X273093160Y-99017950D01*
X272911092Y-99093364D01*
X272911079Y-99093371D01*
X272747218Y-99202860D01*
X272747214Y-99202863D01*
X272607863Y-99342214D01*
X272607860Y-99342218D01*
X272498371Y-99506079D01*
X272498364Y-99506092D01*
X272422950Y-99688160D01*
X272422947Y-99688170D01*
X272384500Y-99881456D01*
X272384500Y-99881459D01*
X272384500Y-100078541D01*
X272384500Y-100078543D01*
X272384499Y-100078543D01*
X271845500Y-100078543D01*
X271845500Y-100078541D01*
X271845500Y-99881459D01*
X271845500Y-99881456D01*
X271807052Y-99688170D01*
X271807051Y-99688169D01*
X271807051Y-99688165D01*
X271807049Y-99688160D01*
X271731635Y-99506092D01*
X271731628Y-99506079D01*
X271622139Y-99342218D01*
X271622136Y-99342214D01*
X271482785Y-99202863D01*
X271482781Y-99202860D01*
X271318920Y-99093371D01*
X271318907Y-99093364D01*
X271136839Y-99017950D01*
X271136829Y-99017947D01*
X270943543Y-98979500D01*
X270943541Y-98979500D01*
X270746459Y-98979500D01*
X270746457Y-98979500D01*
X270553170Y-99017947D01*
X270553160Y-99017950D01*
X270371092Y-99093364D01*
X270371079Y-99093371D01*
X270207218Y-99202860D01*
X270207214Y-99202863D01*
X270067863Y-99342214D01*
X270067860Y-99342218D01*
X269958371Y-99506079D01*
X269958364Y-99506092D01*
X269882950Y-99688160D01*
X269882947Y-99688170D01*
X269844500Y-99881456D01*
X269844500Y-99881459D01*
X269844500Y-100078541D01*
X269844500Y-100078543D01*
X269844499Y-100078543D01*
X263748514Y-100078543D01*
X258467653Y-94797682D01*
X269545000Y-94797682D01*
X269545000Y-95002317D01*
X269577009Y-95204417D01*
X269640244Y-95399031D01*
X269733141Y-95581350D01*
X269733147Y-95581359D01*
X269765523Y-95625921D01*
X269765524Y-95625922D01*
X270445000Y-94946446D01*
X270445000Y-94952661D01*
X270472259Y-95054394D01*
X270524920Y-95145606D01*
X270599394Y-95220080D01*
X270690606Y-95272741D01*
X270792339Y-95300000D01*
X270798553Y-95300000D01*
X270119076Y-95979474D01*
X270163650Y-96011859D01*
X270345968Y-96104755D01*
X270540582Y-96167990D01*
X270729268Y-96197875D01*
X270792403Y-96227804D01*
X270829334Y-96287116D01*
X270828336Y-96356978D01*
X270789726Y-96415211D01*
X270734062Y-96441965D01*
X270553170Y-96477947D01*
X270553160Y-96477950D01*
X270371092Y-96553364D01*
X270371079Y-96553371D01*
X270207218Y-96662860D01*
X270207214Y-96662863D01*
X270067863Y-96802214D01*
X270067860Y-96802218D01*
X269958371Y-96966079D01*
X269958364Y-96966092D01*
X269882950Y-97148160D01*
X269882947Y-97148170D01*
X269844500Y-97341456D01*
X269844500Y-97341459D01*
X269844500Y-97538541D01*
X269844500Y-97538543D01*
X269844499Y-97538543D01*
X269882947Y-97731829D01*
X269882950Y-97731839D01*
X269958364Y-97913907D01*
X269958371Y-97913920D01*
X270067860Y-98077781D01*
X270067863Y-98077785D01*
X270207214Y-98217136D01*
X270207218Y-98217139D01*
X270371079Y-98326628D01*
X270371092Y-98326635D01*
X270553160Y-98402049D01*
X270553165Y-98402051D01*
X270553169Y-98402051D01*
X270553170Y-98402052D01*
X270746456Y-98440500D01*
X270746459Y-98440500D01*
X270943543Y-98440500D01*
X271073582Y-98414632D01*
X271136835Y-98402051D01*
X271318914Y-98326632D01*
X271482782Y-98217139D01*
X271622139Y-98077782D01*
X271731632Y-97913914D01*
X271807051Y-97731835D01*
X271845500Y-97538541D01*
X271845500Y-97341459D01*
X271845500Y-97341456D01*
X271807052Y-97148170D01*
X271807051Y-97148169D01*
X271807051Y-97148165D01*
X271807049Y-97148160D01*
X271731635Y-96966092D01*
X271731628Y-96966079D01*
X271622139Y-96802218D01*
X271622136Y-96802214D01*
X271482785Y-96662863D01*
X271482781Y-96662860D01*
X271318920Y-96553371D01*
X271318907Y-96553364D01*
X271136839Y-96477950D01*
X271136829Y-96477947D01*
X270955937Y-96441965D01*
X270894026Y-96409580D01*
X270859452Y-96348864D01*
X270863192Y-96279095D01*
X270904059Y-96222423D01*
X270960731Y-96197875D01*
X271149417Y-96167990D01*
X271344031Y-96104755D01*
X271526349Y-96011859D01*
X271570921Y-95979474D01*
X270891447Y-95300000D01*
X270897661Y-95300000D01*
X270999394Y-95272741D01*
X271090606Y-95220080D01*
X271165080Y-95145606D01*
X271217741Y-95054394D01*
X271245000Y-94952661D01*
X271245000Y-94946447D01*
X271924474Y-95625921D01*
X271956861Y-95581347D01*
X271956861Y-95581346D01*
X272004515Y-95487820D01*
X272052489Y-95437024D01*
X272120310Y-95420228D01*
X272186445Y-95442765D01*
X272225485Y-95487819D01*
X272273141Y-95581350D01*
X272273147Y-95581359D01*
X272305523Y-95625921D01*
X272305524Y-95625922D01*
X272985000Y-94946446D01*
X272985000Y-94952661D01*
X273012259Y-95054394D01*
X273064920Y-95145606D01*
X273139394Y-95220080D01*
X273230606Y-95272741D01*
X273332339Y-95300000D01*
X273338553Y-95300000D01*
X272659076Y-95979474D01*
X272703650Y-96011859D01*
X272885968Y-96104755D01*
X273080582Y-96167990D01*
X273269268Y-96197875D01*
X273332403Y-96227804D01*
X273369334Y-96287116D01*
X273368336Y-96356978D01*
X273329726Y-96415211D01*
X273274062Y-96441965D01*
X273093170Y-96477947D01*
X273093160Y-96477950D01*
X272911092Y-96553364D01*
X272911079Y-96553371D01*
X272747218Y-96662860D01*
X272747214Y-96662863D01*
X272607863Y-96802214D01*
X272607860Y-96802218D01*
X272498371Y-96966079D01*
X272498364Y-96966092D01*
X272422950Y-97148160D01*
X272422947Y-97148170D01*
X272384500Y-97341456D01*
X272384500Y-97341459D01*
X272384500Y-97538541D01*
X272384500Y-97538543D01*
X272384499Y-97538543D01*
X272422947Y-97731829D01*
X272422950Y-97731839D01*
X272498364Y-97913907D01*
X272498371Y-97913920D01*
X272607860Y-98077781D01*
X272607863Y-98077785D01*
X272747214Y-98217136D01*
X272747218Y-98217139D01*
X272911079Y-98326628D01*
X272911092Y-98326635D01*
X273093160Y-98402049D01*
X273093165Y-98402051D01*
X273093169Y-98402051D01*
X273093170Y-98402052D01*
X273286456Y-98440500D01*
X273286459Y-98440500D01*
X273483543Y-98440500D01*
X273613582Y-98414632D01*
X273676835Y-98402051D01*
X273858914Y-98326632D01*
X274022782Y-98217139D01*
X274162139Y-98077782D01*
X274271632Y-97913914D01*
X274347051Y-97731835D01*
X274385500Y-97538541D01*
X274385500Y-97341459D01*
X274385500Y-97341456D01*
X274347052Y-97148170D01*
X274347051Y-97148169D01*
X274347051Y-97148165D01*
X274347049Y-97148160D01*
X274271635Y-96966092D01*
X274271628Y-96966079D01*
X274162139Y-96802218D01*
X274162136Y-96802214D01*
X274022785Y-96662863D01*
X274022781Y-96662860D01*
X273858920Y-96553371D01*
X273858907Y-96553364D01*
X273676839Y-96477950D01*
X273676829Y-96477947D01*
X273495937Y-96441965D01*
X273434026Y-96409580D01*
X273399452Y-96348864D01*
X273403192Y-96279095D01*
X273444059Y-96222423D01*
X273500731Y-96197875D01*
X273689417Y-96167990D01*
X273884031Y-96104755D01*
X274066349Y-96011859D01*
X274110921Y-95979474D01*
X273431447Y-95300000D01*
X273437661Y-95300000D01*
X273539394Y-95272741D01*
X273630606Y-95220080D01*
X273705080Y-95145606D01*
X273757741Y-95054394D01*
X273785000Y-94952661D01*
X273785000Y-94946447D01*
X274464474Y-95625921D01*
X274496859Y-95581349D01*
X274589755Y-95399031D01*
X274652990Y-95204417D01*
X274685000Y-95002317D01*
X274685000Y-94797682D01*
X274652990Y-94595582D01*
X274589755Y-94400968D01*
X274496859Y-94218650D01*
X274464474Y-94174077D01*
X274464474Y-94174076D01*
X273785000Y-94853551D01*
X273785000Y-94847339D01*
X273757741Y-94745606D01*
X273705080Y-94654394D01*
X273630606Y-94579920D01*
X273539394Y-94527259D01*
X273437661Y-94500000D01*
X273431446Y-94500000D01*
X274110922Y-93820524D01*
X274110921Y-93820523D01*
X274066359Y-93788147D01*
X274066350Y-93788141D01*
X273884031Y-93695244D01*
X273689417Y-93632009D01*
X273487317Y-93600000D01*
X273282683Y-93600000D01*
X273080582Y-93632009D01*
X272885968Y-93695244D01*
X272703644Y-93788143D01*
X272659077Y-93820523D01*
X272659077Y-93820524D01*
X273338554Y-94500000D01*
X273332339Y-94500000D01*
X273230606Y-94527259D01*
X273139394Y-94579920D01*
X273064920Y-94654394D01*
X273012259Y-94745606D01*
X272985000Y-94847339D01*
X272985000Y-94853553D01*
X272305524Y-94174077D01*
X272305523Y-94174077D01*
X272273143Y-94218644D01*
X272225485Y-94312180D01*
X272177510Y-94362976D01*
X272109689Y-94379771D01*
X272043554Y-94357233D01*
X272004515Y-94312180D01*
X271956859Y-94218650D01*
X271924474Y-94174077D01*
X271924474Y-94174076D01*
X271245000Y-94853551D01*
X271245000Y-94847339D01*
X271217741Y-94745606D01*
X271165080Y-94654394D01*
X271090606Y-94579920D01*
X270999394Y-94527259D01*
X270897661Y-94500000D01*
X270891446Y-94500000D01*
X271570922Y-93820524D01*
X271570921Y-93820523D01*
X271526359Y-93788147D01*
X271526350Y-93788141D01*
X271344031Y-93695244D01*
X271149417Y-93632009D01*
X270947317Y-93600000D01*
X270742683Y-93600000D01*
X270540582Y-93632009D01*
X270345968Y-93695244D01*
X270163644Y-93788143D01*
X270119077Y-93820523D01*
X270119077Y-93820524D01*
X270798554Y-94500000D01*
X270792339Y-94500000D01*
X270690606Y-94527259D01*
X270599394Y-94579920D01*
X270524920Y-94654394D01*
X270472259Y-94745606D01*
X270445000Y-94847339D01*
X270445000Y-94853553D01*
X269765524Y-94174077D01*
X269765523Y-94174077D01*
X269733143Y-94218644D01*
X269640244Y-94400968D01*
X269577009Y-94595582D01*
X269545000Y-94797682D01*
X258467653Y-94797682D01*
X256836819Y-93166848D01*
X256803334Y-93105525D01*
X256800500Y-93079167D01*
X256800500Y-90687648D01*
X269764500Y-90687648D01*
X269764500Y-90892351D01*
X269796522Y-91094534D01*
X269859781Y-91289223D01*
X269918648Y-91404754D01*
X269950867Y-91467988D01*
X269952715Y-91471613D01*
X270073028Y-91637213D01*
X270217786Y-91781971D01*
X270371656Y-91893762D01*
X270383390Y-91902287D01*
X270483593Y-91953343D01*
X270565776Y-91995218D01*
X270565778Y-91995218D01*
X270565781Y-91995220D01*
X270670137Y-92029127D01*
X270760465Y-92058477D01*
X270861557Y-92074488D01*
X270962648Y-92090500D01*
X270962649Y-92090500D01*
X271167351Y-92090500D01*
X271167352Y-92090500D01*
X271369534Y-92058477D01*
X271564219Y-91995220D01*
X271746610Y-91902287D01*
X271839590Y-91834732D01*
X271912213Y-91781971D01*
X271912215Y-91781968D01*
X271912219Y-91781966D01*
X272056966Y-91637219D01*
X272056968Y-91637215D01*
X272056971Y-91637213D01*
X272173656Y-91476607D01*
X272177287Y-91471610D01*
X272270220Y-91289219D01*
X272333477Y-91094534D01*
X272365500Y-90892352D01*
X272365500Y-90687648D01*
X272363324Y-90673907D01*
X272333477Y-90485465D01*
X272286294Y-90340251D01*
X272270220Y-90290781D01*
X272270218Y-90290778D01*
X272270218Y-90290776D01*
X272205246Y-90163263D01*
X272177287Y-90108390D01*
X272146363Y-90065826D01*
X272056971Y-89942786D01*
X271912213Y-89798028D01*
X271746613Y-89677715D01*
X271746612Y-89677714D01*
X271746610Y-89677713D01*
X271689653Y-89648691D01*
X271564223Y-89584781D01*
X271369534Y-89521522D01*
X271194995Y-89493878D01*
X271167352Y-89489500D01*
X270962648Y-89489500D01*
X270938329Y-89493351D01*
X270760465Y-89521522D01*
X270565776Y-89584781D01*
X270383386Y-89677715D01*
X270217786Y-89798028D01*
X270073028Y-89942786D01*
X269952715Y-90108386D01*
X269859781Y-90290776D01*
X269796522Y-90485465D01*
X269764500Y-90687648D01*
X256800500Y-90687648D01*
X256800500Y-86175832D01*
X256820185Y-86108793D01*
X256836814Y-86088156D01*
X258488322Y-84436648D01*
X258549642Y-84403165D01*
X258619334Y-84408149D01*
X258675267Y-84450021D01*
X258699684Y-84515485D01*
X258700000Y-84524331D01*
X258700000Y-84750000D01*
X259684314Y-84750000D01*
X259679920Y-84754394D01*
X259627259Y-84845606D01*
X259600000Y-84947339D01*
X259600000Y-85052661D01*
X259627259Y-85154394D01*
X259679920Y-85245606D01*
X259684314Y-85250000D01*
X258700001Y-85250000D01*
X258700001Y-85599986D01*
X258710494Y-85702697D01*
X258765641Y-85869119D01*
X258765643Y-85869124D01*
X258857684Y-86018345D01*
X258981654Y-86142315D01*
X259130875Y-86234356D01*
X259130880Y-86234358D01*
X259297302Y-86289505D01*
X259297309Y-86289506D01*
X259400019Y-86299999D01*
X259749999Y-86299999D01*
X259750000Y-86299998D01*
X259750000Y-85315686D01*
X259754394Y-85320080D01*
X259845606Y-85372741D01*
X259947339Y-85400000D01*
X260052661Y-85400000D01*
X260154394Y-85372741D01*
X260245606Y-85320080D01*
X260250000Y-85315686D01*
X260250000Y-86299999D01*
X260599972Y-86299999D01*
X260599986Y-86299998D01*
X260702697Y-86289505D01*
X260869119Y-86234358D01*
X260869124Y-86234356D01*
X261018345Y-86142315D01*
X261142315Y-86018345D01*
X261234356Y-85869124D01*
X261234358Y-85869119D01*
X261289505Y-85702697D01*
X261289506Y-85702690D01*
X261299999Y-85599986D01*
X261300000Y-85599973D01*
X261300000Y-85405513D01*
X273759500Y-85405513D01*
X273759500Y-85594486D01*
X273789059Y-85781118D01*
X273847454Y-85960836D01*
X273876757Y-86018345D01*
X273933240Y-86129199D01*
X274044310Y-86282073D01*
X274177927Y-86415690D01*
X274330801Y-86526760D01*
X274405683Y-86564914D01*
X274499163Y-86612545D01*
X274499165Y-86612545D01*
X274499168Y-86612547D01*
X274595497Y-86643846D01*
X274678881Y-86670940D01*
X274865514Y-86700500D01*
X274865519Y-86700500D01*
X275054486Y-86700500D01*
X275241118Y-86670940D01*
X275420832Y-86612547D01*
X275589199Y-86526760D01*
X275742073Y-86415690D01*
X275875690Y-86282073D01*
X275956191Y-86171272D01*
X276011521Y-86128607D01*
X276081134Y-86122628D01*
X276142929Y-86155234D01*
X276166993Y-86187863D01*
X276217083Y-86286169D01*
X276217084Y-86286170D01*
X276277338Y-86369104D01*
X276277340Y-86369105D01*
X277017037Y-85629408D01*
X277034075Y-85692993D01*
X277099901Y-85807007D01*
X277192993Y-85900099D01*
X277307007Y-85965925D01*
X277370590Y-85982962D01*
X276630893Y-86722658D01*
X276713828Y-86782914D01*
X276924197Y-86890102D01*
X277148752Y-86963065D01*
X277148751Y-86963065D01*
X277381948Y-87000000D01*
X277618052Y-87000000D01*
X277851247Y-86963065D01*
X278075802Y-86890102D01*
X278286163Y-86782918D01*
X278286169Y-86782914D01*
X278369104Y-86722658D01*
X278369105Y-86722658D01*
X277629408Y-85982962D01*
X277692993Y-85965925D01*
X277807007Y-85900099D01*
X277900099Y-85807007D01*
X277965925Y-85692993D01*
X277982962Y-85629408D01*
X278722658Y-86369105D01*
X278722658Y-86369104D01*
X278782914Y-86286169D01*
X278782918Y-86286163D01*
X278833005Y-86187863D01*
X278880979Y-86137067D01*
X278948800Y-86120272D01*
X279014935Y-86142809D01*
X279043807Y-86171271D01*
X279124310Y-86282073D01*
X279257927Y-86415690D01*
X279410801Y-86526760D01*
X279485683Y-86564914D01*
X279579163Y-86612545D01*
X279579165Y-86612545D01*
X279579168Y-86612547D01*
X279675497Y-86643846D01*
X279758881Y-86670940D01*
X279945514Y-86700500D01*
X279945519Y-86700500D01*
X280134486Y-86700500D01*
X280321118Y-86670940D01*
X280500832Y-86612547D01*
X280669199Y-86526760D01*
X280822073Y-86415690D01*
X280955690Y-86282073D01*
X281066760Y-86129199D01*
X281152547Y-85960832D01*
X281192069Y-85839195D01*
X281231507Y-85781521D01*
X281295866Y-85754323D01*
X281364712Y-85766238D01*
X281416188Y-85813482D01*
X281427930Y-85839194D01*
X281437655Y-85869124D01*
X281467454Y-85960836D01*
X281496757Y-86018345D01*
X281553240Y-86129199D01*
X281664310Y-86282073D01*
X281797927Y-86415690D01*
X281950801Y-86526760D01*
X282025683Y-86564914D01*
X282119163Y-86612545D01*
X282119165Y-86612545D01*
X282119168Y-86612547D01*
X282215497Y-86643846D01*
X282298881Y-86670940D01*
X282485514Y-86700500D01*
X282485519Y-86700500D01*
X282674486Y-86700500D01*
X282861118Y-86670940D01*
X283040832Y-86612547D01*
X283209199Y-86526760D01*
X283362073Y-86415690D01*
X283495690Y-86282073D01*
X283606760Y-86129199D01*
X283692547Y-85960832D01*
X283732069Y-85839195D01*
X283771507Y-85781521D01*
X283835866Y-85754323D01*
X283904712Y-85766238D01*
X283956188Y-85813482D01*
X283967930Y-85839194D01*
X283977655Y-85869124D01*
X284007454Y-85960836D01*
X284036757Y-86018345D01*
X284093240Y-86129199D01*
X284204310Y-86282073D01*
X284337927Y-86415690D01*
X284490801Y-86526760D01*
X284565683Y-86564914D01*
X284659163Y-86612545D01*
X284659165Y-86612545D01*
X284659168Y-86612547D01*
X284755497Y-86643846D01*
X284838881Y-86670940D01*
X285025514Y-86700500D01*
X285025519Y-86700500D01*
X285214486Y-86700500D01*
X285401118Y-86670940D01*
X285580832Y-86612547D01*
X285749199Y-86526760D01*
X285902073Y-86415690D01*
X286035690Y-86282073D01*
X286146760Y-86129199D01*
X286232547Y-85960832D01*
X286272069Y-85839195D01*
X286311507Y-85781521D01*
X286375866Y-85754323D01*
X286444712Y-85766238D01*
X286496188Y-85813482D01*
X286507930Y-85839194D01*
X286517655Y-85869124D01*
X286547454Y-85960836D01*
X286576757Y-86018345D01*
X286633240Y-86129199D01*
X286744310Y-86282073D01*
X286877927Y-86415690D01*
X287030801Y-86526760D01*
X287105683Y-86564914D01*
X287199163Y-86612545D01*
X287199165Y-86612545D01*
X287199168Y-86612547D01*
X287295497Y-86643846D01*
X287378881Y-86670940D01*
X287565514Y-86700500D01*
X287565519Y-86700500D01*
X287754486Y-86700500D01*
X287941118Y-86670940D01*
X288120832Y-86612547D01*
X288289199Y-86526760D01*
X288442073Y-86415690D01*
X288575690Y-86282073D01*
X288686760Y-86129199D01*
X288772547Y-85960832D01*
X288812069Y-85839195D01*
X288851507Y-85781521D01*
X288915866Y-85754323D01*
X288984712Y-85766238D01*
X289036188Y-85813482D01*
X289047930Y-85839194D01*
X289057655Y-85869124D01*
X289087454Y-85960836D01*
X289116757Y-86018345D01*
X289173240Y-86129199D01*
X289284310Y-86282073D01*
X289417927Y-86415690D01*
X289570801Y-86526760D01*
X289645683Y-86564914D01*
X289739163Y-86612545D01*
X289739165Y-86612545D01*
X289739168Y-86612547D01*
X289835497Y-86643846D01*
X289918881Y-86670940D01*
X290105514Y-86700500D01*
X290105519Y-86700500D01*
X290294486Y-86700500D01*
X290481118Y-86670940D01*
X290660832Y-86612547D01*
X290829199Y-86526760D01*
X290982073Y-86415690D01*
X291115690Y-86282073D01*
X291226760Y-86129199D01*
X291312547Y-85960832D01*
X291352069Y-85839195D01*
X291391507Y-85781521D01*
X291455866Y-85754323D01*
X291524712Y-85766238D01*
X291576188Y-85813482D01*
X291587930Y-85839194D01*
X291597655Y-85869124D01*
X291627454Y-85960836D01*
X291656757Y-86018345D01*
X291713240Y-86129199D01*
X291824310Y-86282073D01*
X291957927Y-86415690D01*
X292110801Y-86526760D01*
X292185683Y-86564914D01*
X292279163Y-86612545D01*
X292279165Y-86612545D01*
X292279168Y-86612547D01*
X292375497Y-86643846D01*
X292458881Y-86670940D01*
X292645514Y-86700500D01*
X292645519Y-86700500D01*
X292834486Y-86700500D01*
X293021118Y-86670940D01*
X293200832Y-86612547D01*
X293369199Y-86526760D01*
X293522073Y-86415690D01*
X293655690Y-86282073D01*
X293766760Y-86129199D01*
X293852547Y-85960832D01*
X293892069Y-85839195D01*
X293931507Y-85781521D01*
X293995866Y-85754323D01*
X294064712Y-85766238D01*
X294116188Y-85813482D01*
X294127930Y-85839194D01*
X294137655Y-85869124D01*
X294167454Y-85960836D01*
X294196757Y-86018345D01*
X294253240Y-86129199D01*
X294364310Y-86282073D01*
X294497927Y-86415690D01*
X294650801Y-86526760D01*
X294725683Y-86564914D01*
X294819163Y-86612545D01*
X294819165Y-86612545D01*
X294819168Y-86612547D01*
X294915497Y-86643846D01*
X294998881Y-86670940D01*
X295185514Y-86700500D01*
X295185519Y-86700500D01*
X295374486Y-86700500D01*
X295561118Y-86670940D01*
X295740832Y-86612547D01*
X295909199Y-86526760D01*
X296062073Y-86415690D01*
X296195690Y-86282073D01*
X296306760Y-86129199D01*
X296392547Y-85960832D01*
X296432069Y-85839195D01*
X296471507Y-85781521D01*
X296535866Y-85754323D01*
X296604712Y-85766238D01*
X296656188Y-85813482D01*
X296667930Y-85839194D01*
X296677655Y-85869124D01*
X296707454Y-85960836D01*
X296736757Y-86018345D01*
X296793240Y-86129199D01*
X296904310Y-86282073D01*
X297037927Y-86415690D01*
X297190801Y-86526760D01*
X297265683Y-86564914D01*
X297359163Y-86612545D01*
X297359165Y-86612545D01*
X297359168Y-86612547D01*
X297455497Y-86643846D01*
X297538881Y-86670940D01*
X297725514Y-86700500D01*
X297725519Y-86700500D01*
X297914486Y-86700500D01*
X298101118Y-86670940D01*
X298280832Y-86612547D01*
X298449199Y-86526760D01*
X298602073Y-86415690D01*
X298735690Y-86282073D01*
X298846760Y-86129199D01*
X298932547Y-85960832D01*
X298972069Y-85839195D01*
X299011507Y-85781521D01*
X299075866Y-85754323D01*
X299144712Y-85766238D01*
X299196188Y-85813482D01*
X299207930Y-85839194D01*
X299217655Y-85869124D01*
X299247454Y-85960836D01*
X299276757Y-86018345D01*
X299333240Y-86129199D01*
X299444310Y-86282073D01*
X299577927Y-86415690D01*
X299730801Y-86526760D01*
X299805683Y-86564914D01*
X299899163Y-86612545D01*
X299899165Y-86612545D01*
X299899168Y-86612547D01*
X299995497Y-86643846D01*
X300078881Y-86670940D01*
X300265514Y-86700500D01*
X300265519Y-86700500D01*
X300454486Y-86700500D01*
X300641118Y-86670940D01*
X300820832Y-86612547D01*
X300989199Y-86526760D01*
X301142073Y-86415690D01*
X301275690Y-86282073D01*
X301386760Y-86129199D01*
X301472547Y-85960832D01*
X301512069Y-85839195D01*
X301551507Y-85781521D01*
X301615866Y-85754323D01*
X301684712Y-85766238D01*
X301736188Y-85813482D01*
X301747930Y-85839194D01*
X301757655Y-85869124D01*
X301787454Y-85960836D01*
X301816757Y-86018345D01*
X301873240Y-86129199D01*
X301984310Y-86282073D01*
X302117927Y-86415690D01*
X302270801Y-86526760D01*
X302345683Y-86564914D01*
X302439163Y-86612545D01*
X302439165Y-86612545D01*
X302439168Y-86612547D01*
X302535497Y-86643846D01*
X302618881Y-86670940D01*
X302805514Y-86700500D01*
X302805519Y-86700500D01*
X302994486Y-86700500D01*
X303181118Y-86670940D01*
X303360832Y-86612547D01*
X303529199Y-86526760D01*
X303682073Y-86415690D01*
X303815690Y-86282073D01*
X303926760Y-86129199D01*
X304012547Y-85960832D01*
X304052069Y-85839195D01*
X304091507Y-85781521D01*
X304155866Y-85754323D01*
X304224712Y-85766238D01*
X304276188Y-85813482D01*
X304287930Y-85839194D01*
X304297655Y-85869124D01*
X304327454Y-85960836D01*
X304356757Y-86018345D01*
X304413240Y-86129199D01*
X304524310Y-86282073D01*
X304657927Y-86415690D01*
X304810801Y-86526760D01*
X304885683Y-86564914D01*
X304979163Y-86612545D01*
X304979165Y-86612545D01*
X304979168Y-86612547D01*
X305075497Y-86643846D01*
X305158881Y-86670940D01*
X305345514Y-86700500D01*
X305345519Y-86700500D01*
X305534486Y-86700500D01*
X305721118Y-86670940D01*
X305900832Y-86612547D01*
X306069199Y-86526760D01*
X306222073Y-86415690D01*
X306355690Y-86282073D01*
X306466760Y-86129199D01*
X306552547Y-85960832D01*
X306592069Y-85839195D01*
X306631507Y-85781521D01*
X306695866Y-85754323D01*
X306764712Y-85766238D01*
X306816188Y-85813482D01*
X306827930Y-85839194D01*
X306837655Y-85869124D01*
X306867454Y-85960836D01*
X306896757Y-86018345D01*
X306953240Y-86129199D01*
X307064310Y-86282073D01*
X307197927Y-86415690D01*
X307350801Y-86526760D01*
X307425683Y-86564914D01*
X307519163Y-86612545D01*
X307519165Y-86612545D01*
X307519168Y-86612547D01*
X307615497Y-86643846D01*
X307698881Y-86670940D01*
X307885514Y-86700500D01*
X307885519Y-86700500D01*
X308074486Y-86700500D01*
X308261118Y-86670940D01*
X308440832Y-86612547D01*
X308609199Y-86526760D01*
X308762073Y-86415690D01*
X308895690Y-86282073D01*
X309006760Y-86129199D01*
X309092547Y-85960832D01*
X309132069Y-85839195D01*
X309171507Y-85781521D01*
X309235866Y-85754323D01*
X309304712Y-85766238D01*
X309356188Y-85813482D01*
X309367930Y-85839194D01*
X309377655Y-85869124D01*
X309407454Y-85960836D01*
X309436757Y-86018345D01*
X309493240Y-86129199D01*
X309604310Y-86282073D01*
X309737927Y-86415690D01*
X309890801Y-86526760D01*
X309965683Y-86564914D01*
X310059163Y-86612545D01*
X310059165Y-86612545D01*
X310059168Y-86612547D01*
X310155497Y-86643846D01*
X310238881Y-86670940D01*
X310425514Y-86700500D01*
X310425519Y-86700500D01*
X310614486Y-86700500D01*
X310801118Y-86670940D01*
X310980832Y-86612547D01*
X311149199Y-86526760D01*
X311302073Y-86415690D01*
X311435690Y-86282073D01*
X311546760Y-86129199D01*
X311632547Y-85960832D01*
X311690940Y-85781118D01*
X311695184Y-85754323D01*
X311720500Y-85594486D01*
X311720500Y-85405513D01*
X311690940Y-85218881D01*
X311632545Y-85039163D01*
X311585758Y-84947339D01*
X311546760Y-84870801D01*
X311435690Y-84717927D01*
X311302073Y-84584310D01*
X311149199Y-84473240D01*
X310980836Y-84387454D01*
X310801118Y-84329059D01*
X310614486Y-84299500D01*
X310614481Y-84299500D01*
X310425519Y-84299500D01*
X310425514Y-84299500D01*
X310238881Y-84329059D01*
X310059163Y-84387454D01*
X309890800Y-84473240D01*
X309803579Y-84536610D01*
X309737927Y-84584310D01*
X309737925Y-84584312D01*
X309737924Y-84584312D01*
X309604312Y-84717924D01*
X309604312Y-84717925D01*
X309604310Y-84717927D01*
X309577815Y-84754394D01*
X309493240Y-84870800D01*
X309407454Y-85039163D01*
X309367931Y-85160803D01*
X309328493Y-85218478D01*
X309264134Y-85245676D01*
X309195288Y-85233761D01*
X309143812Y-85186516D01*
X309132069Y-85160803D01*
X309092545Y-85039163D01*
X309045758Y-84947339D01*
X309006760Y-84870801D01*
X308895690Y-84717927D01*
X308762073Y-84584310D01*
X308609199Y-84473240D01*
X308440836Y-84387454D01*
X308261118Y-84329059D01*
X308074486Y-84299500D01*
X308074481Y-84299500D01*
X307885519Y-84299500D01*
X307885514Y-84299500D01*
X307698881Y-84329059D01*
X307519163Y-84387454D01*
X307350800Y-84473240D01*
X307263579Y-84536610D01*
X307197927Y-84584310D01*
X307197925Y-84584312D01*
X307197924Y-84584312D01*
X307064312Y-84717924D01*
X307064312Y-84717925D01*
X307064310Y-84717927D01*
X307037815Y-84754394D01*
X306953240Y-84870800D01*
X306867454Y-85039163D01*
X306827931Y-85160803D01*
X306788493Y-85218478D01*
X306724134Y-85245676D01*
X306655288Y-85233761D01*
X306603812Y-85186516D01*
X306592069Y-85160803D01*
X306552545Y-85039163D01*
X306505758Y-84947339D01*
X306466760Y-84870801D01*
X306355690Y-84717927D01*
X306222073Y-84584310D01*
X306069199Y-84473240D01*
X305900836Y-84387454D01*
X305721118Y-84329059D01*
X305534486Y-84299500D01*
X305534481Y-84299500D01*
X305345519Y-84299500D01*
X305345514Y-84299500D01*
X305158881Y-84329059D01*
X304979163Y-84387454D01*
X304810800Y-84473240D01*
X304723579Y-84536610D01*
X304657927Y-84584310D01*
X304657925Y-84584312D01*
X304657924Y-84584312D01*
X304524312Y-84717924D01*
X304524312Y-84717925D01*
X304524310Y-84717927D01*
X304497815Y-84754394D01*
X304413240Y-84870800D01*
X304327454Y-85039163D01*
X304287931Y-85160803D01*
X304248493Y-85218478D01*
X304184134Y-85245676D01*
X304115288Y-85233761D01*
X304063812Y-85186516D01*
X304052069Y-85160803D01*
X304012545Y-85039163D01*
X303965758Y-84947339D01*
X303926760Y-84870801D01*
X303815690Y-84717927D01*
X303682073Y-84584310D01*
X303529199Y-84473240D01*
X303360836Y-84387454D01*
X303181118Y-84329059D01*
X302994486Y-84299500D01*
X302994481Y-84299500D01*
X302805519Y-84299500D01*
X302805514Y-84299500D01*
X302618881Y-84329059D01*
X302439163Y-84387454D01*
X302270800Y-84473240D01*
X302183579Y-84536610D01*
X302117927Y-84584310D01*
X302117925Y-84584312D01*
X302117924Y-84584312D01*
X301984312Y-84717924D01*
X301984312Y-84717925D01*
X301984310Y-84717927D01*
X301957815Y-84754394D01*
X301873240Y-84870800D01*
X301787454Y-85039163D01*
X301747931Y-85160803D01*
X301708493Y-85218478D01*
X301644134Y-85245676D01*
X301575288Y-85233761D01*
X301523812Y-85186516D01*
X301512069Y-85160803D01*
X301472545Y-85039163D01*
X301425758Y-84947339D01*
X301386760Y-84870801D01*
X301275690Y-84717927D01*
X301142073Y-84584310D01*
X300989199Y-84473240D01*
X300820836Y-84387454D01*
X300641118Y-84329059D01*
X300454486Y-84299500D01*
X300454481Y-84299500D01*
X300265519Y-84299500D01*
X300265514Y-84299500D01*
X300078881Y-84329059D01*
X299899163Y-84387454D01*
X299730800Y-84473240D01*
X299643579Y-84536610D01*
X299577927Y-84584310D01*
X299577925Y-84584312D01*
X299577924Y-84584312D01*
X299444312Y-84717924D01*
X299444312Y-84717925D01*
X299444310Y-84717927D01*
X299417815Y-84754394D01*
X299333240Y-84870800D01*
X299247454Y-85039163D01*
X299207931Y-85160803D01*
X299168493Y-85218478D01*
X299104134Y-85245676D01*
X299035288Y-85233761D01*
X298983812Y-85186516D01*
X298972069Y-85160803D01*
X298932545Y-85039163D01*
X298885758Y-84947339D01*
X298846760Y-84870801D01*
X298735690Y-84717927D01*
X298602073Y-84584310D01*
X298449199Y-84473240D01*
X298280836Y-84387454D01*
X298101118Y-84329059D01*
X297914486Y-84299500D01*
X297914481Y-84299500D01*
X297725519Y-84299500D01*
X297725514Y-84299500D01*
X297538881Y-84329059D01*
X297359163Y-84387454D01*
X297190800Y-84473240D01*
X297103579Y-84536610D01*
X297037927Y-84584310D01*
X297037925Y-84584312D01*
X297037924Y-84584312D01*
X296904312Y-84717924D01*
X296904312Y-84717925D01*
X296904310Y-84717927D01*
X296877815Y-84754394D01*
X296793240Y-84870800D01*
X296707454Y-85039163D01*
X296667931Y-85160803D01*
X296628493Y-85218478D01*
X296564134Y-85245676D01*
X296495288Y-85233761D01*
X296443812Y-85186516D01*
X296432069Y-85160803D01*
X296392545Y-85039163D01*
X296345758Y-84947339D01*
X296306760Y-84870801D01*
X296195690Y-84717927D01*
X296062073Y-84584310D01*
X295909199Y-84473240D01*
X295740836Y-84387454D01*
X295561118Y-84329059D01*
X295374486Y-84299500D01*
X295374481Y-84299500D01*
X295185519Y-84299500D01*
X295185514Y-84299500D01*
X294998881Y-84329059D01*
X294819163Y-84387454D01*
X294650800Y-84473240D01*
X294563579Y-84536610D01*
X294497927Y-84584310D01*
X294497925Y-84584312D01*
X294497924Y-84584312D01*
X294364312Y-84717924D01*
X294364312Y-84717925D01*
X294364310Y-84717927D01*
X294337815Y-84754394D01*
X294253240Y-84870800D01*
X294167454Y-85039163D01*
X294127931Y-85160803D01*
X294088493Y-85218478D01*
X294024134Y-85245676D01*
X293955288Y-85233761D01*
X293903812Y-85186516D01*
X293892069Y-85160803D01*
X293852545Y-85039163D01*
X293805758Y-84947339D01*
X293766760Y-84870801D01*
X293655690Y-84717927D01*
X293522073Y-84584310D01*
X293369199Y-84473240D01*
X293200836Y-84387454D01*
X293021118Y-84329059D01*
X292834486Y-84299500D01*
X292834481Y-84299500D01*
X292645519Y-84299500D01*
X292645514Y-84299500D01*
X292458881Y-84329059D01*
X292279163Y-84387454D01*
X292110800Y-84473240D01*
X292023579Y-84536610D01*
X291957927Y-84584310D01*
X291957925Y-84584312D01*
X291957924Y-84584312D01*
X291824312Y-84717924D01*
X291824312Y-84717925D01*
X291824310Y-84717927D01*
X291797815Y-84754394D01*
X291713240Y-84870800D01*
X291627454Y-85039163D01*
X291587931Y-85160803D01*
X291548493Y-85218478D01*
X291484134Y-85245676D01*
X291415288Y-85233761D01*
X291363812Y-85186516D01*
X291352069Y-85160803D01*
X291312545Y-85039163D01*
X291265758Y-84947339D01*
X291226760Y-84870801D01*
X291115690Y-84717927D01*
X290982073Y-84584310D01*
X290829199Y-84473240D01*
X290660836Y-84387454D01*
X290481118Y-84329059D01*
X290294486Y-84299500D01*
X290294481Y-84299500D01*
X290105519Y-84299500D01*
X290105514Y-84299500D01*
X289918881Y-84329059D01*
X289739163Y-84387454D01*
X289570800Y-84473240D01*
X289483579Y-84536610D01*
X289417927Y-84584310D01*
X289417925Y-84584312D01*
X289417924Y-84584312D01*
X289284312Y-84717924D01*
X289284312Y-84717925D01*
X289284310Y-84717927D01*
X289257815Y-84754394D01*
X289173240Y-84870800D01*
X289087454Y-85039163D01*
X289047931Y-85160803D01*
X289008493Y-85218478D01*
X288944134Y-85245676D01*
X288875288Y-85233761D01*
X288823812Y-85186516D01*
X288812069Y-85160803D01*
X288772545Y-85039163D01*
X288725758Y-84947339D01*
X288686760Y-84870801D01*
X288575690Y-84717927D01*
X288442073Y-84584310D01*
X288289199Y-84473240D01*
X288120836Y-84387454D01*
X287941118Y-84329059D01*
X287754486Y-84299500D01*
X287754481Y-84299500D01*
X287565519Y-84299500D01*
X287565514Y-84299500D01*
X287378881Y-84329059D01*
X287199163Y-84387454D01*
X287030800Y-84473240D01*
X286943579Y-84536610D01*
X286877927Y-84584310D01*
X286877925Y-84584312D01*
X286877924Y-84584312D01*
X286744312Y-84717924D01*
X286744312Y-84717925D01*
X286744310Y-84717927D01*
X286717815Y-84754394D01*
X286633240Y-84870800D01*
X286547454Y-85039163D01*
X286507931Y-85160803D01*
X286468493Y-85218478D01*
X286404134Y-85245676D01*
X286335288Y-85233761D01*
X286283812Y-85186516D01*
X286272069Y-85160803D01*
X286232545Y-85039163D01*
X286185758Y-84947339D01*
X286146760Y-84870801D01*
X286035690Y-84717927D01*
X285902073Y-84584310D01*
X285749199Y-84473240D01*
X285580836Y-84387454D01*
X285401118Y-84329059D01*
X285214486Y-84299500D01*
X285214481Y-84299500D01*
X285025519Y-84299500D01*
X285025514Y-84299500D01*
X284838881Y-84329059D01*
X284659163Y-84387454D01*
X284490800Y-84473240D01*
X284403579Y-84536610D01*
X284337927Y-84584310D01*
X284337925Y-84584312D01*
X284337924Y-84584312D01*
X284204312Y-84717924D01*
X284204312Y-84717925D01*
X284204310Y-84717927D01*
X284177815Y-84754394D01*
X284093240Y-84870800D01*
X284007454Y-85039163D01*
X283967931Y-85160803D01*
X283928493Y-85218478D01*
X283864134Y-85245676D01*
X283795288Y-85233761D01*
X283743812Y-85186516D01*
X283732069Y-85160803D01*
X283692545Y-85039163D01*
X283645758Y-84947339D01*
X283606760Y-84870801D01*
X283495690Y-84717927D01*
X283362073Y-84584310D01*
X283209199Y-84473240D01*
X283040836Y-84387454D01*
X282861118Y-84329059D01*
X282674486Y-84299500D01*
X282674481Y-84299500D01*
X282485519Y-84299500D01*
X282485514Y-84299500D01*
X282298881Y-84329059D01*
X282119163Y-84387454D01*
X281950800Y-84473240D01*
X281863579Y-84536610D01*
X281797927Y-84584310D01*
X281797925Y-84584312D01*
X281797924Y-84584312D01*
X281664312Y-84717924D01*
X281664312Y-84717925D01*
X281664310Y-84717927D01*
X281637815Y-84754394D01*
X281553240Y-84870800D01*
X281467454Y-85039163D01*
X281427931Y-85160803D01*
X281388493Y-85218478D01*
X281324134Y-85245676D01*
X281255288Y-85233761D01*
X281203812Y-85186516D01*
X281192069Y-85160803D01*
X281152545Y-85039163D01*
X281105758Y-84947339D01*
X281066760Y-84870801D01*
X280955690Y-84717927D01*
X280822073Y-84584310D01*
X280669199Y-84473240D01*
X280500836Y-84387454D01*
X280321118Y-84329059D01*
X280134486Y-84299500D01*
X280134481Y-84299500D01*
X279945519Y-84299500D01*
X279945514Y-84299500D01*
X279758881Y-84329059D01*
X279579163Y-84387454D01*
X279410800Y-84473240D01*
X279323579Y-84536610D01*
X279257927Y-84584310D01*
X279257925Y-84584312D01*
X279257924Y-84584312D01*
X279124312Y-84717924D01*
X279124305Y-84717933D01*
X279043807Y-84828727D01*
X278988477Y-84871393D01*
X278918864Y-84877371D01*
X278857069Y-84844764D01*
X278833005Y-84812136D01*
X278782914Y-84713828D01*
X278722658Y-84630894D01*
X278722658Y-84630893D01*
X277982962Y-85370590D01*
X277965925Y-85307007D01*
X277900099Y-85192993D01*
X277807007Y-85099901D01*
X277692993Y-85034075D01*
X277629409Y-85017037D01*
X278369105Y-84277340D01*
X278369104Y-84277338D01*
X278286174Y-84217087D01*
X278075802Y-84109897D01*
X277851247Y-84036934D01*
X277851248Y-84036934D01*
X277618052Y-84000000D01*
X277381948Y-84000000D01*
X277148752Y-84036934D01*
X276924197Y-84109897D01*
X276713830Y-84217084D01*
X276630894Y-84277340D01*
X277370591Y-85017037D01*
X277307007Y-85034075D01*
X277192993Y-85099901D01*
X277099901Y-85192993D01*
X277034075Y-85307007D01*
X277017037Y-85370591D01*
X276277340Y-84630894D01*
X276217083Y-84713833D01*
X276166993Y-84812138D01*
X276119018Y-84862933D01*
X276051197Y-84879728D01*
X275985063Y-84857190D01*
X275956191Y-84828727D01*
X275944138Y-84812138D01*
X275875690Y-84717927D01*
X275742073Y-84584310D01*
X275589199Y-84473240D01*
X275499079Y-84427321D01*
X275420836Y-84387454D01*
X275241118Y-84329059D01*
X275054486Y-84299500D01*
X275054481Y-84299500D01*
X274865519Y-84299500D01*
X274865514Y-84299500D01*
X274678881Y-84329059D01*
X274499163Y-84387454D01*
X274330800Y-84473240D01*
X274243579Y-84536610D01*
X274177927Y-84584310D01*
X274177925Y-84584312D01*
X274177924Y-84584312D01*
X274044312Y-84717924D01*
X274044312Y-84717925D01*
X274044310Y-84717927D01*
X274017815Y-84754394D01*
X273933240Y-84870800D01*
X273847454Y-85039163D01*
X273789059Y-85218881D01*
X273759500Y-85405513D01*
X261300000Y-85405513D01*
X261300000Y-85250000D01*
X260315686Y-85250000D01*
X260320080Y-85245606D01*
X260372741Y-85154394D01*
X260400000Y-85052661D01*
X260400000Y-84947339D01*
X260372741Y-84845606D01*
X260320080Y-84754394D01*
X260315686Y-84750000D01*
X261299999Y-84750000D01*
X261299999Y-84400028D01*
X261299998Y-84400013D01*
X261289505Y-84297302D01*
X261234358Y-84130880D01*
X261234356Y-84130875D01*
X261142315Y-83981654D01*
X261018345Y-83857684D01*
X260869124Y-83765643D01*
X260869119Y-83765641D01*
X260702697Y-83710494D01*
X260702690Y-83710493D01*
X260599986Y-83700000D01*
X260340764Y-83700000D01*
X260273725Y-83680315D01*
X260227970Y-83627511D01*
X260218026Y-83558353D01*
X260247051Y-83494797D01*
X260293311Y-83461439D01*
X260473914Y-83386632D01*
X260637782Y-83277139D01*
X260777139Y-83137782D01*
X260886632Y-82973914D01*
X260962051Y-82791835D01*
X261000500Y-82598541D01*
X261000500Y-82401459D01*
X261000500Y-82401456D01*
X260962052Y-82208170D01*
X260962051Y-82208169D01*
X260962051Y-82208165D01*
X260962049Y-82208160D01*
X260886635Y-82026092D01*
X260886628Y-82026079D01*
X260777139Y-81862218D01*
X260777136Y-81862214D01*
X260637785Y-81722863D01*
X260637781Y-81722860D01*
X260473920Y-81613371D01*
X260473907Y-81613364D01*
X260291839Y-81537950D01*
X260291829Y-81537947D01*
X260098543Y-81499500D01*
X260098541Y-81499500D01*
X259901459Y-81499500D01*
X259901457Y-81499500D01*
X259708170Y-81537947D01*
X259708160Y-81537950D01*
X259526092Y-81613364D01*
X259526079Y-81613371D01*
X259362218Y-81722860D01*
X259362214Y-81722863D01*
X259222863Y-81862214D01*
X259222860Y-81862218D01*
X259113371Y-82026079D01*
X259113364Y-82026092D01*
X259037950Y-82208160D01*
X259037947Y-82208170D01*
X258999500Y-82401456D01*
X258999500Y-82401459D01*
X258999500Y-82598541D01*
X258999500Y-82598543D01*
X258999499Y-82598543D01*
X259037947Y-82791829D01*
X259037950Y-82791839D01*
X259078072Y-82888702D01*
X259085541Y-82958171D01*
X259054266Y-83020650D01*
X259051192Y-83023835D01*
X256315489Y-85759540D01*
X256259541Y-85815487D01*
X256259535Y-85815495D01*
X256219982Y-85884004D01*
X256219979Y-85884009D01*
X256219121Y-85887213D01*
X256199500Y-85960438D01*
X251678033Y-85960438D01*
X251723199Y-85887213D01*
X251723200Y-85887211D01*
X251734354Y-85869128D01*
X251734358Y-85869119D01*
X251789505Y-85702697D01*
X251789506Y-85702690D01*
X251799999Y-85599986D01*
X251800000Y-85599973D01*
X251800000Y-85250000D01*
X250815686Y-85250000D01*
X250820080Y-85245606D01*
X250872741Y-85154394D01*
X250900000Y-85052661D01*
X250900000Y-84947339D01*
X250872741Y-84845606D01*
X250820080Y-84754394D01*
X250815686Y-84750000D01*
X251799999Y-84750000D01*
X251799999Y-84400028D01*
X251799998Y-84400013D01*
X251789505Y-84297302D01*
X251734358Y-84130880D01*
X251734356Y-84130875D01*
X251642315Y-83981654D01*
X251518345Y-83857684D01*
X251369124Y-83765643D01*
X251369119Y-83765641D01*
X251202697Y-83710494D01*
X251202690Y-83710493D01*
X251099986Y-83700000D01*
X250840764Y-83700000D01*
X250773725Y-83680315D01*
X250727970Y-83627511D01*
X250718026Y-83558353D01*
X250747051Y-83494797D01*
X250793311Y-83461439D01*
X250973914Y-83386632D01*
X251137782Y-83277139D01*
X251277139Y-83137782D01*
X251386632Y-82973914D01*
X251462051Y-82791835D01*
X251500500Y-82598541D01*
X251500500Y-82401459D01*
X251500500Y-82401456D01*
X251462052Y-82208170D01*
X251462051Y-82208169D01*
X251462051Y-82208165D01*
X251462049Y-82208160D01*
X251386635Y-82026092D01*
X251386628Y-82026079D01*
X251277139Y-81862218D01*
X251277136Y-81862214D01*
X251137785Y-81722863D01*
X251137781Y-81722860D01*
X250973920Y-81613371D01*
X250973907Y-81613364D01*
X250791839Y-81537950D01*
X250791829Y-81537947D01*
X250598543Y-81499500D01*
X250598541Y-81499500D01*
X250401459Y-81499500D01*
X250401457Y-81499500D01*
X250208170Y-81537947D01*
X250208160Y-81537950D01*
X250026092Y-81613364D01*
X250026079Y-81613371D01*
X249862218Y-81722860D01*
X249862214Y-81722863D01*
X249722863Y-81862214D01*
X249722860Y-81862218D01*
X249613371Y-82026079D01*
X249613364Y-82026092D01*
X249537950Y-82208160D01*
X249537947Y-82208170D01*
X249499500Y-82401456D01*
X249499500Y-82401459D01*
X249499500Y-82598541D01*
X249499500Y-82598543D01*
X249499499Y-82598543D01*
X249537947Y-82791829D01*
X249537950Y-82791839D01*
X249613364Y-82973907D01*
X249613371Y-82973920D01*
X249722860Y-83137781D01*
X249722863Y-83137785D01*
X249862214Y-83277136D01*
X249862218Y-83277139D01*
X250026079Y-83386628D01*
X250026092Y-83386635D01*
X250093006Y-83414351D01*
X250206688Y-83461439D01*
X250261092Y-83505279D01*
X250283157Y-83571573D01*
X250265878Y-83639273D01*
X250214741Y-83686884D01*
X250159236Y-83700000D01*
X249900029Y-83700000D01*
X249900012Y-83700001D01*
X249797302Y-83710494D01*
X249630880Y-83765641D01*
X249630875Y-83765643D01*
X249481654Y-83857684D01*
X249357684Y-83981654D01*
X249265643Y-84130875D01*
X249265641Y-84130880D01*
X249210494Y-84297302D01*
X249210493Y-84297309D01*
X249200000Y-84400013D01*
X242546461Y-84400013D01*
X241747488Y-83601041D01*
X241807890Y-83576022D01*
X241914351Y-83504888D01*
X242004888Y-83414351D01*
X242076022Y-83307890D01*
X242101041Y-83247488D01*
X243008597Y-84155045D01*
X243008600Y-84155045D01*
X243083178Y-84057855D01*
X243207711Y-83842159D01*
X243207716Y-83842148D01*
X243303026Y-83612049D01*
X243367491Y-83371463D01*
X243400000Y-83124533D01*
X243400000Y-82875466D01*
X243367491Y-82628536D01*
X243303026Y-82387950D01*
X243207716Y-82157851D01*
X243207711Y-82157840D01*
X243083186Y-81942158D01*
X243083180Y-81942150D01*
X243008598Y-81844953D01*
X242101041Y-82752510D01*
X242076022Y-82692110D01*
X242004888Y-82585649D01*
X241914351Y-82495112D01*
X241807890Y-82423978D01*
X241747487Y-82398957D01*
X242655045Y-81491400D01*
X242557849Y-81416819D01*
X242557841Y-81416813D01*
X242342159Y-81292288D01*
X242342148Y-81292283D01*
X242112049Y-81196973D01*
X241871463Y-81132508D01*
X241624534Y-81100000D01*
X241375466Y-81100000D01*
X241128536Y-81132508D01*
X240887950Y-81196973D01*
X240657851Y-81292283D01*
X240657847Y-81292285D01*
X240442143Y-81416823D01*
X240344953Y-81491399D01*
X240344953Y-81491400D01*
X241252511Y-82398958D01*
X241192110Y-82423978D01*
X241085649Y-82495112D01*
X240995112Y-82585649D01*
X240923978Y-82692110D01*
X240898958Y-82752511D01*
X239991400Y-81844953D01*
X239991399Y-81844953D01*
X239916823Y-81942143D01*
X239792285Y-82157847D01*
X239792283Y-82157851D01*
X239696973Y-82387950D01*
X239632508Y-82628536D01*
X239600000Y-82875466D01*
X232050500Y-82875466D01*
X232050500Y-77874038D01*
X239899500Y-77874038D01*
X239899500Y-78125961D01*
X239938910Y-78374785D01*
X240016760Y-78614383D01*
X240131132Y-78838848D01*
X240279201Y-79042649D01*
X240279205Y-79042654D01*
X240457345Y-79220794D01*
X240457350Y-79220798D01*
X240635117Y-79349952D01*
X240661155Y-79368870D01*
X240803454Y-79441375D01*
X240885616Y-79483239D01*
X240885618Y-79483239D01*
X240885621Y-79483241D01*
X241125215Y-79561090D01*
X241374038Y-79600500D01*
X241374039Y-79600500D01*
X241625961Y-79600500D01*
X241625962Y-79600500D01*
X241874785Y-79561090D01*
X242114379Y-79483241D01*
X242338845Y-79368870D01*
X242542656Y-79220793D01*
X242720793Y-79042656D01*
X242724644Y-79037354D01*
X242781334Y-78959330D01*
X242851268Y-78863072D01*
X242868870Y-78838845D01*
X242983241Y-78614379D01*
X243061090Y-78374785D01*
X243100500Y-78125962D01*
X243100500Y-77897682D01*
X247500000Y-77897682D01*
X247500000Y-78102317D01*
X247532009Y-78304417D01*
X247595244Y-78499031D01*
X247688141Y-78681350D01*
X247688147Y-78681359D01*
X247720523Y-78725921D01*
X247720524Y-78725922D01*
X248400000Y-78046446D01*
X248400000Y-78052661D01*
X248427259Y-78154394D01*
X248479920Y-78245606D01*
X248554394Y-78320080D01*
X248645606Y-78372741D01*
X248747339Y-78400000D01*
X248753553Y-78400000D01*
X248074076Y-79079474D01*
X248118650Y-79111859D01*
X248300968Y-79204755D01*
X248495582Y-79267990D01*
X248697683Y-79300000D01*
X248902317Y-79300000D01*
X249104417Y-79267990D01*
X249299031Y-79204755D01*
X249481349Y-79111859D01*
X249525921Y-79079474D01*
X248846447Y-78400000D01*
X248852661Y-78400000D01*
X248954394Y-78372741D01*
X249045606Y-78320080D01*
X249120080Y-78245606D01*
X249172741Y-78154394D01*
X249200000Y-78052661D01*
X249200000Y-78046447D01*
X249879474Y-78725921D01*
X249911859Y-78681349D01*
X250004755Y-78499031D01*
X250067990Y-78304417D01*
X250100000Y-78102317D01*
X250100000Y-78098543D01*
X260499499Y-78098543D01*
X260537947Y-78291829D01*
X260537950Y-78291839D01*
X260613364Y-78473907D01*
X260613371Y-78473920D01*
X260722860Y-78637781D01*
X260722863Y-78637785D01*
X260862214Y-78777136D01*
X260862218Y-78777139D01*
X261026079Y-78886628D01*
X261026092Y-78886635D01*
X261201596Y-78959330D01*
X261208165Y-78962051D01*
X261208169Y-78962051D01*
X261208170Y-78962052D01*
X261401456Y-79000500D01*
X261401459Y-79000500D01*
X261598543Y-79000500D01*
X261728582Y-78974632D01*
X261791835Y-78962051D01*
X261973914Y-78886632D01*
X262137782Y-78777139D01*
X262277139Y-78637782D01*
X262386632Y-78473914D01*
X262426372Y-78377973D01*
X317449500Y-78377973D01*
X317449500Y-78386274D01*
X317449500Y-78622027D01*
X317451996Y-78637785D01*
X317483841Y-78838848D01*
X317487679Y-78863076D01*
X317563096Y-79095185D01*
X317667454Y-79300000D01*
X317673896Y-79312642D01*
X317817339Y-79510076D01*
X317817343Y-79510081D01*
X317989918Y-79682656D01*
X317989923Y-79682660D01*
X318063205Y-79735902D01*
X318187361Y-79826106D01*
X318404815Y-79936904D01*
X318636924Y-80012321D01*
X318877973Y-80050500D01*
X318877974Y-80050500D01*
X319122026Y-80050500D01*
X319122027Y-80050500D01*
X319363076Y-80012321D01*
X319595185Y-79936904D01*
X319812639Y-79826106D01*
X320010083Y-79682655D01*
X320182655Y-79510083D01*
X320326106Y-79312639D01*
X320436904Y-79095185D01*
X320512321Y-78863076D01*
X320550500Y-78622027D01*
X320550500Y-78377973D01*
X320512321Y-78136924D01*
X320436904Y-77904815D01*
X320326106Y-77687361D01*
X320296380Y-77646446D01*
X320182660Y-77489923D01*
X320182656Y-77489918D01*
X320010081Y-77317343D01*
X320010076Y-77317339D01*
X319812642Y-77173896D01*
X319812641Y-77173895D01*
X319812639Y-77173894D01*
X319595185Y-77063096D01*
X319363076Y-76987679D01*
X319363074Y-76987678D01*
X319363072Y-76987678D01*
X319171589Y-76957350D01*
X319122027Y-76949500D01*
X318877973Y-76949500D01*
X318828449Y-76957344D01*
X318636927Y-76987678D01*
X318404812Y-77063097D01*
X318187357Y-77173896D01*
X317989923Y-77317339D01*
X317989918Y-77317343D01*
X317817343Y-77489918D01*
X317817339Y-77489923D01*
X317673896Y-77687357D01*
X317563097Y-77904812D01*
X317487678Y-78136927D01*
X317457787Y-78325649D01*
X317449500Y-78377973D01*
X262426372Y-78377973D01*
X262462051Y-78291835D01*
X262474632Y-78228582D01*
X262500500Y-78098543D01*
X262500500Y-77901456D01*
X262462052Y-77708170D01*
X262462051Y-77708169D01*
X262462051Y-77708165D01*
X262450352Y-77679920D01*
X262386635Y-77526092D01*
X262386628Y-77526079D01*
X262277139Y-77362218D01*
X262277136Y-77362214D01*
X262137785Y-77222863D01*
X262137781Y-77222860D01*
X261973920Y-77113371D01*
X261973907Y-77113364D01*
X261791839Y-77037950D01*
X261791829Y-77037947D01*
X261598543Y-76999500D01*
X261598541Y-76999500D01*
X261401459Y-76999500D01*
X261401457Y-76999500D01*
X261208170Y-77037947D01*
X261208160Y-77037950D01*
X261026092Y-77113364D01*
X261026079Y-77113371D01*
X260862218Y-77222860D01*
X260862214Y-77222863D01*
X260722863Y-77362214D01*
X260722860Y-77362218D01*
X260613371Y-77526079D01*
X260613364Y-77526092D01*
X260537950Y-77708160D01*
X260537947Y-77708170D01*
X260499500Y-77901456D01*
X260499500Y-77901459D01*
X260499500Y-78098541D01*
X260499500Y-78098543D01*
X260499499Y-78098543D01*
X250100000Y-78098543D01*
X250100000Y-77897682D01*
X250067990Y-77695582D01*
X250004755Y-77500968D01*
X249911859Y-77318650D01*
X249879474Y-77274077D01*
X249879474Y-77274076D01*
X249200000Y-77953551D01*
X249200000Y-77947339D01*
X249172741Y-77845606D01*
X249120080Y-77754394D01*
X249045606Y-77679920D01*
X248954394Y-77627259D01*
X248852661Y-77600000D01*
X248846446Y-77600000D01*
X249525922Y-76920524D01*
X249525921Y-76920523D01*
X249481359Y-76888147D01*
X249481350Y-76888141D01*
X249299031Y-76795244D01*
X249104417Y-76732009D01*
X248902317Y-76700000D01*
X248697683Y-76700000D01*
X248495582Y-76732009D01*
X248300968Y-76795244D01*
X248118644Y-76888143D01*
X248074077Y-76920523D01*
X248074077Y-76920524D01*
X248753554Y-77600000D01*
X248747339Y-77600000D01*
X248645606Y-77627259D01*
X248554394Y-77679920D01*
X248479920Y-77754394D01*
X248427259Y-77845606D01*
X248400000Y-77947339D01*
X248400000Y-77953553D01*
X247720524Y-77274077D01*
X247720523Y-77274077D01*
X247688143Y-77318644D01*
X247595244Y-77500968D01*
X247532009Y-77695582D01*
X247500000Y-77897682D01*
X243100500Y-77897682D01*
X243100500Y-77874038D01*
X243061090Y-77625215D01*
X242983241Y-77385621D01*
X242983239Y-77385618D01*
X242983239Y-77385616D01*
X242941747Y-77304184D01*
X242868870Y-77161155D01*
X242797627Y-77063097D01*
X242781332Y-77040668D01*
X242720798Y-76957350D01*
X242720794Y-76957345D01*
X242542654Y-76779205D01*
X242542649Y-76779201D01*
X242338848Y-76631132D01*
X242338847Y-76631131D01*
X242338845Y-76631130D01*
X242268747Y-76595413D01*
X242114383Y-76516760D01*
X241874785Y-76438910D01*
X241625962Y-76399500D01*
X241374038Y-76399500D01*
X241249626Y-76419205D01*
X241125214Y-76438910D01*
X240885616Y-76516760D01*
X240661151Y-76631132D01*
X240457350Y-76779201D01*
X240457345Y-76779205D01*
X240279205Y-76957345D01*
X240279201Y-76957350D01*
X240131132Y-77161151D01*
X240016760Y-77385616D01*
X239938910Y-77625214D01*
X239899500Y-77874038D01*
X232050500Y-77874038D01*
X232050500Y-71795731D01*
X239899500Y-71795731D01*
X239899500Y-74204258D01*
X239902354Y-74234698D01*
X239902354Y-74234699D01*
X239947206Y-74362881D01*
X239947207Y-74362882D01*
X240027850Y-74472150D01*
X240137118Y-74552793D01*
X240265302Y-74597646D01*
X240265301Y-74597646D01*
X240269271Y-74598018D01*
X240295735Y-74600500D01*
X242704264Y-74600499D01*
X242734698Y-74597646D01*
X242862882Y-74552793D01*
X242972150Y-74472150D01*
X243052793Y-74362882D01*
X243097646Y-74234698D01*
X243100500Y-74204265D01*
X243100499Y-72598543D01*
X247799499Y-72598543D01*
X247837947Y-72791829D01*
X247837950Y-72791839D01*
X247913364Y-72973907D01*
X247913371Y-72973920D01*
X248022860Y-73137781D01*
X248022863Y-73137785D01*
X248162214Y-73277136D01*
X248162218Y-73277139D01*
X248326079Y-73386628D01*
X248326092Y-73386635D01*
X248508160Y-73462049D01*
X248508165Y-73462051D01*
X248508169Y-73462051D01*
X248508170Y-73462052D01*
X248701456Y-73500500D01*
X248701459Y-73500500D01*
X248898543Y-73500500D01*
X249028582Y-73474632D01*
X249091835Y-73462051D01*
X249273914Y-73386632D01*
X249437782Y-73277139D01*
X249577139Y-73137782D01*
X249686632Y-72973914D01*
X249762051Y-72791835D01*
X249800500Y-72598543D01*
X260499499Y-72598543D01*
X260537947Y-72791829D01*
X260537950Y-72791839D01*
X260613364Y-72973907D01*
X260613371Y-72973920D01*
X260722860Y-73137781D01*
X260722863Y-73137785D01*
X260862214Y-73277136D01*
X260862218Y-73277139D01*
X261026079Y-73386628D01*
X261026092Y-73386635D01*
X261208160Y-73462049D01*
X261208165Y-73462051D01*
X261208169Y-73462051D01*
X261208170Y-73462052D01*
X261401456Y-73500500D01*
X261401459Y-73500500D01*
X261598543Y-73500500D01*
X261728582Y-73474632D01*
X261791835Y-73462051D01*
X261973914Y-73386632D01*
X262137782Y-73277139D01*
X262277139Y-73137782D01*
X262386632Y-72973914D01*
X262462051Y-72791835D01*
X262500500Y-72598541D01*
X262500500Y-72401459D01*
X262500500Y-72401456D01*
X262462052Y-72208170D01*
X262462051Y-72208169D01*
X262462051Y-72208165D01*
X262462049Y-72208160D01*
X262386635Y-72026092D01*
X262386628Y-72026079D01*
X262277139Y-71862218D01*
X262277136Y-71862214D01*
X262137785Y-71722863D01*
X262137781Y-71722860D01*
X261973920Y-71613371D01*
X261973907Y-71613364D01*
X261791839Y-71537950D01*
X261791829Y-71537947D01*
X261598543Y-71499500D01*
X261598541Y-71499500D01*
X261401459Y-71499500D01*
X261401457Y-71499500D01*
X261208170Y-71537947D01*
X261208160Y-71537950D01*
X261026092Y-71613364D01*
X261026079Y-71613371D01*
X260862218Y-71722860D01*
X260862214Y-71722863D01*
X260722863Y-71862214D01*
X260722860Y-71862218D01*
X260613371Y-72026079D01*
X260613364Y-72026092D01*
X260537950Y-72208160D01*
X260537947Y-72208170D01*
X260499500Y-72401456D01*
X260499500Y-72401459D01*
X260499500Y-72598541D01*
X260499500Y-72598543D01*
X260499499Y-72598543D01*
X249800500Y-72598543D01*
X249800500Y-72598541D01*
X249800500Y-72401459D01*
X249800500Y-72401456D01*
X249762052Y-72208170D01*
X249762051Y-72208169D01*
X249762051Y-72208165D01*
X249762049Y-72208160D01*
X249686635Y-72026092D01*
X249686628Y-72026079D01*
X249577139Y-71862218D01*
X249577136Y-71862214D01*
X249437785Y-71722863D01*
X249437781Y-71722860D01*
X249273920Y-71613371D01*
X249273907Y-71613364D01*
X249091839Y-71537950D01*
X249091829Y-71537947D01*
X248898543Y-71499500D01*
X248898541Y-71499500D01*
X248701459Y-71499500D01*
X248701457Y-71499500D01*
X248508170Y-71537947D01*
X248508160Y-71537950D01*
X248326092Y-71613364D01*
X248326079Y-71613371D01*
X248162218Y-71722860D01*
X248162214Y-71722863D01*
X248022863Y-71862214D01*
X248022860Y-71862218D01*
X247913371Y-72026079D01*
X247913364Y-72026092D01*
X247837950Y-72208160D01*
X247837947Y-72208170D01*
X247799500Y-72401456D01*
X247799500Y-72401459D01*
X247799500Y-72598541D01*
X247799500Y-72598543D01*
X247799499Y-72598543D01*
X243100499Y-72598543D01*
X243100499Y-71795736D01*
X243097646Y-71765302D01*
X243052793Y-71637118D01*
X242972150Y-71527850D01*
X242862882Y-71447207D01*
X242862881Y-71447206D01*
X242734695Y-71402353D01*
X242734698Y-71402353D01*
X242704268Y-71399500D01*
X240295741Y-71399500D01*
X240265301Y-71402354D01*
X240265300Y-71402354D01*
X240137118Y-71447206D01*
X240027850Y-71527850D01*
X239947206Y-71637118D01*
X239902353Y-71765302D01*
X239899500Y-71795731D01*
X232050500Y-71795731D01*
X232050500Y-63407966D01*
X247350000Y-63407966D01*
X247350000Y-63657033D01*
X247382508Y-63903963D01*
X247446973Y-64144549D01*
X247542283Y-64374648D01*
X247542288Y-64374659D01*
X247666813Y-64590341D01*
X247666819Y-64590349D01*
X247741400Y-64687545D01*
X248648958Y-63779987D01*
X248673978Y-63840390D01*
X248745112Y-63946851D01*
X248835649Y-64037388D01*
X248942110Y-64108522D01*
X249002511Y-64133541D01*
X248094953Y-65041098D01*
X248192150Y-65115680D01*
X248192158Y-65115686D01*
X248407840Y-65240211D01*
X248407851Y-65240216D01*
X248637950Y-65335526D01*
X248878536Y-65399991D01*
X249125466Y-65432500D01*
X249374534Y-65432500D01*
X249621463Y-65399991D01*
X249862049Y-65335526D01*
X250092148Y-65240216D01*
X250092159Y-65240211D01*
X250307855Y-65115678D01*
X250405045Y-65041100D01*
X250405045Y-65041097D01*
X249497488Y-64133541D01*
X249557890Y-64108522D01*
X249664351Y-64037388D01*
X249754888Y-63946851D01*
X249826022Y-63840390D01*
X249851041Y-63779989D01*
X250758597Y-64687545D01*
X250758600Y-64687545D01*
X250833178Y-64590355D01*
X250957711Y-64374659D01*
X250957716Y-64374648D01*
X251053026Y-64144549D01*
X251117491Y-63903963D01*
X251150000Y-63657033D01*
X251150000Y-63407966D01*
X251117491Y-63161036D01*
X251053026Y-62920450D01*
X250957716Y-62690351D01*
X250957711Y-62690340D01*
X250833186Y-62474658D01*
X250833180Y-62474650D01*
X250776531Y-62400823D01*
X250776529Y-62400820D01*
X250758599Y-62377453D01*
X250758598Y-62377453D01*
X249851041Y-63285010D01*
X249826022Y-63224610D01*
X249754888Y-63118149D01*
X249664351Y-63027612D01*
X249557890Y-62956478D01*
X249497487Y-62931457D01*
X250100714Y-62328231D01*
X252649500Y-62328231D01*
X252649500Y-64736758D01*
X252652354Y-64767198D01*
X252652354Y-64767199D01*
X252697206Y-64895381D01*
X252697207Y-64895382D01*
X252777850Y-65004650D01*
X252887118Y-65085293D01*
X253015302Y-65130146D01*
X253015301Y-65130146D01*
X253019271Y-65130518D01*
X253045735Y-65133000D01*
X255454264Y-65132999D01*
X255484698Y-65130146D01*
X255612882Y-65085293D01*
X255722150Y-65004650D01*
X255802793Y-64895382D01*
X255847646Y-64767198D01*
X255850500Y-64736765D01*
X255850499Y-62328236D01*
X255847646Y-62297802D01*
X255802793Y-62169618D01*
X255722150Y-62060350D01*
X255612882Y-61979707D01*
X255612881Y-61979706D01*
X255484695Y-61934853D01*
X255484698Y-61934853D01*
X255454268Y-61932000D01*
X253045741Y-61932000D01*
X253015301Y-61934854D01*
X253015300Y-61934854D01*
X252887118Y-61979706D01*
X252777850Y-62060350D01*
X252697206Y-62169618D01*
X252652353Y-62297802D01*
X252649500Y-62328231D01*
X250100714Y-62328231D01*
X250405045Y-62023900D01*
X250307849Y-61949319D01*
X250307841Y-61949313D01*
X250092159Y-61824788D01*
X250092148Y-61824783D01*
X249862049Y-61729473D01*
X249621463Y-61665008D01*
X249374534Y-61632500D01*
X249125466Y-61632500D01*
X248878536Y-61665008D01*
X248637950Y-61729473D01*
X248407851Y-61824783D01*
X248407847Y-61824785D01*
X248192143Y-61949323D01*
X248094953Y-62023899D01*
X248094953Y-62023900D01*
X249002511Y-62931458D01*
X248942110Y-62956478D01*
X248835649Y-63027612D01*
X248745112Y-63118149D01*
X248673978Y-63224610D01*
X248648958Y-63285011D01*
X247741400Y-62377453D01*
X247741399Y-62377453D01*
X247666823Y-62474643D01*
X247542285Y-62690347D01*
X247542283Y-62690351D01*
X247446973Y-62920450D01*
X247382508Y-63161036D01*
X247350000Y-63407966D01*
X232050500Y-63407966D01*
X232050500Y-58503480D01*
X232050695Y-58496527D01*
X232057353Y-58377973D01*
X233449500Y-58377973D01*
X233449500Y-58386274D01*
X233449500Y-58622027D01*
X233487679Y-58863076D01*
X233563096Y-59095185D01*
X233632242Y-59230893D01*
X233673896Y-59312642D01*
X233817339Y-59510076D01*
X233817343Y-59510081D01*
X233989918Y-59682656D01*
X233989923Y-59682660D01*
X234063205Y-59735902D01*
X234187361Y-59826106D01*
X234404815Y-59936904D01*
X234636924Y-60012321D01*
X234877973Y-60050500D01*
X234877974Y-60050500D01*
X235122026Y-60050500D01*
X235122027Y-60050500D01*
X235363076Y-60012321D01*
X235384029Y-60005513D01*
X273759500Y-60005513D01*
X273759500Y-60194486D01*
X273789059Y-60381118D01*
X273847454Y-60560836D01*
X273928691Y-60720272D01*
X273933240Y-60729199D01*
X274044310Y-60882073D01*
X274177927Y-61015690D01*
X274330801Y-61126760D01*
X274405683Y-61164914D01*
X274499163Y-61212545D01*
X274499165Y-61212545D01*
X274499168Y-61212547D01*
X274595497Y-61243846D01*
X274678881Y-61270940D01*
X274865514Y-61300500D01*
X274865519Y-61300500D01*
X275054486Y-61300500D01*
X275241118Y-61270940D01*
X275420832Y-61212547D01*
X275589199Y-61126760D01*
X275742073Y-61015690D01*
X275875690Y-60882073D01*
X275956191Y-60771272D01*
X276011521Y-60728607D01*
X276081134Y-60722628D01*
X276142929Y-60755234D01*
X276166993Y-60787863D01*
X276217083Y-60886169D01*
X276217084Y-60886170D01*
X276277338Y-60969104D01*
X276277340Y-60969105D01*
X277017037Y-60229408D01*
X277034075Y-60292993D01*
X277099901Y-60407007D01*
X277192993Y-60500099D01*
X277307007Y-60565925D01*
X277370590Y-60582962D01*
X276630893Y-61322658D01*
X276713828Y-61382914D01*
X276924197Y-61490102D01*
X277148752Y-61563065D01*
X277148751Y-61563065D01*
X277381948Y-61600000D01*
X277618052Y-61600000D01*
X277851247Y-61563065D01*
X278075802Y-61490102D01*
X278286163Y-61382918D01*
X278286169Y-61382914D01*
X278369104Y-61322658D01*
X278369105Y-61322658D01*
X277629408Y-60582962D01*
X277692993Y-60565925D01*
X277807007Y-60500099D01*
X277900099Y-60407007D01*
X277965925Y-60292993D01*
X277982962Y-60229408D01*
X278722658Y-60969105D01*
X278722658Y-60969104D01*
X278782914Y-60886169D01*
X278782918Y-60886163D01*
X278833005Y-60787863D01*
X278880979Y-60737067D01*
X278948800Y-60720272D01*
X279014935Y-60742809D01*
X279043807Y-60771271D01*
X279124310Y-60882073D01*
X279257927Y-61015690D01*
X279410801Y-61126760D01*
X279485683Y-61164914D01*
X279579163Y-61212545D01*
X279579165Y-61212545D01*
X279579168Y-61212547D01*
X279675497Y-61243846D01*
X279758881Y-61270940D01*
X279945514Y-61300500D01*
X279945519Y-61300500D01*
X280134486Y-61300500D01*
X280321118Y-61270940D01*
X280500832Y-61212547D01*
X280669199Y-61126760D01*
X280822073Y-61015690D01*
X280955690Y-60882073D01*
X281066760Y-60729199D01*
X281152547Y-60560832D01*
X281192069Y-60439195D01*
X281231507Y-60381521D01*
X281295866Y-60354323D01*
X281364712Y-60366238D01*
X281416188Y-60413482D01*
X281427931Y-60439196D01*
X281467454Y-60560836D01*
X281548691Y-60720272D01*
X281553240Y-60729199D01*
X281664310Y-60882073D01*
X281797927Y-61015690D01*
X281950801Y-61126760D01*
X282025683Y-61164914D01*
X282119163Y-61212545D01*
X282119165Y-61212545D01*
X282119168Y-61212547D01*
X282215497Y-61243846D01*
X282298881Y-61270940D01*
X282485514Y-61300500D01*
X282485519Y-61300500D01*
X282674486Y-61300500D01*
X282861118Y-61270940D01*
X283040832Y-61212547D01*
X283209199Y-61126760D01*
X283362073Y-61015690D01*
X283495690Y-60882073D01*
X283606760Y-60729199D01*
X283692547Y-60560832D01*
X283732069Y-60439195D01*
X283771507Y-60381521D01*
X283835866Y-60354323D01*
X283904712Y-60366238D01*
X283956188Y-60413482D01*
X283967931Y-60439196D01*
X284007454Y-60560836D01*
X284088691Y-60720272D01*
X284093240Y-60729199D01*
X284204310Y-60882073D01*
X284337927Y-61015690D01*
X284490801Y-61126760D01*
X284565683Y-61164914D01*
X284659163Y-61212545D01*
X284659165Y-61212545D01*
X284659168Y-61212547D01*
X284755497Y-61243846D01*
X284838881Y-61270940D01*
X285025514Y-61300500D01*
X285025519Y-61300500D01*
X285214486Y-61300500D01*
X285401118Y-61270940D01*
X285580832Y-61212547D01*
X285749199Y-61126760D01*
X285902073Y-61015690D01*
X286035690Y-60882073D01*
X286146760Y-60729199D01*
X286232547Y-60560832D01*
X286272069Y-60439195D01*
X286311507Y-60381521D01*
X286375866Y-60354323D01*
X286444712Y-60366238D01*
X286496188Y-60413482D01*
X286507931Y-60439196D01*
X286547454Y-60560836D01*
X286628691Y-60720272D01*
X286633240Y-60729199D01*
X286744310Y-60882073D01*
X286877927Y-61015690D01*
X287030801Y-61126760D01*
X287105683Y-61164914D01*
X287199163Y-61212545D01*
X287199165Y-61212545D01*
X287199168Y-61212547D01*
X287295497Y-61243846D01*
X287378881Y-61270940D01*
X287565514Y-61300500D01*
X287565519Y-61300500D01*
X287754486Y-61300500D01*
X287941118Y-61270940D01*
X288120832Y-61212547D01*
X288289199Y-61126760D01*
X288442073Y-61015690D01*
X288575690Y-60882073D01*
X288686760Y-60729199D01*
X288772547Y-60560832D01*
X288812069Y-60439195D01*
X288851507Y-60381521D01*
X288915866Y-60354323D01*
X288984712Y-60366238D01*
X289036188Y-60413482D01*
X289047931Y-60439196D01*
X289087454Y-60560836D01*
X289168691Y-60720272D01*
X289173240Y-60729199D01*
X289284310Y-60882073D01*
X289417927Y-61015690D01*
X289570801Y-61126760D01*
X289645683Y-61164914D01*
X289739163Y-61212545D01*
X289739165Y-61212545D01*
X289739168Y-61212547D01*
X289835497Y-61243846D01*
X289918881Y-61270940D01*
X290105514Y-61300500D01*
X290105519Y-61300500D01*
X290294486Y-61300500D01*
X290481118Y-61270940D01*
X290660832Y-61212547D01*
X290829199Y-61126760D01*
X290982073Y-61015690D01*
X291115690Y-60882073D01*
X291226760Y-60729199D01*
X291312547Y-60560832D01*
X291352069Y-60439195D01*
X291391507Y-60381521D01*
X291455866Y-60354323D01*
X291524712Y-60366238D01*
X291576188Y-60413482D01*
X291587931Y-60439196D01*
X291627454Y-60560836D01*
X291708691Y-60720272D01*
X291713240Y-60729199D01*
X291824310Y-60882073D01*
X291957927Y-61015690D01*
X292110801Y-61126760D01*
X292185683Y-61164914D01*
X292279163Y-61212545D01*
X292279165Y-61212545D01*
X292279168Y-61212547D01*
X292375497Y-61243846D01*
X292458881Y-61270940D01*
X292645514Y-61300500D01*
X292645519Y-61300500D01*
X292834486Y-61300500D01*
X293021118Y-61270940D01*
X293200832Y-61212547D01*
X293369199Y-61126760D01*
X293522073Y-61015690D01*
X293655690Y-60882073D01*
X293766760Y-60729199D01*
X293852547Y-60560832D01*
X293892069Y-60439195D01*
X293931507Y-60381521D01*
X293995866Y-60354323D01*
X294064712Y-60366238D01*
X294116188Y-60413482D01*
X294127931Y-60439196D01*
X294167454Y-60560836D01*
X294248691Y-60720272D01*
X294253240Y-60729199D01*
X294364310Y-60882073D01*
X294497927Y-61015690D01*
X294650801Y-61126760D01*
X294725683Y-61164914D01*
X294819163Y-61212545D01*
X294819165Y-61212545D01*
X294819168Y-61212547D01*
X294915497Y-61243846D01*
X294998881Y-61270940D01*
X295185514Y-61300500D01*
X295185519Y-61300500D01*
X295374486Y-61300500D01*
X295561118Y-61270940D01*
X295740832Y-61212547D01*
X295909199Y-61126760D01*
X296062073Y-61015690D01*
X296195690Y-60882073D01*
X296306760Y-60729199D01*
X296392547Y-60560832D01*
X296432069Y-60439195D01*
X296471507Y-60381521D01*
X296535866Y-60354323D01*
X296604712Y-60366238D01*
X296656188Y-60413482D01*
X296667931Y-60439196D01*
X296707454Y-60560836D01*
X296788691Y-60720272D01*
X296793240Y-60729199D01*
X296904310Y-60882073D01*
X297037927Y-61015690D01*
X297190801Y-61126760D01*
X297265683Y-61164914D01*
X297359163Y-61212545D01*
X297359165Y-61212545D01*
X297359168Y-61212547D01*
X297455497Y-61243846D01*
X297538881Y-61270940D01*
X297725514Y-61300500D01*
X297725519Y-61300500D01*
X297914486Y-61300500D01*
X298101118Y-61270940D01*
X298280832Y-61212547D01*
X298449199Y-61126760D01*
X298602073Y-61015690D01*
X298735690Y-60882073D01*
X298846760Y-60729199D01*
X298932547Y-60560832D01*
X298972069Y-60439195D01*
X299011507Y-60381521D01*
X299075866Y-60354323D01*
X299144712Y-60366238D01*
X299196188Y-60413482D01*
X299207931Y-60439196D01*
X299247454Y-60560836D01*
X299328691Y-60720272D01*
X299333240Y-60729199D01*
X299444310Y-60882073D01*
X299577927Y-61015690D01*
X299730801Y-61126760D01*
X299805683Y-61164914D01*
X299899163Y-61212545D01*
X299899165Y-61212545D01*
X299899168Y-61212547D01*
X299995497Y-61243846D01*
X300078881Y-61270940D01*
X300265514Y-61300500D01*
X300265519Y-61300500D01*
X300454486Y-61300500D01*
X300641118Y-61270940D01*
X300820832Y-61212547D01*
X300989199Y-61126760D01*
X301142073Y-61015690D01*
X301275690Y-60882073D01*
X301386760Y-60729199D01*
X301472547Y-60560832D01*
X301512069Y-60439195D01*
X301551507Y-60381521D01*
X301615866Y-60354323D01*
X301684712Y-60366238D01*
X301736188Y-60413482D01*
X301747931Y-60439196D01*
X301787454Y-60560836D01*
X301868691Y-60720272D01*
X301873240Y-60729199D01*
X301984310Y-60882073D01*
X302117927Y-61015690D01*
X302270801Y-61126760D01*
X302345683Y-61164914D01*
X302439163Y-61212545D01*
X302439165Y-61212545D01*
X302439168Y-61212547D01*
X302535497Y-61243846D01*
X302618881Y-61270940D01*
X302805514Y-61300500D01*
X302805519Y-61300500D01*
X302994486Y-61300500D01*
X303181118Y-61270940D01*
X303360832Y-61212547D01*
X303529199Y-61126760D01*
X303682073Y-61015690D01*
X303815690Y-60882073D01*
X303926760Y-60729199D01*
X304012547Y-60560832D01*
X304052069Y-60439195D01*
X304091507Y-60381521D01*
X304155866Y-60354323D01*
X304224712Y-60366238D01*
X304276188Y-60413482D01*
X304287931Y-60439196D01*
X304327454Y-60560836D01*
X304408691Y-60720272D01*
X304413240Y-60729199D01*
X304524310Y-60882073D01*
X304657927Y-61015690D01*
X304810801Y-61126760D01*
X304885683Y-61164914D01*
X304979163Y-61212545D01*
X304979165Y-61212545D01*
X304979168Y-61212547D01*
X305075497Y-61243846D01*
X305158881Y-61270940D01*
X305345514Y-61300500D01*
X305345519Y-61300500D01*
X305534486Y-61300500D01*
X305721118Y-61270940D01*
X305900832Y-61212547D01*
X306069199Y-61126760D01*
X306222073Y-61015690D01*
X306355690Y-60882073D01*
X306466760Y-60729199D01*
X306552547Y-60560832D01*
X306592069Y-60439195D01*
X306631507Y-60381521D01*
X306695866Y-60354323D01*
X306764712Y-60366238D01*
X306816188Y-60413482D01*
X306827931Y-60439196D01*
X306867454Y-60560836D01*
X306948691Y-60720272D01*
X306953240Y-60729199D01*
X307064310Y-60882073D01*
X307197927Y-61015690D01*
X307350801Y-61126760D01*
X307425683Y-61164914D01*
X307519163Y-61212545D01*
X307519165Y-61212545D01*
X307519168Y-61212547D01*
X307615497Y-61243846D01*
X307698881Y-61270940D01*
X307885514Y-61300500D01*
X307885519Y-61300500D01*
X308074486Y-61300500D01*
X308261118Y-61270940D01*
X308440832Y-61212547D01*
X308609199Y-61126760D01*
X308762073Y-61015690D01*
X308895690Y-60882073D01*
X309006760Y-60729199D01*
X309092547Y-60560832D01*
X309132069Y-60439195D01*
X309171507Y-60381521D01*
X309235866Y-60354323D01*
X309304712Y-60366238D01*
X309356188Y-60413482D01*
X309367931Y-60439196D01*
X309407454Y-60560836D01*
X309488691Y-60720272D01*
X309493240Y-60729199D01*
X309604310Y-60882073D01*
X309737927Y-61015690D01*
X309890801Y-61126760D01*
X309965683Y-61164914D01*
X310059163Y-61212545D01*
X310059165Y-61212545D01*
X310059168Y-61212547D01*
X310155497Y-61243846D01*
X310238881Y-61270940D01*
X310425514Y-61300500D01*
X310425519Y-61300500D01*
X310614486Y-61300500D01*
X310801118Y-61270940D01*
X310980832Y-61212547D01*
X311149199Y-61126760D01*
X311302073Y-61015690D01*
X311435690Y-60882073D01*
X311546760Y-60729199D01*
X311632547Y-60560832D01*
X311690940Y-60381118D01*
X311695184Y-60354323D01*
X311720500Y-60194486D01*
X311720500Y-60005513D01*
X311690940Y-59818881D01*
X311632545Y-59639163D01*
X311566774Y-59510081D01*
X311546760Y-59470801D01*
X311435690Y-59317927D01*
X311302073Y-59184310D01*
X311149199Y-59073240D01*
X310980836Y-58987454D01*
X310801118Y-58929059D01*
X310614486Y-58899500D01*
X310614481Y-58899500D01*
X310425519Y-58899500D01*
X310425514Y-58899500D01*
X310238881Y-58929059D01*
X310059163Y-58987454D01*
X309890800Y-59073240D01*
X309803579Y-59136610D01*
X309737927Y-59184310D01*
X309737925Y-59184312D01*
X309737924Y-59184312D01*
X309604312Y-59317924D01*
X309604312Y-59317925D01*
X309604310Y-59317927D01*
X309604308Y-59317930D01*
X309493240Y-59470800D01*
X309407454Y-59639163D01*
X309367931Y-59760803D01*
X309328493Y-59818478D01*
X309264134Y-59845676D01*
X309195288Y-59833761D01*
X309143812Y-59786516D01*
X309132069Y-59760803D01*
X309092545Y-59639163D01*
X309026774Y-59510081D01*
X309006760Y-59470801D01*
X308895690Y-59317927D01*
X308762073Y-59184310D01*
X308609199Y-59073240D01*
X308440836Y-58987454D01*
X308261118Y-58929059D01*
X308074486Y-58899500D01*
X308074481Y-58899500D01*
X307885519Y-58899500D01*
X307885514Y-58899500D01*
X307698881Y-58929059D01*
X307519163Y-58987454D01*
X307350800Y-59073240D01*
X307263579Y-59136610D01*
X307197927Y-59184310D01*
X307197925Y-59184312D01*
X307197924Y-59184312D01*
X307064312Y-59317924D01*
X307064312Y-59317925D01*
X307064310Y-59317927D01*
X307064308Y-59317930D01*
X306953240Y-59470800D01*
X306867454Y-59639163D01*
X306827931Y-59760803D01*
X306788493Y-59818478D01*
X306724134Y-59845676D01*
X306655288Y-59833761D01*
X306603812Y-59786516D01*
X306592069Y-59760803D01*
X306552545Y-59639163D01*
X306486774Y-59510081D01*
X306466760Y-59470801D01*
X306355690Y-59317927D01*
X306222073Y-59184310D01*
X306069199Y-59073240D01*
X305900836Y-58987454D01*
X305721118Y-58929059D01*
X305534486Y-58899500D01*
X305534481Y-58899500D01*
X305345519Y-58899500D01*
X305345514Y-58899500D01*
X305158881Y-58929059D01*
X304979163Y-58987454D01*
X304810800Y-59073240D01*
X304723579Y-59136610D01*
X304657927Y-59184310D01*
X304657925Y-59184312D01*
X304657924Y-59184312D01*
X304524312Y-59317924D01*
X304524312Y-59317925D01*
X304524310Y-59317927D01*
X304524308Y-59317930D01*
X304413240Y-59470800D01*
X304327454Y-59639163D01*
X304287931Y-59760803D01*
X304248493Y-59818478D01*
X304184134Y-59845676D01*
X304115288Y-59833761D01*
X304063812Y-59786516D01*
X304052069Y-59760803D01*
X304012545Y-59639163D01*
X303946774Y-59510081D01*
X303926760Y-59470801D01*
X303815690Y-59317927D01*
X303682073Y-59184310D01*
X303529199Y-59073240D01*
X303360836Y-58987454D01*
X303181118Y-58929059D01*
X302994486Y-58899500D01*
X302994481Y-58899500D01*
X302805519Y-58899500D01*
X302805514Y-58899500D01*
X302618881Y-58929059D01*
X302439163Y-58987454D01*
X302270800Y-59073240D01*
X302183579Y-59136610D01*
X302117927Y-59184310D01*
X302117925Y-59184312D01*
X302117924Y-59184312D01*
X301984312Y-59317924D01*
X301984312Y-59317925D01*
X301984310Y-59317927D01*
X301984308Y-59317930D01*
X301873240Y-59470800D01*
X301787454Y-59639163D01*
X301747931Y-59760803D01*
X301708493Y-59818478D01*
X301644134Y-59845676D01*
X301575288Y-59833761D01*
X301523812Y-59786516D01*
X301512069Y-59760803D01*
X301472545Y-59639163D01*
X301406774Y-59510081D01*
X301386760Y-59470801D01*
X301275690Y-59317927D01*
X301142073Y-59184310D01*
X300989199Y-59073240D01*
X300820836Y-58987454D01*
X300641118Y-58929059D01*
X300454486Y-58899500D01*
X300454481Y-58899500D01*
X300265519Y-58899500D01*
X300265514Y-58899500D01*
X300078881Y-58929059D01*
X299899163Y-58987454D01*
X299730800Y-59073240D01*
X299643579Y-59136610D01*
X299577927Y-59184310D01*
X299577925Y-59184312D01*
X299577924Y-59184312D01*
X299444312Y-59317924D01*
X299444312Y-59317925D01*
X299444310Y-59317927D01*
X299444308Y-59317930D01*
X299333240Y-59470800D01*
X299247454Y-59639163D01*
X299207931Y-59760803D01*
X299168493Y-59818478D01*
X299104134Y-59845676D01*
X299035288Y-59833761D01*
X298983812Y-59786516D01*
X298972069Y-59760803D01*
X298932545Y-59639163D01*
X298866774Y-59510081D01*
X298846760Y-59470801D01*
X298735690Y-59317927D01*
X298602073Y-59184310D01*
X298449199Y-59073240D01*
X298280836Y-58987454D01*
X298101118Y-58929059D01*
X297914486Y-58899500D01*
X297914481Y-58899500D01*
X297725519Y-58899500D01*
X297725514Y-58899500D01*
X297538881Y-58929059D01*
X297359163Y-58987454D01*
X297190800Y-59073240D01*
X297103579Y-59136610D01*
X297037927Y-59184310D01*
X297037925Y-59184312D01*
X297037924Y-59184312D01*
X296904312Y-59317924D01*
X296904312Y-59317925D01*
X296904310Y-59317927D01*
X296904308Y-59317930D01*
X296793240Y-59470800D01*
X296707454Y-59639163D01*
X296667931Y-59760803D01*
X296628493Y-59818478D01*
X296564134Y-59845676D01*
X296495288Y-59833761D01*
X296443812Y-59786516D01*
X296432069Y-59760803D01*
X296392545Y-59639163D01*
X296326774Y-59510081D01*
X296306760Y-59470801D01*
X296195690Y-59317927D01*
X296062073Y-59184310D01*
X295909199Y-59073240D01*
X295740836Y-58987454D01*
X295561118Y-58929059D01*
X295374486Y-58899500D01*
X295374481Y-58899500D01*
X295185519Y-58899500D01*
X295185514Y-58899500D01*
X294998881Y-58929059D01*
X294819163Y-58987454D01*
X294650800Y-59073240D01*
X294563579Y-59136610D01*
X294497927Y-59184310D01*
X294497925Y-59184312D01*
X294497924Y-59184312D01*
X294364312Y-59317924D01*
X294364312Y-59317925D01*
X294364310Y-59317927D01*
X294364308Y-59317930D01*
X294253240Y-59470800D01*
X294167454Y-59639163D01*
X294127931Y-59760803D01*
X294088493Y-59818478D01*
X294024134Y-59845676D01*
X293955288Y-59833761D01*
X293903812Y-59786516D01*
X293892069Y-59760803D01*
X293852545Y-59639163D01*
X293786774Y-59510081D01*
X293766760Y-59470801D01*
X293655690Y-59317927D01*
X293522073Y-59184310D01*
X293369199Y-59073240D01*
X293200836Y-58987454D01*
X293021118Y-58929059D01*
X292834486Y-58899500D01*
X292834481Y-58899500D01*
X292645519Y-58899500D01*
X292645514Y-58899500D01*
X292458881Y-58929059D01*
X292279163Y-58987454D01*
X292110800Y-59073240D01*
X292023579Y-59136610D01*
X291957927Y-59184310D01*
X291957925Y-59184312D01*
X291957924Y-59184312D01*
X291824312Y-59317924D01*
X291824312Y-59317925D01*
X291824310Y-59317927D01*
X291824308Y-59317930D01*
X291713240Y-59470800D01*
X291627454Y-59639163D01*
X291587931Y-59760803D01*
X291548493Y-59818478D01*
X291484134Y-59845676D01*
X291415288Y-59833761D01*
X291363812Y-59786516D01*
X291352069Y-59760803D01*
X291312545Y-59639163D01*
X291246774Y-59510081D01*
X291226760Y-59470801D01*
X291115690Y-59317927D01*
X290982073Y-59184310D01*
X290829199Y-59073240D01*
X290660836Y-58987454D01*
X290481118Y-58929059D01*
X290294486Y-58899500D01*
X290294481Y-58899500D01*
X290105519Y-58899500D01*
X290105514Y-58899500D01*
X289918881Y-58929059D01*
X289739163Y-58987454D01*
X289570800Y-59073240D01*
X289483579Y-59136610D01*
X289417927Y-59184310D01*
X289417925Y-59184312D01*
X289417924Y-59184312D01*
X289284312Y-59317924D01*
X289284312Y-59317925D01*
X289284310Y-59317927D01*
X289284308Y-59317930D01*
X289173240Y-59470800D01*
X289087454Y-59639163D01*
X289047931Y-59760803D01*
X289008493Y-59818478D01*
X288944134Y-59845676D01*
X288875288Y-59833761D01*
X288823812Y-59786516D01*
X288812069Y-59760803D01*
X288772545Y-59639163D01*
X288706774Y-59510081D01*
X288686760Y-59470801D01*
X288575690Y-59317927D01*
X288442073Y-59184310D01*
X288289199Y-59073240D01*
X288120836Y-58987454D01*
X287941118Y-58929059D01*
X287754486Y-58899500D01*
X287754481Y-58899500D01*
X287565519Y-58899500D01*
X287565514Y-58899500D01*
X287378881Y-58929059D01*
X287199163Y-58987454D01*
X287030800Y-59073240D01*
X286943579Y-59136610D01*
X286877927Y-59184310D01*
X286877925Y-59184312D01*
X286877924Y-59184312D01*
X286744312Y-59317924D01*
X286744312Y-59317925D01*
X286744310Y-59317927D01*
X286744308Y-59317930D01*
X286633240Y-59470800D01*
X286547454Y-59639163D01*
X286507931Y-59760803D01*
X286468493Y-59818478D01*
X286404134Y-59845676D01*
X286335288Y-59833761D01*
X286283812Y-59786516D01*
X286272069Y-59760803D01*
X286232545Y-59639163D01*
X286166774Y-59510081D01*
X286146760Y-59470801D01*
X286035690Y-59317927D01*
X285902073Y-59184310D01*
X285749199Y-59073240D01*
X285580836Y-58987454D01*
X285401118Y-58929059D01*
X285214486Y-58899500D01*
X285214481Y-58899500D01*
X285025519Y-58899500D01*
X285025514Y-58899500D01*
X284838881Y-58929059D01*
X284659163Y-58987454D01*
X284490800Y-59073240D01*
X284403579Y-59136610D01*
X284337927Y-59184310D01*
X284337925Y-59184312D01*
X284337924Y-59184312D01*
X284204312Y-59317924D01*
X284204312Y-59317925D01*
X284204310Y-59317927D01*
X284204308Y-59317930D01*
X284093240Y-59470800D01*
X284007454Y-59639163D01*
X283967931Y-59760803D01*
X283928493Y-59818478D01*
X283864134Y-59845676D01*
X283795288Y-59833761D01*
X283743812Y-59786516D01*
X283732069Y-59760803D01*
X283692545Y-59639163D01*
X283626774Y-59510081D01*
X283606760Y-59470801D01*
X283495690Y-59317927D01*
X283362073Y-59184310D01*
X283209199Y-59073240D01*
X283040836Y-58987454D01*
X282861118Y-58929059D01*
X282674486Y-58899500D01*
X282674481Y-58899500D01*
X282485519Y-58899500D01*
X282485514Y-58899500D01*
X282298881Y-58929059D01*
X282119163Y-58987454D01*
X281950800Y-59073240D01*
X281863579Y-59136610D01*
X281797927Y-59184310D01*
X281797925Y-59184312D01*
X281797924Y-59184312D01*
X281664312Y-59317924D01*
X281664312Y-59317925D01*
X281664310Y-59317927D01*
X281664308Y-59317930D01*
X281553240Y-59470800D01*
X281467454Y-59639163D01*
X281427931Y-59760803D01*
X281388493Y-59818478D01*
X281324134Y-59845676D01*
X281255288Y-59833761D01*
X281203812Y-59786516D01*
X281192069Y-59760803D01*
X281152545Y-59639163D01*
X281086774Y-59510081D01*
X281066760Y-59470801D01*
X280955690Y-59317927D01*
X280822073Y-59184310D01*
X280669199Y-59073240D01*
X280500836Y-58987454D01*
X280321118Y-58929059D01*
X280134486Y-58899500D01*
X280134481Y-58899500D01*
X279945519Y-58899500D01*
X279945514Y-58899500D01*
X279758881Y-58929059D01*
X279579163Y-58987454D01*
X279410800Y-59073240D01*
X279323579Y-59136610D01*
X279257927Y-59184310D01*
X279257925Y-59184312D01*
X279257924Y-59184312D01*
X279124312Y-59317924D01*
X279124305Y-59317933D01*
X279043807Y-59428727D01*
X278988477Y-59471393D01*
X278918864Y-59477371D01*
X278857069Y-59444764D01*
X278833005Y-59412136D01*
X278782914Y-59313828D01*
X278722658Y-59230894D01*
X278722658Y-59230893D01*
X277982962Y-59970590D01*
X277965925Y-59907007D01*
X277900099Y-59792993D01*
X277807007Y-59699901D01*
X277692993Y-59634075D01*
X277629409Y-59617037D01*
X278369105Y-58877340D01*
X278369104Y-58877338D01*
X278286174Y-58817087D01*
X278075802Y-58709897D01*
X277851247Y-58636934D01*
X277851248Y-58636934D01*
X277618052Y-58600000D01*
X277381948Y-58600000D01*
X277148752Y-58636934D01*
X276924197Y-58709897D01*
X276713830Y-58817084D01*
X276630894Y-58877340D01*
X277370591Y-59617037D01*
X277307007Y-59634075D01*
X277192993Y-59699901D01*
X277099901Y-59792993D01*
X277034075Y-59907007D01*
X277017037Y-59970590D01*
X276277340Y-59230894D01*
X276217083Y-59313833D01*
X276166993Y-59412138D01*
X276119018Y-59462933D01*
X276051197Y-59479728D01*
X275985063Y-59457190D01*
X275956191Y-59428727D01*
X275944138Y-59412138D01*
X275875690Y-59317927D01*
X275742073Y-59184310D01*
X275589199Y-59073240D01*
X275499079Y-59027321D01*
X275420836Y-58987454D01*
X275241118Y-58929059D01*
X275054486Y-58899500D01*
X275054481Y-58899500D01*
X274865519Y-58899500D01*
X274865514Y-58899500D01*
X274678881Y-58929059D01*
X274499163Y-58987454D01*
X274330800Y-59073240D01*
X274243579Y-59136610D01*
X274177927Y-59184310D01*
X274177925Y-59184312D01*
X274177924Y-59184312D01*
X274044312Y-59317924D01*
X274044312Y-59317925D01*
X274044310Y-59317927D01*
X274044308Y-59317930D01*
X273933240Y-59470800D01*
X273847454Y-59639163D01*
X273789059Y-59818881D01*
X273759500Y-60005513D01*
X235384029Y-60005513D01*
X235595185Y-59936904D01*
X235812639Y-59826106D01*
X236010083Y-59682655D01*
X236182655Y-59510083D01*
X236326106Y-59312639D01*
X236436904Y-59095185D01*
X236512321Y-58863076D01*
X236550500Y-58622027D01*
X236550500Y-58377973D01*
X317449500Y-58377973D01*
X317449500Y-58386274D01*
X317449500Y-58622027D01*
X317487679Y-58863076D01*
X317563096Y-59095185D01*
X317632242Y-59230893D01*
X317673896Y-59312642D01*
X317817339Y-59510076D01*
X317817343Y-59510081D01*
X317989918Y-59682656D01*
X317989923Y-59682660D01*
X318063205Y-59735902D01*
X318187361Y-59826106D01*
X318404815Y-59936904D01*
X318636924Y-60012321D01*
X318877973Y-60050500D01*
X318877974Y-60050500D01*
X319122026Y-60050500D01*
X319122027Y-60050500D01*
X319363076Y-60012321D01*
X319595185Y-59936904D01*
X319812639Y-59826106D01*
X320010083Y-59682655D01*
X320182655Y-59510083D01*
X320326106Y-59312639D01*
X320436904Y-59095185D01*
X320512321Y-58863076D01*
X320550500Y-58622027D01*
X320550500Y-58377973D01*
X320512321Y-58136924D01*
X320436904Y-57904815D01*
X320326106Y-57687361D01*
X320307779Y-57662136D01*
X320182660Y-57489923D01*
X320182656Y-57489918D01*
X320010081Y-57317343D01*
X320010076Y-57317339D01*
X319812642Y-57173896D01*
X319812641Y-57173895D01*
X319812639Y-57173894D01*
X319595185Y-57063096D01*
X319363076Y-56987679D01*
X319363074Y-56987678D01*
X319363072Y-56987678D01*
X319194769Y-56961021D01*
X319122027Y-56949500D01*
X318877973Y-56949500D01*
X318822093Y-56958350D01*
X318636927Y-56987678D01*
X318404812Y-57063097D01*
X318187357Y-57173896D01*
X317989923Y-57317339D01*
X317989918Y-57317343D01*
X317817343Y-57489918D01*
X317817339Y-57489923D01*
X317673896Y-57687357D01*
X317563097Y-57904812D01*
X317487678Y-58136927D01*
X317482478Y-58169761D01*
X317449500Y-58377973D01*
X236550500Y-58377973D01*
X236512321Y-58136924D01*
X236436904Y-57904815D01*
X236326106Y-57687361D01*
X236307779Y-57662136D01*
X236182660Y-57489923D01*
X236182656Y-57489918D01*
X236010081Y-57317343D01*
X236010076Y-57317339D01*
X235812642Y-57173896D01*
X235812641Y-57173895D01*
X235812639Y-57173894D01*
X235595185Y-57063096D01*
X235363076Y-56987679D01*
X235363074Y-56987678D01*
X235363072Y-56987678D01*
X235194769Y-56961021D01*
X235122027Y-56949500D01*
X234877973Y-56949500D01*
X234822093Y-56958350D01*
X234636927Y-56987678D01*
X234404812Y-57063097D01*
X234187357Y-57173896D01*
X233989923Y-57317339D01*
X233989918Y-57317343D01*
X233817343Y-57489918D01*
X233817339Y-57489923D01*
X233673896Y-57687357D01*
X233563097Y-57904812D01*
X233487678Y-58136927D01*
X233482478Y-58169761D01*
X233449500Y-58377973D01*
X232057353Y-58377973D01*
X232058017Y-58366148D01*
X232058017Y-58366147D01*
X232059478Y-58340130D01*
X232068656Y-58176702D01*
X232070210Y-58162907D01*
X232123283Y-57850537D01*
X232126377Y-57836985D01*
X232214089Y-57532530D01*
X232218682Y-57519406D01*
X232302379Y-57317343D01*
X232339929Y-57226686D01*
X232345951Y-57214180D01*
X232499227Y-56936850D01*
X232506605Y-56925107D01*
X232689972Y-56666676D01*
X232698619Y-56655834D01*
X232909750Y-56419579D01*
X232919581Y-56409749D01*
X233155834Y-56198619D01*
X233166676Y-56189972D01*
X233425107Y-56006605D01*
X233436850Y-55999227D01*
X233714180Y-55845951D01*
X233726686Y-55839929D01*
X234019406Y-55718682D01*
X234032526Y-55714090D01*
X234336990Y-55626375D01*
X234350537Y-55623283D01*
X234662907Y-55570210D01*
X234676700Y-55568656D01*
X234996528Y-55550695D01*
X235003481Y-55550500D01*
X235016408Y-55550500D01*
X318983592Y-55550500D01*
X318996519Y-55550500D01*
X319003472Y-55550695D01*
G37*
G04 #@! TD.AperFunction*
M02*
