G04 #@! TF.GenerationSoftware,KiCad,Pcbnew,9.0.4*
G04 #@! TF.CreationDate,2025-11-10T17:45:29+01:00*
G04 #@! TF.ProjectId,hw-wps,68772d77-7073-42e6-9b69-6361645f7063,rev?*
G04 #@! TF.SameCoordinates,Original*
G04 #@! TF.FileFunction,Soldermask,Bot*
G04 #@! TF.FilePolarity,Negative*
%FSLAX46Y46*%
G04 Gerber Fmt 4.6, Leading zero omitted, Abs format (unit mm)*
G04 Created by KiCad (PCBNEW 9.0.4) date 2025-11-10 17:45:29*
%MOMM*%
%LPD*%
G01*
G04 APERTURE LIST*
G04 Aperture macros list*
%AMRoundRect*
0 Rectangle with rounded corners*
0 $1 Rounding radius*
0 $2 $3 $4 $5 $6 $7 $8 $9 X,Y pos of 4 corners*
0 Add a 4 corners polygon primitive as box body*
4,1,4,$2,$3,$4,$5,$6,$7,$8,$9,$2,$3,0*
0 Add four circle primitives for the rounded corners*
1,1,$1+$1,$2,$3*
1,1,$1+$1,$4,$5*
1,1,$1+$1,$6,$7*
1,1,$1+$1,$8,$9*
0 Add four rect primitives between the rounded corners*
20,1,$1+$1,$2,$3,$4,$5,0*
20,1,$1+$1,$4,$5,$6,$7,0*
20,1,$1+$1,$6,$7,$8,$9,0*
20,1,$1+$1,$8,$9,$2,$3,0*%
G04 Aperture macros list end*
%ADD10C,1.600000*%
%ADD11RoundRect,0.250001X1.149999X1.149999X-1.149999X1.149999X-1.149999X-1.149999X1.149999X-1.149999X0*%
%ADD12C,2.800000*%
%ADD13R,1.600000X1.600000*%
%ADD14RoundRect,0.250000X0.550000X-0.550000X0.550000X0.550000X-0.550000X0.550000X-0.550000X-0.550000X0*%
%ADD15O,1.600000X2.000000*%
%ADD16RoundRect,0.250001X-1.149999X1.149999X-1.149999X-1.149999X1.149999X-1.149999X1.149999X1.149999X0*%
%ADD17C,2.000000*%
G04 APERTURE END LIST*
D10*
X261500000Y-78000000D03*
X248800000Y-78000000D03*
D11*
X254250000Y-63532500D03*
D12*
X249250000Y-63532500D03*
D13*
X270845000Y-112680000D03*
D10*
X273385000Y-112680000D03*
X270845000Y-110140000D03*
X273385000Y-110140000D03*
X270845000Y-107600000D03*
X273385000Y-107600000D03*
X270845000Y-105060000D03*
X273385000Y-105060000D03*
X270845000Y-102520000D03*
X273385000Y-102520000D03*
X270845000Y-99980000D03*
X273385000Y-99980000D03*
X270845000Y-97440000D03*
X273385000Y-97440000D03*
X270845000Y-94900000D03*
X273385000Y-94900000D03*
D14*
X260000000Y-85000000D03*
D10*
X260000000Y-82500000D03*
D14*
X250500000Y-85000000D03*
D10*
X250500000Y-82500000D03*
X248800000Y-72500000D03*
X261500000Y-72500000D03*
D15*
X246880000Y-90000000D03*
X249420000Y-90000000D03*
X251960000Y-90000000D03*
X254500000Y-90000000D03*
D16*
X241500000Y-73000000D03*
D12*
X241500000Y-78000000D03*
X241500000Y-83000000D03*
D17*
X274960000Y-85500000D03*
X277500000Y-85500000D03*
X280040000Y-85500000D03*
X282580000Y-85500000D03*
X285120000Y-85500000D03*
X287660000Y-85500000D03*
X290200000Y-85500000D03*
X292740000Y-85500000D03*
X295280000Y-85500000D03*
X297820000Y-85500000D03*
X300360000Y-85500000D03*
X302900000Y-85500000D03*
X305440000Y-85500000D03*
X307980000Y-85500000D03*
X310520000Y-85500000D03*
X310520000Y-60100000D03*
X307980000Y-60100000D03*
X305440000Y-60100000D03*
X302900000Y-60100000D03*
X300360000Y-60100000D03*
X297820000Y-60100000D03*
X295280000Y-60100000D03*
X292740000Y-60100000D03*
X290200000Y-60100000D03*
X287660000Y-60100000D03*
X285120000Y-60100000D03*
X282580000Y-60100000D03*
X280040000Y-60100000D03*
X277500000Y-60100000D03*
X274960000Y-60100000D03*
M02*
