M48
; DRILL file {KiCad 9.0.3} date 2025-07-28T15:15:20+0200
; FORMAT={-:-/ absolute / metric / decimal}
; #@! TF.CreationDate,2025-07-28T15:15:20+02:00
; #@! TF.GenerationSoftware,Kicad,Pcbnew,9.0.3
; #@! TF.FileFunction,Plated,1,2,PTH
FMAT,2
METRIC
; #@! TA.AperFunction,Plated,PTH,ViaDrill
T1C0.600
; #@! TA.AperFunction,Plated,PTH,ComponentDrill
T2C0.800
; #@! TA.AperFunction,Plated,PTH,ComponentDrill
T3C1.000
; #@! TA.AperFunction,Plated,PTH,ComponentDrill
T4C1.300
%
G90
G05
T1
X118.0Y-84.5
X124.5Y-85.0
X149.82Y-82.0
T2
X105.5Y-80.705
X105.5Y-83.205
X105.5Y-87.205
X105.5Y-89.705
X111.65Y-91.5
X111.65Y-96.0
X124.35Y-91.5
X124.35Y-96.0
T3
X108.37Y-46.23
X108.37Y-48.77
X110.91Y-46.23
X110.91Y-48.77
X113.45Y-46.23
X113.45Y-48.77
X115.99Y-46.23
X115.99Y-48.77
X118.53Y-46.23
X118.53Y-48.77
X121.07Y-46.23
X121.07Y-48.77
X121.88Y-53.3
X121.88Y-78.7
X123.61Y-46.23
X123.61Y-48.77
X124.42Y-53.3
X124.42Y-78.7
X126.15Y-46.23
X126.15Y-48.77
X126.96Y-53.3
X126.96Y-78.7
X128.69Y-46.23
X128.69Y-48.77
X129.5Y-53.3
X129.5Y-78.7
X131.23Y-46.23
X131.23Y-48.77
X132.04Y-53.3
X132.04Y-78.7
X133.77Y-46.23
X133.77Y-48.77
X134.58Y-53.3
X134.58Y-78.7
X136.31Y-46.23
X136.31Y-48.77
X137.12Y-53.3
X137.12Y-78.7
X138.08Y-82.55
X138.85Y-46.23
X138.85Y-48.77
X139.66Y-53.3
X139.66Y-78.7
X140.62Y-82.55
X141.39Y-46.23
X141.39Y-48.77
X142.2Y-53.3
X142.2Y-78.7
X143.16Y-82.55
X143.93Y-46.23
X143.93Y-48.77
X144.74Y-53.3
X144.74Y-78.7
X145.7Y-82.55
X146.47Y-46.23
X146.47Y-48.77
X147.28Y-53.3
X147.28Y-78.7
X149.01Y-46.23
X149.01Y-48.77
X149.82Y-53.3
X149.82Y-78.7
X151.55Y-46.23
X151.55Y-48.77
X152.36Y-53.3
X152.36Y-78.7
X154.09Y-46.23
X154.09Y-48.77
X154.9Y-53.3
X154.9Y-78.7
X156.63Y-46.23
X156.63Y-48.77
X157.44Y-53.3
X157.44Y-78.7
T4
X104.5Y-64.5
X104.5Y-69.5
X104.5Y-74.5
M30
