M48
; DRILL file {KiCad 9.0.4} date 2025-11-10T17:47:01+0100
; FORMAT={-:-/ absolute / metric / decimal}
; #@! TF.CreationDate,2025-11-10T17:47:01+01:00
; #@! TF.GenerationSoftware,Kicad,Pcbnew,9.0.4
; #@! TF.FileFunction,Plated,1,2,PTH
FMAT,2
METRIC
; #@! TA.AperFunction,Plated,PTH,ViaDrill
T1C0.600
; #@! TA.AperFunction,Plated,PTH,ComponentDrill
T2C0.800
; #@! TA.AperFunction,Plated,PTH,ComponentDrill
T3C1.000
; #@! TA.AperFunction,Plated,PTH,ComponentDrill
T4C1.300
%
G90
G05
T1
X240.5Y-62.5
X241.5Y-115.5
X242.0Y-100.0
X255.0Y-72.5
X259.5Y-89.0
X259.5Y-91.0
X260.0Y-106.5
X266.0Y-65.5
X275.0Y-90.0
X276.5Y-65.5
X276.5Y-76.0
X282.5Y-90.0
X282.5Y-107.5
X283.0Y-95.0
X283.0Y-100.0
X285.0Y-65.5
X289.5Y-100.0
X289.5Y-114.0
X294.5Y-96.0
X300.0Y-65.0
X300.0Y-72.5
X301.0Y-105.5
X301.5Y-83.0
X310.5Y-95.5
X310.5Y-114.0
T2
X248.8Y-72.5
X248.8Y-78.0
X250.5Y-82.5
X250.5Y-85.0
X260.0Y-82.5
X260.0Y-85.0
X261.5Y-72.5
X261.5Y-78.0
X270.845Y-94.9
X270.845Y-97.44
X270.845Y-99.98
X270.845Y-102.52
X270.845Y-105.06
X270.845Y-107.6
X270.845Y-110.14
X270.845Y-112.68
X273.385Y-94.9
X273.385Y-97.44
X273.385Y-99.98
X273.385Y-102.52
X273.385Y-105.06
X273.385Y-107.6
X273.385Y-110.14
X273.385Y-112.68
T3
X246.88Y-90.0
X249.42Y-90.0
X251.96Y-90.0
X254.5Y-90.0
X274.96Y-60.1
X274.96Y-85.5
X277.5Y-60.1
X277.5Y-85.5
X280.04Y-60.1
X280.04Y-85.5
X282.58Y-60.1
X282.58Y-85.5
X285.12Y-60.1
X285.12Y-85.5
X287.66Y-60.1
X287.66Y-85.5
X290.2Y-60.1
X290.2Y-85.5
X292.74Y-60.1
X292.74Y-85.5
X295.28Y-60.1
X295.28Y-85.5
X297.82Y-60.1
X297.82Y-85.5
X300.36Y-60.1
X300.36Y-85.5
X302.9Y-60.1
X302.9Y-85.5
X305.44Y-60.1
X305.44Y-85.5
X307.98Y-60.1
X307.98Y-85.5
X310.52Y-60.1
X310.52Y-85.5
T4
X241.5Y-73.0
X241.5Y-78.0
X241.5Y-83.0
X249.25Y-63.532
X254.25Y-63.532
M30
